M48
; DRILL file {KiCad 7.0.10} date Sun Feb  4 21:05:59 2024
; FORMAT={-:-/ absolute / metric / decimal}
; #@! TF.CreationDate,2024-02-04T21:05:59+01:00
; #@! TF.GenerationSoftware,Kicad,Pcbnew,7.0.10
; #@! TF.FileFunction,Plated,1,4,PTH
FMAT,2
METRIC
; #@! TA.AperFunction,Plated,PTH,ViaDrill
T1C0.400
; #@! TA.AperFunction,Plated,PTH,ComponentDrill
T2C0.500
; #@! TA.AperFunction,Plated,PTH,ComponentDrill
T3C0.950
; #@! TA.AperFunction,Plated,PTH,ComponentDrill
T4C1.000
; #@! TA.AperFunction,Plated,PTH,ComponentDrill
T5C3.200
%
G90
G05
T1
X77.25Y-71.75
X77.6Y-80.8
X77.8Y-75.0
X80.4Y-87.0
X80.5Y-51.0
X80.75Y-30.75
X81.138Y-83.44
X81.6Y-77.8
X81.75Y-76.25
X81.75Y-79.376
X84.5Y-79.25
X85.2Y-40.2
X85.5Y-29.0
X85.5Y-33.75
X85.5Y-48.25
X85.6Y-59.2
X85.75Y-53.0
X85.75Y-77.25
X86.0Y-64.0
X86.0Y-78.5
X86.0Y-85.5
X86.75Y-48.25
X86.75Y-72.0
X86.75Y-77.25
X86.8Y-40.0
X87.0Y-29.0
X87.0Y-33.75
X87.0Y-53.0
X87.0Y-64.0
X87.2Y-59.2
X87.25Y-84.25
X88.75Y-83.0
X88.765Y-72.765
X89.5Y-65.5
X89.737Y-69.237
X89.75Y-66.75
X89.75Y-67.75
X90.185Y-72.705
X90.5Y-37.5
X90.75Y-57.0
X90.75Y-69.5
X91.175Y-72.847
X91.9Y-69.55
X92.65Y-72.8
X98.7Y-114.275
X101.5Y-57.475
X101.5Y-82.475
X101.5Y-97.275
X101.7Y-51.275
X101.9Y-74.475
X101.9Y-104.875
X106.2Y-79.2
X106.2Y-109.7
X106.3Y-86.8
X106.3Y-101.8
X106.4Y-48.3
X106.4Y-94.2
X106.5Y-54.2
X106.8Y-71.3
X109.2Y-39.5
X109.2Y-52.0
X109.2Y-64.5
X109.2Y-77.0
X109.2Y-89.5
X109.2Y-102.0
X109.2Y-114.5
X113.4Y-43.8
X113.4Y-55.4
X113.4Y-68.0
X113.6Y-81.1
X113.6Y-93.6
X113.6Y-106.0
X113.6Y-118.8
X119.6Y-38.2
X119.6Y-50.7
X119.6Y-63.2
X119.6Y-75.7
X119.6Y-88.2
X119.6Y-100.7
X119.6Y-113.2
X119.9Y-39.2
X119.9Y-42.0
X119.9Y-51.7
X119.9Y-54.5
X119.9Y-64.2
X119.9Y-67.0
X119.9Y-76.7
X119.9Y-79.5
X119.9Y-89.2
X119.9Y-92.0
X119.9Y-101.7
X119.9Y-104.5
X119.9Y-114.2
X119.9Y-117.0
X120.6Y-86.6
X120.6Y-99.0
X120.6Y-111.6
X120.8Y-49.0
X120.8Y-74.0
X121.0Y-56.1
X121.0Y-68.6
X121.0Y-93.6
X121.0Y-106.0
X121.0Y-118.6
X121.011Y-81.095
X121.1Y-36.8
X121.1Y-61.8
X121.2Y-43.6
X122.2Y-44.2
X122.2Y-56.4
X122.2Y-69.0
X122.2Y-81.4
X122.2Y-93.8
X122.2Y-106.4
X122.4Y-118.8
X123.6Y-32.2
X123.6Y-44.6
X123.6Y-57.2
X123.6Y-69.8
X123.6Y-82.2
X123.6Y-94.6
X123.6Y-106.8
X124.6Y-64.0
X124.7Y-39.1
X124.7Y-51.6
X124.7Y-76.6
X124.7Y-89.1
X124.7Y-101.5
X124.7Y-114.1
X125.3Y-36.9
X125.5Y-63.27
X125.51Y-68.55
X125.52Y-113.23
X125.6Y-43.8
X125.6Y-56.3
X125.6Y-81.3
X125.6Y-93.8
X125.6Y-106.3
X125.6Y-118.8
X125.66Y-100.94
X125.7Y-51.611
X126.0Y-39.1
X126.0Y-89.1
X126.2Y-64.05
X126.2Y-76.53
X126.2Y-87.6
X126.38Y-113.86
X126.61Y-50.85
X126.74Y-101.11
X127.1Y-42.5
X127.1Y-55.0
X127.1Y-80.0
X127.1Y-92.5
X127.1Y-105.0
X127.1Y-112.0
X127.1Y-117.5
X127.24Y-76.18
X127.3Y-49.6
X127.3Y-62.4
X127.39Y-67.05
X127.4Y-33.0
X127.4Y-45.5
X127.4Y-58.0
X127.4Y-70.5
X127.4Y-83.0
X127.4Y-95.5
X127.4Y-99.7
X127.4Y-108.0
X127.6Y-74.8
X129.75Y-34.75
X129.75Y-47.25
X129.75Y-60.0
X129.8Y-72.4
X129.8Y-84.8
X129.8Y-97.4
X129.8Y-109.8
X130.75Y-32.0
X131.0Y-69.5
X131.25Y-44.25
X131.5Y-37.0
X131.75Y-48.75
X131.75Y-61.25
X132.5Y-36.25
X132.5Y-37.5
X132.5Y-50.0
X132.5Y-73.75
X132.5Y-75.0
X132.5Y-86.25
X132.5Y-87.5
X132.5Y-98.75
X132.5Y-111.25
X132.5Y-112.5
X134.2Y-27.2
X134.2Y-39.8
X134.2Y-52.2
X134.2Y-64.6
X134.2Y-89.6
X134.2Y-102.2
X134.2Y-114.6
X134.21Y-77.26
X135.0Y-25.75
X136.5Y-38.25
X136.5Y-50.75
X136.5Y-63.25
X136.5Y-75.75
X136.5Y-88.25
X136.5Y-100.75
X136.5Y-113.25
X137.0Y-37.5
X137.0Y-50.0
X137.0Y-62.5
X137.0Y-75.0
X137.0Y-87.5
X137.0Y-100.0
X137.0Y-112.5
X137.5Y-25.75
X137.5Y-38.25
X137.5Y-50.75
X137.5Y-63.25
X137.5Y-75.75
X137.5Y-88.25
X137.5Y-100.75
X137.5Y-113.25
X138.2Y-27.25
X138.2Y-39.75
X138.2Y-52.25
X138.2Y-64.75
X138.2Y-77.25
X138.2Y-89.75
X138.2Y-102.25
X138.2Y-114.75
X139.75Y-25.75
X141.0Y-32.0
X141.0Y-44.5
X141.0Y-82.0
X141.0Y-94.5
X141.0Y-107.0
X141.25Y-57.0
X141.25Y-69.75
X141.4Y-119.7
X142.75Y-25.75
X144.3Y-27.2
X144.3Y-39.7
X144.3Y-52.2
X144.3Y-64.7
X144.3Y-77.2
X144.3Y-89.7
X144.3Y-102.2
X144.3Y-114.7
X145.0Y-124.0
X145.292Y-62.462
X145.301Y-49.934
X145.301Y-74.934
X145.301Y-87.434
X145.301Y-99.934
X145.301Y-112.434
X145.5Y-37.25
X145.5Y-64.75
X145.6Y-27.2
X145.6Y-52.3
X145.6Y-77.25
X145.6Y-89.75
X145.6Y-114.8
X145.75Y-39.75
X145.75Y-102.25
X146.8Y-52.25
X146.8Y-64.8
X146.8Y-77.25
X146.8Y-89.75
X146.9Y-27.2
X146.9Y-39.8
X146.9Y-114.8
X147.0Y-87.75
X147.0Y-102.25
X147.5Y-37.75
X147.5Y-50.25
X147.5Y-62.75
X147.5Y-75.25
X147.5Y-100.25
X147.5Y-112.75
X148.1Y-27.2
X148.1Y-39.8
X148.1Y-52.3
X148.1Y-64.75
X148.1Y-77.2
X148.1Y-89.75
X148.1Y-114.8
X148.2Y-102.2
X148.5Y-36.5
X148.5Y-49.0
X148.5Y-74.0
X148.5Y-86.5
X148.5Y-99.0
X148.5Y-111.5
X149.0Y-124.0
X149.5Y-41.25
X149.5Y-52.75
X149.5Y-65.25
X149.5Y-77.75
X149.5Y-79.75
X149.5Y-90.25
X149.5Y-92.25
X149.5Y-104.75
X149.5Y-116.25
X149.6Y-29.2
X150.1Y-124.0
X150.5Y-42.25
X150.5Y-49.0
X150.5Y-61.5
X150.5Y-67.25
X150.5Y-74.0
X150.5Y-86.5
X150.5Y-111.5
X150.75Y-38.5
X151.25Y-99.75
X151.5Y-36.5
X151.5Y-54.75
X151.5Y-79.75
X151.5Y-92.25
X152.4Y-124.0
X152.5Y-39.0
X152.5Y-42.25
X152.5Y-52.0
X152.5Y-74.0
X152.5Y-86.5
X152.5Y-102.5
X152.5Y-111.5
X152.5Y-117.25
X153.5Y-29.75
X153.5Y-49.0
X153.5Y-61.5
X153.5Y-67.25
X153.5Y-79.75
X153.5Y-92.25
X154.0Y-64.0
X154.25Y-115.25
X154.5Y-36.5
X154.5Y-38.75
X154.5Y-42.25
X154.5Y-73.0
X154.5Y-80.75
X154.5Y-98.0
X154.5Y-111.5
X154.75Y-51.0
X155.0Y-55.0
X155.0Y-56.75
X155.0Y-101.25
X155.25Y-31.75
X155.25Y-106.0
X155.5Y-112.5
X155.75Y-75.75
X155.75Y-77.5
X156.0Y-67.5
X156.25Y-45.5
X156.4Y-123.8
X156.75Y-38.75
X157.0Y-42.5
X157.5Y-110.25
X158.5Y-45.0
X158.75Y-108.25
X159.0Y-48.0
X159.0Y-51.5
X159.0Y-54.25
X159.25Y-98.25
X159.25Y-101.5
X159.25Y-104.75
X161.75Y-36.25
X162.25Y-39.5
X163.0Y-113.5
X163.25Y-42.25
X163.25Y-49.0
X163.5Y-46.0
X163.5Y-52.25
X163.5Y-96.25
X163.5Y-100.75
X163.5Y-105.0
X163.5Y-110.25
T2
X67.6Y-30.0
X67.6Y-120.0
X68.303Y-28.303
X68.303Y-31.697
X68.303Y-118.303
X68.303Y-121.697
X70.0Y-27.6
X70.0Y-32.4
X70.0Y-117.6
X70.0Y-122.4
X71.697Y-28.303
X71.697Y-31.697
X71.697Y-118.303
X71.697Y-121.697
X72.4Y-30.0
X72.4Y-120.0
X98.6Y-30.0
X98.6Y-120.0
X99.303Y-28.303
X99.303Y-31.697
X99.303Y-118.303
X99.303Y-121.697
X101.0Y-27.6
X101.0Y-32.4
X101.0Y-117.6
X101.0Y-122.4
X102.697Y-28.303
X102.697Y-31.697
X102.697Y-118.303
X102.697Y-121.697
X103.4Y-30.0
X103.4Y-120.0
X157.6Y-30.0
X157.6Y-120.0
X158.303Y-28.303
X158.303Y-31.697
X158.303Y-118.303
X158.303Y-121.697
X160.0Y-27.6
X160.0Y-32.4
X160.0Y-117.6
X160.0Y-122.4
X161.697Y-28.303
X161.697Y-31.697
X161.697Y-118.303
X161.697Y-121.697
X162.4Y-30.0
X162.4Y-120.0
T3
X69.975Y-74.75
X69.975Y-77.25
X69.975Y-79.75
X69.975Y-82.25
X69.975Y-84.75
X69.975Y-87.25
T4
X69.975Y-65.25
X69.975Y-67.75
X70.0Y-37.5
X70.0Y-40.0
X70.0Y-46.5
X70.0Y-49.0
X70.0Y-56.0
X70.0Y-58.5
X70.0Y-93.5
X70.0Y-96.0
X70.0Y-102.5
X70.0Y-105.0
X85.0Y-120.0
X87.5Y-120.0
X91.68Y-33.535
X91.68Y-36.075
X91.85Y-53.065
X91.85Y-55.605
X158.725Y-57.22
X158.725Y-59.76
X158.725Y-62.3
X158.725Y-64.84
X158.725Y-67.38
X158.725Y-69.92
X158.725Y-72.46
X158.725Y-75.0
X158.725Y-77.54
X158.725Y-80.08
X158.725Y-82.62
X158.725Y-85.16
X158.725Y-87.7
X158.725Y-90.24
X158.725Y-92.78
X161.265Y-57.22
X161.265Y-59.76
X161.265Y-62.3
X161.265Y-64.84
X161.265Y-67.38
X161.265Y-69.92
X161.265Y-72.46
X161.265Y-75.0
X161.265Y-77.54
X161.265Y-80.08
X161.265Y-82.62
X161.265Y-85.16
X161.265Y-87.7
X161.265Y-90.24
X161.265Y-92.78
T5
X70.0Y-30.0
X70.0Y-120.0
X101.0Y-30.0
X101.0Y-120.0
X160.0Y-30.0
X160.0Y-120.0
M30
