%TF.GenerationSoftware,KiCad,Pcbnew,7.0.10*%
%TF.CreationDate,2024-02-04T21:05:04+01:00*%
%TF.ProjectId,demo_LMP7721,64656d6f-5f4c-44d5-9037-3732312e6b69,rev?*%
%TF.SameCoordinates,Original*%
%TF.FileFunction,Legend,Bot*%
%TF.FilePolarity,Positive*%
%FSLAX46Y46*%
G04 Gerber Fmt 4.6, Leading zero omitted, Abs format (unit mm)*
G04 Created by KiCad (PCBNEW 7.0.10) date 2024-02-04 21:05:04*
%MOMM*%
%LPD*%
G01*
G04 APERTURE LIST*
G04 Aperture macros list*
%AMRoundRect*
0 Rectangle with rounded corners*
0 $1 Rounding radius*
0 $2 $3 $4 $5 $6 $7 $8 $9 X,Y pos of 4 corners*
0 Add a 4 corners polygon primitive as box body*
4,1,4,$2,$3,$4,$5,$6,$7,$8,$9,$2,$3,0*
0 Add four circle primitives for the rounded corners*
1,1,$1+$1,$2,$3*
1,1,$1+$1,$4,$5*
1,1,$1+$1,$6,$7*
1,1,$1+$1,$8,$9*
0 Add four rect primitives between the rounded corners*
20,1,$1+$1,$2,$3,$4,$5,0*
20,1,$1+$1,$4,$5,$6,$7,0*
20,1,$1+$1,$6,$7,$8,$9,0*
20,1,$1+$1,$8,$9,$2,$3,0*%
G04 Aperture macros list end*
%ADD10C,0.150000*%
%ADD11C,1.795065*%
%ADD12C,0.800000*%
%ADD13C,6.400000*%
%ADD14RoundRect,0.250000X0.725000X-0.600000X0.725000X0.600000X-0.725000X0.600000X-0.725000X-0.600000X0*%
%ADD15O,1.950000X1.700000*%
%ADD16R,1.700000X1.700000*%
%ADD17O,1.700000X1.700000*%
%ADD18RoundRect,0.250000X0.750000X-0.600000X0.750000X0.600000X-0.750000X0.600000X-0.750000X-0.600000X0*%
%ADD19O,2.000000X1.700000*%
%ADD20RoundRect,0.250000X0.600000X0.750000X-0.600000X0.750000X-0.600000X-0.750000X0.600000X-0.750000X0*%
%ADD21O,1.700000X2.000000*%
G04 APERTURE END LIST*
D10*
X84787030Y-123269819D02*
X85263220Y-123269819D01*
X85263220Y-123269819D02*
X85310839Y-123746009D01*
X85310839Y-123746009D02*
X85263220Y-123698390D01*
X85263220Y-123698390D02*
X85167982Y-123650771D01*
X85167982Y-123650771D02*
X84929887Y-123650771D01*
X84929887Y-123650771D02*
X84834649Y-123698390D01*
X84834649Y-123698390D02*
X84787030Y-123746009D01*
X84787030Y-123746009D02*
X84739411Y-123841247D01*
X84739411Y-123841247D02*
X84739411Y-124079342D01*
X84739411Y-124079342D02*
X84787030Y-124174580D01*
X84787030Y-124174580D02*
X84834649Y-124222200D01*
X84834649Y-124222200D02*
X84929887Y-124269819D01*
X84929887Y-124269819D02*
X85167982Y-124269819D01*
X85167982Y-124269819D02*
X85263220Y-124222200D01*
X85263220Y-124222200D02*
X85310839Y-124174580D01*
X84453696Y-123269819D02*
X84120363Y-124269819D01*
X84120363Y-124269819D02*
X83787030Y-123269819D01*
X123130180Y-29889411D02*
X123130180Y-30460839D01*
X123130180Y-30175125D02*
X124130180Y-30175125D01*
X124130180Y-30175125D02*
X123987323Y-30270363D01*
X123987323Y-30270363D02*
X123892085Y-30365601D01*
X123892085Y-30365601D02*
X123844466Y-30460839D01*
X124130180Y-29556077D02*
X124130180Y-28937030D01*
X124130180Y-28937030D02*
X123749228Y-29270363D01*
X123749228Y-29270363D02*
X123749228Y-29127506D01*
X123749228Y-29127506D02*
X123701609Y-29032268D01*
X123701609Y-29032268D02*
X123653990Y-28984649D01*
X123653990Y-28984649D02*
X123558752Y-28937030D01*
X123558752Y-28937030D02*
X123320657Y-28937030D01*
X123320657Y-28937030D02*
X123225419Y-28984649D01*
X123225419Y-28984649D02*
X123177800Y-29032268D01*
X123177800Y-29032268D02*
X123130180Y-29127506D01*
X123130180Y-29127506D02*
X123130180Y-29413220D01*
X123130180Y-29413220D02*
X123177800Y-29508458D01*
X123177800Y-29508458D02*
X123225419Y-29556077D01*
X124130180Y-28651315D02*
X123130180Y-28317982D01*
X123130180Y-28317982D02*
X124130180Y-27984649D01*
X129069819Y-34193922D02*
X130069819Y-34527255D01*
X130069819Y-34527255D02*
X129069819Y-34860588D01*
X130069819Y-35670112D02*
X130069819Y-35193922D01*
X130069819Y-35193922D02*
X129069819Y-35193922D01*
X113869819Y-117260588D02*
X113869819Y-116689160D01*
X113869819Y-116974874D02*
X112869819Y-116974874D01*
X112869819Y-116974874D02*
X113012676Y-116879636D01*
X113012676Y-116879636D02*
X113107914Y-116784398D01*
X113107914Y-116784398D02*
X113155533Y-116689160D01*
X112869819Y-117593922D02*
X112869819Y-118212969D01*
X112869819Y-118212969D02*
X113250771Y-117879636D01*
X113250771Y-117879636D02*
X113250771Y-118022493D01*
X113250771Y-118022493D02*
X113298390Y-118117731D01*
X113298390Y-118117731D02*
X113346009Y-118165350D01*
X113346009Y-118165350D02*
X113441247Y-118212969D01*
X113441247Y-118212969D02*
X113679342Y-118212969D01*
X113679342Y-118212969D02*
X113774580Y-118165350D01*
X113774580Y-118165350D02*
X113822200Y-118117731D01*
X113822200Y-118117731D02*
X113869819Y-118022493D01*
X113869819Y-118022493D02*
X113869819Y-117736779D01*
X113869819Y-117736779D02*
X113822200Y-117641541D01*
X113822200Y-117641541D02*
X113774580Y-117593922D01*
X112869819Y-118498684D02*
X113869819Y-118832017D01*
X113869819Y-118832017D02*
X112869819Y-119165350D01*
X134469819Y-30060588D02*
X134469819Y-29489160D01*
X134469819Y-29774874D02*
X133469819Y-29774874D01*
X133469819Y-29774874D02*
X133612676Y-29679636D01*
X133612676Y-29679636D02*
X133707914Y-29584398D01*
X133707914Y-29584398D02*
X133755533Y-29489160D01*
X133469819Y-30393922D02*
X133469819Y-31012969D01*
X133469819Y-31012969D02*
X133850771Y-30679636D01*
X133850771Y-30679636D02*
X133850771Y-30822493D01*
X133850771Y-30822493D02*
X133898390Y-30917731D01*
X133898390Y-30917731D02*
X133946009Y-30965350D01*
X133946009Y-30965350D02*
X134041247Y-31012969D01*
X134041247Y-31012969D02*
X134279342Y-31012969D01*
X134279342Y-31012969D02*
X134374580Y-30965350D01*
X134374580Y-30965350D02*
X134422200Y-30917731D01*
X134422200Y-30917731D02*
X134469819Y-30822493D01*
X134469819Y-30822493D02*
X134469819Y-30536779D01*
X134469819Y-30536779D02*
X134422200Y-30441541D01*
X134422200Y-30441541D02*
X134374580Y-30393922D01*
X133469819Y-31298684D02*
X134469819Y-31632017D01*
X134469819Y-31632017D02*
X133469819Y-31965350D01*
X141669819Y-72612969D02*
X141669819Y-72136779D01*
X141669819Y-72136779D02*
X142146009Y-72089160D01*
X142146009Y-72089160D02*
X142098390Y-72136779D01*
X142098390Y-72136779D02*
X142050771Y-72232017D01*
X142050771Y-72232017D02*
X142050771Y-72470112D01*
X142050771Y-72470112D02*
X142098390Y-72565350D01*
X142098390Y-72565350D02*
X142146009Y-72612969D01*
X142146009Y-72612969D02*
X142241247Y-72660588D01*
X142241247Y-72660588D02*
X142479342Y-72660588D01*
X142479342Y-72660588D02*
X142574580Y-72612969D01*
X142574580Y-72612969D02*
X142622200Y-72565350D01*
X142622200Y-72565350D02*
X142669819Y-72470112D01*
X142669819Y-72470112D02*
X142669819Y-72232017D01*
X142669819Y-72232017D02*
X142622200Y-72136779D01*
X142622200Y-72136779D02*
X142574580Y-72089160D01*
X141669819Y-72946303D02*
X142669819Y-73279636D01*
X142669819Y-73279636D02*
X141669819Y-73612969D01*
X128869819Y-113593922D02*
X129869819Y-113927255D01*
X129869819Y-113927255D02*
X128869819Y-114260588D01*
X129869819Y-115070112D02*
X129869819Y-114593922D01*
X129869819Y-114593922D02*
X128869819Y-114593922D01*
X123869819Y-105060588D02*
X123869819Y-104489160D01*
X123869819Y-104774874D02*
X122869819Y-104774874D01*
X122869819Y-104774874D02*
X123012676Y-104679636D01*
X123012676Y-104679636D02*
X123107914Y-104584398D01*
X123107914Y-104584398D02*
X123155533Y-104489160D01*
X122869819Y-105393922D02*
X122869819Y-106012969D01*
X122869819Y-106012969D02*
X123250771Y-105679636D01*
X123250771Y-105679636D02*
X123250771Y-105822493D01*
X123250771Y-105822493D02*
X123298390Y-105917731D01*
X123298390Y-105917731D02*
X123346009Y-105965350D01*
X123346009Y-105965350D02*
X123441247Y-106012969D01*
X123441247Y-106012969D02*
X123679342Y-106012969D01*
X123679342Y-106012969D02*
X123774580Y-105965350D01*
X123774580Y-105965350D02*
X123822200Y-105917731D01*
X123822200Y-105917731D02*
X123869819Y-105822493D01*
X123869819Y-105822493D02*
X123869819Y-105536779D01*
X123869819Y-105536779D02*
X123822200Y-105441541D01*
X123822200Y-105441541D02*
X123774580Y-105393922D01*
X122869819Y-106298684D02*
X123869819Y-106632017D01*
X123869819Y-106632017D02*
X122869819Y-106965350D01*
X137387030Y-123269819D02*
X137863220Y-123269819D01*
X137863220Y-123269819D02*
X137910839Y-123746009D01*
X137910839Y-123746009D02*
X137863220Y-123698390D01*
X137863220Y-123698390D02*
X137767982Y-123650771D01*
X137767982Y-123650771D02*
X137529887Y-123650771D01*
X137529887Y-123650771D02*
X137434649Y-123698390D01*
X137434649Y-123698390D02*
X137387030Y-123746009D01*
X137387030Y-123746009D02*
X137339411Y-123841247D01*
X137339411Y-123841247D02*
X137339411Y-124079342D01*
X137339411Y-124079342D02*
X137387030Y-124174580D01*
X137387030Y-124174580D02*
X137434649Y-124222200D01*
X137434649Y-124222200D02*
X137529887Y-124269819D01*
X137529887Y-124269819D02*
X137767982Y-124269819D01*
X137767982Y-124269819D02*
X137863220Y-124222200D01*
X137863220Y-124222200D02*
X137910839Y-124174580D01*
X137053696Y-123269819D02*
X136720363Y-124269819D01*
X136720363Y-124269819D02*
X136387030Y-123269819D01*
X141669819Y-29412969D02*
X141669819Y-28936779D01*
X141669819Y-28936779D02*
X142146009Y-28889160D01*
X142146009Y-28889160D02*
X142098390Y-28936779D01*
X142098390Y-28936779D02*
X142050771Y-29032017D01*
X142050771Y-29032017D02*
X142050771Y-29270112D01*
X142050771Y-29270112D02*
X142098390Y-29365350D01*
X142098390Y-29365350D02*
X142146009Y-29412969D01*
X142146009Y-29412969D02*
X142241247Y-29460588D01*
X142241247Y-29460588D02*
X142479342Y-29460588D01*
X142479342Y-29460588D02*
X142574580Y-29412969D01*
X142574580Y-29412969D02*
X142622200Y-29365350D01*
X142622200Y-29365350D02*
X142669819Y-29270112D01*
X142669819Y-29270112D02*
X142669819Y-29032017D01*
X142669819Y-29032017D02*
X142622200Y-28936779D01*
X142622200Y-28936779D02*
X142574580Y-28889160D01*
X141669819Y-29746303D02*
X142669819Y-30079636D01*
X142669819Y-30079636D02*
X141669819Y-30412969D01*
X141869819Y-112812969D02*
X141869819Y-112336779D01*
X141869819Y-112336779D02*
X142346009Y-112289160D01*
X142346009Y-112289160D02*
X142298390Y-112336779D01*
X142298390Y-112336779D02*
X142250771Y-112432017D01*
X142250771Y-112432017D02*
X142250771Y-112670112D01*
X142250771Y-112670112D02*
X142298390Y-112765350D01*
X142298390Y-112765350D02*
X142346009Y-112812969D01*
X142346009Y-112812969D02*
X142441247Y-112860588D01*
X142441247Y-112860588D02*
X142679342Y-112860588D01*
X142679342Y-112860588D02*
X142774580Y-112812969D01*
X142774580Y-112812969D02*
X142822200Y-112765350D01*
X142822200Y-112765350D02*
X142869819Y-112670112D01*
X142869819Y-112670112D02*
X142869819Y-112432017D01*
X142869819Y-112432017D02*
X142822200Y-112336779D01*
X142822200Y-112336779D02*
X142774580Y-112289160D01*
X141869819Y-113146303D02*
X142869819Y-113479636D01*
X142869819Y-113479636D02*
X141869819Y-113812969D01*
X84269819Y-116393922D02*
X85269819Y-116727255D01*
X85269819Y-116727255D02*
X84269819Y-117060588D01*
X85269819Y-117870112D02*
X85269819Y-117393922D01*
X85269819Y-117393922D02*
X84269819Y-117393922D01*
X113669819Y-45060588D02*
X113669819Y-44489160D01*
X113669819Y-44774874D02*
X112669819Y-44774874D01*
X112669819Y-44774874D02*
X112812676Y-44679636D01*
X112812676Y-44679636D02*
X112907914Y-44584398D01*
X112907914Y-44584398D02*
X112955533Y-44489160D01*
X112669819Y-45393922D02*
X112669819Y-46012969D01*
X112669819Y-46012969D02*
X113050771Y-45679636D01*
X113050771Y-45679636D02*
X113050771Y-45822493D01*
X113050771Y-45822493D02*
X113098390Y-45917731D01*
X113098390Y-45917731D02*
X113146009Y-45965350D01*
X113146009Y-45965350D02*
X113241247Y-46012969D01*
X113241247Y-46012969D02*
X113479342Y-46012969D01*
X113479342Y-46012969D02*
X113574580Y-45965350D01*
X113574580Y-45965350D02*
X113622200Y-45917731D01*
X113622200Y-45917731D02*
X113669819Y-45822493D01*
X113669819Y-45822493D02*
X113669819Y-45536779D01*
X113669819Y-45536779D02*
X113622200Y-45441541D01*
X113622200Y-45441541D02*
X113574580Y-45393922D01*
X112669819Y-46298684D02*
X113669819Y-46632017D01*
X113669819Y-46632017D02*
X112669819Y-46965350D01*
X121469819Y-114593922D02*
X122469819Y-114927255D01*
X122469819Y-114927255D02*
X121469819Y-115260588D01*
X122469819Y-116070112D02*
X122469819Y-115593922D01*
X122469819Y-115593922D02*
X121469819Y-115593922D01*
X134469819Y-112460588D02*
X134469819Y-111889160D01*
X134469819Y-112174874D02*
X133469819Y-112174874D01*
X133469819Y-112174874D02*
X133612676Y-112079636D01*
X133612676Y-112079636D02*
X133707914Y-111984398D01*
X133707914Y-111984398D02*
X133755533Y-111889160D01*
X133469819Y-112793922D02*
X133469819Y-113412969D01*
X133469819Y-113412969D02*
X133850771Y-113079636D01*
X133850771Y-113079636D02*
X133850771Y-113222493D01*
X133850771Y-113222493D02*
X133898390Y-113317731D01*
X133898390Y-113317731D02*
X133946009Y-113365350D01*
X133946009Y-113365350D02*
X134041247Y-113412969D01*
X134041247Y-113412969D02*
X134279342Y-113412969D01*
X134279342Y-113412969D02*
X134374580Y-113365350D01*
X134374580Y-113365350D02*
X134422200Y-113317731D01*
X134422200Y-113317731D02*
X134469819Y-113222493D01*
X134469819Y-113222493D02*
X134469819Y-112936779D01*
X134469819Y-112936779D02*
X134422200Y-112841541D01*
X134422200Y-112841541D02*
X134374580Y-112793922D01*
X133469819Y-113698684D02*
X134469819Y-114032017D01*
X134469819Y-114032017D02*
X133469819Y-114365350D01*
X86339411Y-46669819D02*
X86910839Y-46669819D01*
X86625125Y-46669819D02*
X86625125Y-45669819D01*
X86625125Y-45669819D02*
X86720363Y-45812676D01*
X86720363Y-45812676D02*
X86815601Y-45907914D01*
X86815601Y-45907914D02*
X86910839Y-45955533D01*
X86006077Y-45669819D02*
X85387030Y-45669819D01*
X85387030Y-45669819D02*
X85720363Y-46050771D01*
X85720363Y-46050771D02*
X85577506Y-46050771D01*
X85577506Y-46050771D02*
X85482268Y-46098390D01*
X85482268Y-46098390D02*
X85434649Y-46146009D01*
X85434649Y-46146009D02*
X85387030Y-46241247D01*
X85387030Y-46241247D02*
X85387030Y-46479342D01*
X85387030Y-46479342D02*
X85434649Y-46574580D01*
X85434649Y-46574580D02*
X85482268Y-46622200D01*
X85482268Y-46622200D02*
X85577506Y-46669819D01*
X85577506Y-46669819D02*
X85863220Y-46669819D01*
X85863220Y-46669819D02*
X85958458Y-46622200D01*
X85958458Y-46622200D02*
X86006077Y-46574580D01*
X85101315Y-45669819D02*
X84767982Y-46669819D01*
X84767982Y-46669819D02*
X84434649Y-45669819D01*
X121469819Y-44393922D02*
X122469819Y-44727255D01*
X122469819Y-44727255D02*
X121469819Y-45060588D01*
X122469819Y-45870112D02*
X122469819Y-45393922D01*
X122469819Y-45393922D02*
X121469819Y-45393922D01*
X79730180Y-62387030D02*
X79730180Y-62863220D01*
X79730180Y-62863220D02*
X79253990Y-62910839D01*
X79253990Y-62910839D02*
X79301609Y-62863220D01*
X79301609Y-62863220D02*
X79349228Y-62767982D01*
X79349228Y-62767982D02*
X79349228Y-62529887D01*
X79349228Y-62529887D02*
X79301609Y-62434649D01*
X79301609Y-62434649D02*
X79253990Y-62387030D01*
X79253990Y-62387030D02*
X79158752Y-62339411D01*
X79158752Y-62339411D02*
X78920657Y-62339411D01*
X78920657Y-62339411D02*
X78825419Y-62387030D01*
X78825419Y-62387030D02*
X78777800Y-62434649D01*
X78777800Y-62434649D02*
X78730180Y-62529887D01*
X78730180Y-62529887D02*
X78730180Y-62767982D01*
X78730180Y-62767982D02*
X78777800Y-62863220D01*
X78777800Y-62863220D02*
X78825419Y-62910839D01*
X79730180Y-62053696D02*
X78730180Y-61720363D01*
X78730180Y-61720363D02*
X79730180Y-61387030D01*
X126404762Y-25304819D02*
X125928572Y-25304819D01*
X125928572Y-25304819D02*
X125880953Y-25781009D01*
X125880953Y-25781009D02*
X125928572Y-25733390D01*
X125928572Y-25733390D02*
X126023810Y-25685771D01*
X126023810Y-25685771D02*
X126261905Y-25685771D01*
X126261905Y-25685771D02*
X126357143Y-25733390D01*
X126357143Y-25733390D02*
X126404762Y-25781009D01*
X126404762Y-25781009D02*
X126452381Y-25876247D01*
X126452381Y-25876247D02*
X126452381Y-26114342D01*
X126452381Y-26114342D02*
X126404762Y-26209580D01*
X126404762Y-26209580D02*
X126357143Y-26257200D01*
X126357143Y-26257200D02*
X126261905Y-26304819D01*
X126261905Y-26304819D02*
X126023810Y-26304819D01*
X126023810Y-26304819D02*
X125928572Y-26257200D01*
X125928572Y-26257200D02*
X125880953Y-26209580D01*
X126928572Y-26304819D02*
X127119048Y-26304819D01*
X127119048Y-26304819D02*
X127214286Y-26257200D01*
X127214286Y-26257200D02*
X127261905Y-26209580D01*
X127261905Y-26209580D02*
X127357143Y-26066723D01*
X127357143Y-26066723D02*
X127404762Y-25876247D01*
X127404762Y-25876247D02*
X127404762Y-25495295D01*
X127404762Y-25495295D02*
X127357143Y-25400057D01*
X127357143Y-25400057D02*
X127309524Y-25352438D01*
X127309524Y-25352438D02*
X127214286Y-25304819D01*
X127214286Y-25304819D02*
X127023810Y-25304819D01*
X127023810Y-25304819D02*
X126928572Y-25352438D01*
X126928572Y-25352438D02*
X126880953Y-25400057D01*
X126880953Y-25400057D02*
X126833334Y-25495295D01*
X126833334Y-25495295D02*
X126833334Y-25733390D01*
X126833334Y-25733390D02*
X126880953Y-25828628D01*
X126880953Y-25828628D02*
X126928572Y-25876247D01*
X126928572Y-25876247D02*
X127023810Y-25923866D01*
X127023810Y-25923866D02*
X127214286Y-25923866D01*
X127214286Y-25923866D02*
X127309524Y-25876247D01*
X127309524Y-25876247D02*
X127357143Y-25828628D01*
X127357143Y-25828628D02*
X127404762Y-25733390D01*
X127880953Y-26257200D02*
X127880953Y-26304819D01*
X127880953Y-26304819D02*
X127833334Y-26400057D01*
X127833334Y-26400057D02*
X127785715Y-26447676D01*
X128500000Y-25304819D02*
X128595238Y-25304819D01*
X128595238Y-25304819D02*
X128690476Y-25352438D01*
X128690476Y-25352438D02*
X128738095Y-25400057D01*
X128738095Y-25400057D02*
X128785714Y-25495295D01*
X128785714Y-25495295D02*
X128833333Y-25685771D01*
X128833333Y-25685771D02*
X128833333Y-25923866D01*
X128833333Y-25923866D02*
X128785714Y-26114342D01*
X128785714Y-26114342D02*
X128738095Y-26209580D01*
X128738095Y-26209580D02*
X128690476Y-26257200D01*
X128690476Y-26257200D02*
X128595238Y-26304819D01*
X128595238Y-26304819D02*
X128500000Y-26304819D01*
X128500000Y-26304819D02*
X128404762Y-26257200D01*
X128404762Y-26257200D02*
X128357143Y-26209580D01*
X128357143Y-26209580D02*
X128309524Y-26114342D01*
X128309524Y-26114342D02*
X128261905Y-25923866D01*
X128261905Y-25923866D02*
X128261905Y-25685771D01*
X128261905Y-25685771D02*
X128309524Y-25495295D01*
X128309524Y-25495295D02*
X128357143Y-25400057D01*
X128357143Y-25400057D02*
X128404762Y-25352438D01*
X128404762Y-25352438D02*
X128500000Y-25304819D01*
X129452381Y-25304819D02*
X129547619Y-25304819D01*
X129547619Y-25304819D02*
X129642857Y-25352438D01*
X129642857Y-25352438D02*
X129690476Y-25400057D01*
X129690476Y-25400057D02*
X129738095Y-25495295D01*
X129738095Y-25495295D02*
X129785714Y-25685771D01*
X129785714Y-25685771D02*
X129785714Y-25923866D01*
X129785714Y-25923866D02*
X129738095Y-26114342D01*
X129738095Y-26114342D02*
X129690476Y-26209580D01*
X129690476Y-26209580D02*
X129642857Y-26257200D01*
X129642857Y-26257200D02*
X129547619Y-26304819D01*
X129547619Y-26304819D02*
X129452381Y-26304819D01*
X129452381Y-26304819D02*
X129357143Y-26257200D01*
X129357143Y-26257200D02*
X129309524Y-26209580D01*
X129309524Y-26209580D02*
X129261905Y-26114342D01*
X129261905Y-26114342D02*
X129214286Y-25923866D01*
X129214286Y-25923866D02*
X129214286Y-25685771D01*
X129214286Y-25685771D02*
X129261905Y-25495295D01*
X129261905Y-25495295D02*
X129309524Y-25400057D01*
X129309524Y-25400057D02*
X129357143Y-25352438D01*
X129357143Y-25352438D02*
X129452381Y-25304819D01*
X130404762Y-25304819D02*
X130500000Y-25304819D01*
X130500000Y-25304819D02*
X130595238Y-25352438D01*
X130595238Y-25352438D02*
X130642857Y-25400057D01*
X130642857Y-25400057D02*
X130690476Y-25495295D01*
X130690476Y-25495295D02*
X130738095Y-25685771D01*
X130738095Y-25685771D02*
X130738095Y-25923866D01*
X130738095Y-25923866D02*
X130690476Y-26114342D01*
X130690476Y-26114342D02*
X130642857Y-26209580D01*
X130642857Y-26209580D02*
X130595238Y-26257200D01*
X130595238Y-26257200D02*
X130500000Y-26304819D01*
X130500000Y-26304819D02*
X130404762Y-26304819D01*
X130404762Y-26304819D02*
X130309524Y-26257200D01*
X130309524Y-26257200D02*
X130261905Y-26209580D01*
X130261905Y-26209580D02*
X130214286Y-26114342D01*
X130214286Y-26114342D02*
X130166667Y-25923866D01*
X130166667Y-25923866D02*
X130166667Y-25685771D01*
X130166667Y-25685771D02*
X130214286Y-25495295D01*
X130214286Y-25495295D02*
X130261905Y-25400057D01*
X130261905Y-25400057D02*
X130309524Y-25352438D01*
X130309524Y-25352438D02*
X130404762Y-25304819D01*
X131357143Y-25304819D02*
X131452381Y-25304819D01*
X131452381Y-25304819D02*
X131547619Y-25352438D01*
X131547619Y-25352438D02*
X131595238Y-25400057D01*
X131595238Y-25400057D02*
X131642857Y-25495295D01*
X131642857Y-25495295D02*
X131690476Y-25685771D01*
X131690476Y-25685771D02*
X131690476Y-25923866D01*
X131690476Y-25923866D02*
X131642857Y-26114342D01*
X131642857Y-26114342D02*
X131595238Y-26209580D01*
X131595238Y-26209580D02*
X131547619Y-26257200D01*
X131547619Y-26257200D02*
X131452381Y-26304819D01*
X131452381Y-26304819D02*
X131357143Y-26304819D01*
X131357143Y-26304819D02*
X131261905Y-26257200D01*
X131261905Y-26257200D02*
X131214286Y-26209580D01*
X131214286Y-26209580D02*
X131166667Y-26114342D01*
X131166667Y-26114342D02*
X131119048Y-25923866D01*
X131119048Y-25923866D02*
X131119048Y-25685771D01*
X131119048Y-25685771D02*
X131166667Y-25495295D01*
X131166667Y-25495295D02*
X131214286Y-25400057D01*
X131214286Y-25400057D02*
X131261905Y-25352438D01*
X131261905Y-25352438D02*
X131357143Y-25304819D01*
X132880953Y-26304819D02*
X132880953Y-25638152D01*
X132880953Y-25733390D02*
X132928572Y-25685771D01*
X132928572Y-25685771D02*
X133023810Y-25638152D01*
X133023810Y-25638152D02*
X133166667Y-25638152D01*
X133166667Y-25638152D02*
X133261905Y-25685771D01*
X133261905Y-25685771D02*
X133309524Y-25781009D01*
X133309524Y-25781009D02*
X133309524Y-26304819D01*
X133309524Y-25781009D02*
X133357143Y-25685771D01*
X133357143Y-25685771D02*
X133452381Y-25638152D01*
X133452381Y-25638152D02*
X133595238Y-25638152D01*
X133595238Y-25638152D02*
X133690477Y-25685771D01*
X133690477Y-25685771D02*
X133738096Y-25781009D01*
X133738096Y-25781009D02*
X133738096Y-26304819D01*
X134214286Y-26304819D02*
X134214286Y-25638152D01*
X134214286Y-25733390D02*
X134261905Y-25685771D01*
X134261905Y-25685771D02*
X134357143Y-25638152D01*
X134357143Y-25638152D02*
X134500000Y-25638152D01*
X134500000Y-25638152D02*
X134595238Y-25685771D01*
X134595238Y-25685771D02*
X134642857Y-25781009D01*
X134642857Y-25781009D02*
X134642857Y-26304819D01*
X134642857Y-25781009D02*
X134690476Y-25685771D01*
X134690476Y-25685771D02*
X134785714Y-25638152D01*
X134785714Y-25638152D02*
X134928571Y-25638152D01*
X134928571Y-25638152D02*
X135023810Y-25685771D01*
X135023810Y-25685771D02*
X135071429Y-25781009D01*
X135071429Y-25781009D02*
X135071429Y-26304819D01*
X160000000Y-29500000D02*
X160000000Y-26413580D01*
X101000000Y-29500000D02*
X101000000Y-26413580D01*
X160000000Y-27000000D02*
X101000000Y-27000000D01*
X160000000Y-27000000D02*
X101000000Y-27000000D01*
X160000000Y-27000000D02*
X158873496Y-27586421D01*
X160000000Y-27000000D02*
X158873496Y-26413579D01*
X101000000Y-27000000D02*
X102126504Y-26413579D01*
X101000000Y-27000000D02*
X102126504Y-27586421D01*
X66304819Y-79523808D02*
X66304819Y-79333332D01*
X66304819Y-79333332D02*
X66257200Y-79238094D01*
X66257200Y-79238094D02*
X66209580Y-79190475D01*
X66209580Y-79190475D02*
X66066723Y-79095237D01*
X66066723Y-79095237D02*
X65876247Y-79047618D01*
X65876247Y-79047618D02*
X65495295Y-79047618D01*
X65495295Y-79047618D02*
X65400057Y-79095237D01*
X65400057Y-79095237D02*
X65352438Y-79142856D01*
X65352438Y-79142856D02*
X65304819Y-79238094D01*
X65304819Y-79238094D02*
X65304819Y-79428570D01*
X65304819Y-79428570D02*
X65352438Y-79523808D01*
X65352438Y-79523808D02*
X65400057Y-79571427D01*
X65400057Y-79571427D02*
X65495295Y-79619046D01*
X65495295Y-79619046D02*
X65733390Y-79619046D01*
X65733390Y-79619046D02*
X65828628Y-79571427D01*
X65828628Y-79571427D02*
X65876247Y-79523808D01*
X65876247Y-79523808D02*
X65923866Y-79428570D01*
X65923866Y-79428570D02*
X65923866Y-79238094D01*
X65923866Y-79238094D02*
X65876247Y-79142856D01*
X65876247Y-79142856D02*
X65828628Y-79095237D01*
X65828628Y-79095237D02*
X65733390Y-79047618D01*
X65304819Y-78428570D02*
X65304819Y-78333332D01*
X65304819Y-78333332D02*
X65352438Y-78238094D01*
X65352438Y-78238094D02*
X65400057Y-78190475D01*
X65400057Y-78190475D02*
X65495295Y-78142856D01*
X65495295Y-78142856D02*
X65685771Y-78095237D01*
X65685771Y-78095237D02*
X65923866Y-78095237D01*
X65923866Y-78095237D02*
X66114342Y-78142856D01*
X66114342Y-78142856D02*
X66209580Y-78190475D01*
X66209580Y-78190475D02*
X66257200Y-78238094D01*
X66257200Y-78238094D02*
X66304819Y-78333332D01*
X66304819Y-78333332D02*
X66304819Y-78428570D01*
X66304819Y-78428570D02*
X66257200Y-78523808D01*
X66257200Y-78523808D02*
X66209580Y-78571427D01*
X66209580Y-78571427D02*
X66114342Y-78619046D01*
X66114342Y-78619046D02*
X65923866Y-78666665D01*
X65923866Y-78666665D02*
X65685771Y-78666665D01*
X65685771Y-78666665D02*
X65495295Y-78619046D01*
X65495295Y-78619046D02*
X65400057Y-78571427D01*
X65400057Y-78571427D02*
X65352438Y-78523808D01*
X65352438Y-78523808D02*
X65304819Y-78428570D01*
X66257200Y-77619046D02*
X66304819Y-77619046D01*
X66304819Y-77619046D02*
X66400057Y-77666665D01*
X66400057Y-77666665D02*
X66447676Y-77714284D01*
X65304819Y-76999999D02*
X65304819Y-76904761D01*
X65304819Y-76904761D02*
X65352438Y-76809523D01*
X65352438Y-76809523D02*
X65400057Y-76761904D01*
X65400057Y-76761904D02*
X65495295Y-76714285D01*
X65495295Y-76714285D02*
X65685771Y-76666666D01*
X65685771Y-76666666D02*
X65923866Y-76666666D01*
X65923866Y-76666666D02*
X66114342Y-76714285D01*
X66114342Y-76714285D02*
X66209580Y-76761904D01*
X66209580Y-76761904D02*
X66257200Y-76809523D01*
X66257200Y-76809523D02*
X66304819Y-76904761D01*
X66304819Y-76904761D02*
X66304819Y-76999999D01*
X66304819Y-76999999D02*
X66257200Y-77095237D01*
X66257200Y-77095237D02*
X66209580Y-77142856D01*
X66209580Y-77142856D02*
X66114342Y-77190475D01*
X66114342Y-77190475D02*
X65923866Y-77238094D01*
X65923866Y-77238094D02*
X65685771Y-77238094D01*
X65685771Y-77238094D02*
X65495295Y-77190475D01*
X65495295Y-77190475D02*
X65400057Y-77142856D01*
X65400057Y-77142856D02*
X65352438Y-77095237D01*
X65352438Y-77095237D02*
X65304819Y-76999999D01*
X65304819Y-76047618D02*
X65304819Y-75952380D01*
X65304819Y-75952380D02*
X65352438Y-75857142D01*
X65352438Y-75857142D02*
X65400057Y-75809523D01*
X65400057Y-75809523D02*
X65495295Y-75761904D01*
X65495295Y-75761904D02*
X65685771Y-75714285D01*
X65685771Y-75714285D02*
X65923866Y-75714285D01*
X65923866Y-75714285D02*
X66114342Y-75761904D01*
X66114342Y-75761904D02*
X66209580Y-75809523D01*
X66209580Y-75809523D02*
X66257200Y-75857142D01*
X66257200Y-75857142D02*
X66304819Y-75952380D01*
X66304819Y-75952380D02*
X66304819Y-76047618D01*
X66304819Y-76047618D02*
X66257200Y-76142856D01*
X66257200Y-76142856D02*
X66209580Y-76190475D01*
X66209580Y-76190475D02*
X66114342Y-76238094D01*
X66114342Y-76238094D02*
X65923866Y-76285713D01*
X65923866Y-76285713D02*
X65685771Y-76285713D01*
X65685771Y-76285713D02*
X65495295Y-76238094D01*
X65495295Y-76238094D02*
X65400057Y-76190475D01*
X65400057Y-76190475D02*
X65352438Y-76142856D01*
X65352438Y-76142856D02*
X65304819Y-76047618D01*
X65304819Y-75095237D02*
X65304819Y-74999999D01*
X65304819Y-74999999D02*
X65352438Y-74904761D01*
X65352438Y-74904761D02*
X65400057Y-74857142D01*
X65400057Y-74857142D02*
X65495295Y-74809523D01*
X65495295Y-74809523D02*
X65685771Y-74761904D01*
X65685771Y-74761904D02*
X65923866Y-74761904D01*
X65923866Y-74761904D02*
X66114342Y-74809523D01*
X66114342Y-74809523D02*
X66209580Y-74857142D01*
X66209580Y-74857142D02*
X66257200Y-74904761D01*
X66257200Y-74904761D02*
X66304819Y-74999999D01*
X66304819Y-74999999D02*
X66304819Y-75095237D01*
X66304819Y-75095237D02*
X66257200Y-75190475D01*
X66257200Y-75190475D02*
X66209580Y-75238094D01*
X66209580Y-75238094D02*
X66114342Y-75285713D01*
X66114342Y-75285713D02*
X65923866Y-75333332D01*
X65923866Y-75333332D02*
X65685771Y-75333332D01*
X65685771Y-75333332D02*
X65495295Y-75285713D01*
X65495295Y-75285713D02*
X65400057Y-75238094D01*
X65400057Y-75238094D02*
X65352438Y-75190475D01*
X65352438Y-75190475D02*
X65304819Y-75095237D01*
X65304819Y-74142856D02*
X65304819Y-74047618D01*
X65304819Y-74047618D02*
X65352438Y-73952380D01*
X65352438Y-73952380D02*
X65400057Y-73904761D01*
X65400057Y-73904761D02*
X65495295Y-73857142D01*
X65495295Y-73857142D02*
X65685771Y-73809523D01*
X65685771Y-73809523D02*
X65923866Y-73809523D01*
X65923866Y-73809523D02*
X66114342Y-73857142D01*
X66114342Y-73857142D02*
X66209580Y-73904761D01*
X66209580Y-73904761D02*
X66257200Y-73952380D01*
X66257200Y-73952380D02*
X66304819Y-74047618D01*
X66304819Y-74047618D02*
X66304819Y-74142856D01*
X66304819Y-74142856D02*
X66257200Y-74238094D01*
X66257200Y-74238094D02*
X66209580Y-74285713D01*
X66209580Y-74285713D02*
X66114342Y-74333332D01*
X66114342Y-74333332D02*
X65923866Y-74380951D01*
X65923866Y-74380951D02*
X65685771Y-74380951D01*
X65685771Y-74380951D02*
X65495295Y-74333332D01*
X65495295Y-74333332D02*
X65400057Y-74285713D01*
X65400057Y-74285713D02*
X65352438Y-74238094D01*
X65352438Y-74238094D02*
X65304819Y-74142856D01*
X66304819Y-72619046D02*
X65638152Y-72619046D01*
X65733390Y-72619046D02*
X65685771Y-72571427D01*
X65685771Y-72571427D02*
X65638152Y-72476189D01*
X65638152Y-72476189D02*
X65638152Y-72333332D01*
X65638152Y-72333332D02*
X65685771Y-72238094D01*
X65685771Y-72238094D02*
X65781009Y-72190475D01*
X65781009Y-72190475D02*
X66304819Y-72190475D01*
X65781009Y-72190475D02*
X65685771Y-72142856D01*
X65685771Y-72142856D02*
X65638152Y-72047618D01*
X65638152Y-72047618D02*
X65638152Y-71904761D01*
X65638152Y-71904761D02*
X65685771Y-71809522D01*
X65685771Y-71809522D02*
X65781009Y-71761903D01*
X65781009Y-71761903D02*
X66304819Y-71761903D01*
X66304819Y-71285713D02*
X65638152Y-71285713D01*
X65733390Y-71285713D02*
X65685771Y-71238094D01*
X65685771Y-71238094D02*
X65638152Y-71142856D01*
X65638152Y-71142856D02*
X65638152Y-70999999D01*
X65638152Y-70999999D02*
X65685771Y-70904761D01*
X65685771Y-70904761D02*
X65781009Y-70857142D01*
X65781009Y-70857142D02*
X66304819Y-70857142D01*
X65781009Y-70857142D02*
X65685771Y-70809523D01*
X65685771Y-70809523D02*
X65638152Y-70714285D01*
X65638152Y-70714285D02*
X65638152Y-70571428D01*
X65638152Y-70571428D02*
X65685771Y-70476189D01*
X65685771Y-70476189D02*
X65781009Y-70428570D01*
X65781009Y-70428570D02*
X66304819Y-70428570D01*
X69500000Y-30000000D02*
X66413580Y-30000000D01*
X69500000Y-120000000D02*
X66413580Y-120000000D01*
X67000000Y-30000000D02*
X67000000Y-120000000D01*
X67000000Y-30000000D02*
X67000000Y-120000000D01*
X67000000Y-30000000D02*
X67586421Y-31126504D01*
X67000000Y-30000000D02*
X66413579Y-31126504D01*
X67000000Y-120000000D02*
X66413579Y-118873496D01*
X67000000Y-120000000D02*
X67586421Y-118873496D01*
X80833334Y-25304819D02*
X81452381Y-25304819D01*
X81452381Y-25304819D02*
X81119048Y-25685771D01*
X81119048Y-25685771D02*
X81261905Y-25685771D01*
X81261905Y-25685771D02*
X81357143Y-25733390D01*
X81357143Y-25733390D02*
X81404762Y-25781009D01*
X81404762Y-25781009D02*
X81452381Y-25876247D01*
X81452381Y-25876247D02*
X81452381Y-26114342D01*
X81452381Y-26114342D02*
X81404762Y-26209580D01*
X81404762Y-26209580D02*
X81357143Y-26257200D01*
X81357143Y-26257200D02*
X81261905Y-26304819D01*
X81261905Y-26304819D02*
X80976191Y-26304819D01*
X80976191Y-26304819D02*
X80880953Y-26257200D01*
X80880953Y-26257200D02*
X80833334Y-26209580D01*
X82404762Y-26304819D02*
X81833334Y-26304819D01*
X82119048Y-26304819D02*
X82119048Y-25304819D01*
X82119048Y-25304819D02*
X82023810Y-25447676D01*
X82023810Y-25447676D02*
X81928572Y-25542914D01*
X81928572Y-25542914D02*
X81833334Y-25590533D01*
X82880953Y-26257200D02*
X82880953Y-26304819D01*
X82880953Y-26304819D02*
X82833334Y-26400057D01*
X82833334Y-26400057D02*
X82785715Y-26447676D01*
X83500000Y-25304819D02*
X83595238Y-25304819D01*
X83595238Y-25304819D02*
X83690476Y-25352438D01*
X83690476Y-25352438D02*
X83738095Y-25400057D01*
X83738095Y-25400057D02*
X83785714Y-25495295D01*
X83785714Y-25495295D02*
X83833333Y-25685771D01*
X83833333Y-25685771D02*
X83833333Y-25923866D01*
X83833333Y-25923866D02*
X83785714Y-26114342D01*
X83785714Y-26114342D02*
X83738095Y-26209580D01*
X83738095Y-26209580D02*
X83690476Y-26257200D01*
X83690476Y-26257200D02*
X83595238Y-26304819D01*
X83595238Y-26304819D02*
X83500000Y-26304819D01*
X83500000Y-26304819D02*
X83404762Y-26257200D01*
X83404762Y-26257200D02*
X83357143Y-26209580D01*
X83357143Y-26209580D02*
X83309524Y-26114342D01*
X83309524Y-26114342D02*
X83261905Y-25923866D01*
X83261905Y-25923866D02*
X83261905Y-25685771D01*
X83261905Y-25685771D02*
X83309524Y-25495295D01*
X83309524Y-25495295D02*
X83357143Y-25400057D01*
X83357143Y-25400057D02*
X83404762Y-25352438D01*
X83404762Y-25352438D02*
X83500000Y-25304819D01*
X84452381Y-25304819D02*
X84547619Y-25304819D01*
X84547619Y-25304819D02*
X84642857Y-25352438D01*
X84642857Y-25352438D02*
X84690476Y-25400057D01*
X84690476Y-25400057D02*
X84738095Y-25495295D01*
X84738095Y-25495295D02*
X84785714Y-25685771D01*
X84785714Y-25685771D02*
X84785714Y-25923866D01*
X84785714Y-25923866D02*
X84738095Y-26114342D01*
X84738095Y-26114342D02*
X84690476Y-26209580D01*
X84690476Y-26209580D02*
X84642857Y-26257200D01*
X84642857Y-26257200D02*
X84547619Y-26304819D01*
X84547619Y-26304819D02*
X84452381Y-26304819D01*
X84452381Y-26304819D02*
X84357143Y-26257200D01*
X84357143Y-26257200D02*
X84309524Y-26209580D01*
X84309524Y-26209580D02*
X84261905Y-26114342D01*
X84261905Y-26114342D02*
X84214286Y-25923866D01*
X84214286Y-25923866D02*
X84214286Y-25685771D01*
X84214286Y-25685771D02*
X84261905Y-25495295D01*
X84261905Y-25495295D02*
X84309524Y-25400057D01*
X84309524Y-25400057D02*
X84357143Y-25352438D01*
X84357143Y-25352438D02*
X84452381Y-25304819D01*
X85404762Y-25304819D02*
X85500000Y-25304819D01*
X85500000Y-25304819D02*
X85595238Y-25352438D01*
X85595238Y-25352438D02*
X85642857Y-25400057D01*
X85642857Y-25400057D02*
X85690476Y-25495295D01*
X85690476Y-25495295D02*
X85738095Y-25685771D01*
X85738095Y-25685771D02*
X85738095Y-25923866D01*
X85738095Y-25923866D02*
X85690476Y-26114342D01*
X85690476Y-26114342D02*
X85642857Y-26209580D01*
X85642857Y-26209580D02*
X85595238Y-26257200D01*
X85595238Y-26257200D02*
X85500000Y-26304819D01*
X85500000Y-26304819D02*
X85404762Y-26304819D01*
X85404762Y-26304819D02*
X85309524Y-26257200D01*
X85309524Y-26257200D02*
X85261905Y-26209580D01*
X85261905Y-26209580D02*
X85214286Y-26114342D01*
X85214286Y-26114342D02*
X85166667Y-25923866D01*
X85166667Y-25923866D02*
X85166667Y-25685771D01*
X85166667Y-25685771D02*
X85214286Y-25495295D01*
X85214286Y-25495295D02*
X85261905Y-25400057D01*
X85261905Y-25400057D02*
X85309524Y-25352438D01*
X85309524Y-25352438D02*
X85404762Y-25304819D01*
X86357143Y-25304819D02*
X86452381Y-25304819D01*
X86452381Y-25304819D02*
X86547619Y-25352438D01*
X86547619Y-25352438D02*
X86595238Y-25400057D01*
X86595238Y-25400057D02*
X86642857Y-25495295D01*
X86642857Y-25495295D02*
X86690476Y-25685771D01*
X86690476Y-25685771D02*
X86690476Y-25923866D01*
X86690476Y-25923866D02*
X86642857Y-26114342D01*
X86642857Y-26114342D02*
X86595238Y-26209580D01*
X86595238Y-26209580D02*
X86547619Y-26257200D01*
X86547619Y-26257200D02*
X86452381Y-26304819D01*
X86452381Y-26304819D02*
X86357143Y-26304819D01*
X86357143Y-26304819D02*
X86261905Y-26257200D01*
X86261905Y-26257200D02*
X86214286Y-26209580D01*
X86214286Y-26209580D02*
X86166667Y-26114342D01*
X86166667Y-26114342D02*
X86119048Y-25923866D01*
X86119048Y-25923866D02*
X86119048Y-25685771D01*
X86119048Y-25685771D02*
X86166667Y-25495295D01*
X86166667Y-25495295D02*
X86214286Y-25400057D01*
X86214286Y-25400057D02*
X86261905Y-25352438D01*
X86261905Y-25352438D02*
X86357143Y-25304819D01*
X87880953Y-26304819D02*
X87880953Y-25638152D01*
X87880953Y-25733390D02*
X87928572Y-25685771D01*
X87928572Y-25685771D02*
X88023810Y-25638152D01*
X88023810Y-25638152D02*
X88166667Y-25638152D01*
X88166667Y-25638152D02*
X88261905Y-25685771D01*
X88261905Y-25685771D02*
X88309524Y-25781009D01*
X88309524Y-25781009D02*
X88309524Y-26304819D01*
X88309524Y-25781009D02*
X88357143Y-25685771D01*
X88357143Y-25685771D02*
X88452381Y-25638152D01*
X88452381Y-25638152D02*
X88595238Y-25638152D01*
X88595238Y-25638152D02*
X88690477Y-25685771D01*
X88690477Y-25685771D02*
X88738096Y-25781009D01*
X88738096Y-25781009D02*
X88738096Y-26304819D01*
X89214286Y-26304819D02*
X89214286Y-25638152D01*
X89214286Y-25733390D02*
X89261905Y-25685771D01*
X89261905Y-25685771D02*
X89357143Y-25638152D01*
X89357143Y-25638152D02*
X89500000Y-25638152D01*
X89500000Y-25638152D02*
X89595238Y-25685771D01*
X89595238Y-25685771D02*
X89642857Y-25781009D01*
X89642857Y-25781009D02*
X89642857Y-26304819D01*
X89642857Y-25781009D02*
X89690476Y-25685771D01*
X89690476Y-25685771D02*
X89785714Y-25638152D01*
X89785714Y-25638152D02*
X89928571Y-25638152D01*
X89928571Y-25638152D02*
X90023810Y-25685771D01*
X90023810Y-25685771D02*
X90071429Y-25781009D01*
X90071429Y-25781009D02*
X90071429Y-26304819D01*
X70000000Y-29500000D02*
X70000000Y-26413580D01*
X101000000Y-29500000D02*
X101000000Y-26413580D01*
X70000000Y-27000000D02*
X101000000Y-27000000D01*
X70000000Y-27000000D02*
X101000000Y-27000000D01*
X70000000Y-27000000D02*
X71126504Y-26413579D01*
X70000000Y-27000000D02*
X71126504Y-27586421D01*
X101000000Y-27000000D02*
X99873496Y-27586421D01*
X101000000Y-27000000D02*
X99873496Y-26413579D01*
%LPC*%
D11*
X162147532Y-92750000D02*
G75*
G03*
X160352468Y-92750000I-897532J0D01*
G01*
X160352468Y-92750000D02*
G75*
G03*
X162147532Y-92750000I897532J0D01*
G01*
X162150267Y-72496821D02*
G75*
G03*
X160355203Y-72496821I-897532J0D01*
G01*
X160355203Y-72496821D02*
G75*
G03*
X162150267Y-72496821I897532J0D01*
G01*
X162147532Y-82500000D02*
G75*
G03*
X160352468Y-82500000I-897532J0D01*
G01*
X160352468Y-82500000D02*
G75*
G03*
X162147532Y-82500000I897532J0D01*
G01*
X162147532Y-77500000D02*
G75*
G03*
X160352468Y-77500000I-897532J0D01*
G01*
X160352468Y-77500000D02*
G75*
G03*
X162147532Y-77500000I897532J0D01*
G01*
X162147532Y-62250000D02*
G75*
G03*
X160352468Y-62250000I-897532J0D01*
G01*
X160352468Y-62250000D02*
G75*
G03*
X162147532Y-62250000I897532J0D01*
G01*
X162097532Y-67400000D02*
G75*
G03*
X160302468Y-67400000I-897532J0D01*
G01*
X160302468Y-67400000D02*
G75*
G03*
X162097532Y-67400000I897532J0D01*
G01*
X162147532Y-57250000D02*
G75*
G03*
X160352468Y-57250000I-897532J0D01*
G01*
X160352468Y-57250000D02*
G75*
G03*
X162147532Y-57250000I897532J0D01*
G01*
X162147532Y-87750000D02*
G75*
G03*
X160352468Y-87750000I-897532J0D01*
G01*
X160352468Y-87750000D02*
G75*
G03*
X162147532Y-87750000I897532J0D01*
G01*
D12*
%TO.C,H3*%
X67600000Y-120000000D03*
X68302944Y-118302944D03*
X68302944Y-121697056D03*
X70000000Y-117600000D03*
D13*
X70000000Y-120000000D03*
D12*
X70000000Y-122400000D03*
X71697056Y-118302944D03*
X71697056Y-121697056D03*
X72400000Y-120000000D03*
%TD*%
D14*
%TO.C,J2*%
X69975000Y-87250000D03*
D15*
X69975000Y-84750000D03*
X69975000Y-82250000D03*
X69975000Y-79750000D03*
X69975000Y-77250000D03*
X69975000Y-74750000D03*
%TD*%
D16*
%TO.C,U38*%
X158725000Y-57220000D03*
D17*
X161265000Y-57220000D03*
X158725000Y-59760000D03*
X161265000Y-59760000D03*
X158725000Y-62300000D03*
X161265000Y-62300000D03*
X158725000Y-64840000D03*
X161265000Y-64840000D03*
X158725000Y-67380000D03*
X161265000Y-67380000D03*
X158725000Y-69920000D03*
X161265000Y-69920000D03*
X158725000Y-72460000D03*
X161265000Y-72460000D03*
X158725000Y-75000000D03*
X161265000Y-75000000D03*
X158725000Y-77540000D03*
X161265000Y-77540000D03*
X158725000Y-80080000D03*
X161265000Y-80080000D03*
X158725000Y-82620000D03*
X161265000Y-82620000D03*
X158725000Y-85160000D03*
X161265000Y-85160000D03*
X158725000Y-87700000D03*
X161265000Y-87700000D03*
X158725000Y-90240000D03*
X161265000Y-90240000D03*
X158725000Y-92780000D03*
X161265000Y-92780000D03*
%TD*%
D16*
%TO.C,J10*%
X91850000Y-53065000D03*
D17*
X91850000Y-55605000D03*
%TD*%
D12*
%TO.C,H4*%
X157600000Y-120000000D03*
X158302944Y-118302944D03*
X158302944Y-121697056D03*
X160000000Y-117600000D03*
D13*
X160000000Y-120000000D03*
D12*
X160000000Y-122400000D03*
X161697056Y-118302944D03*
X161697056Y-121697056D03*
X162400000Y-120000000D03*
%TD*%
%TO.C,H1*%
X157600000Y-30000000D03*
X158302944Y-28302944D03*
X158302944Y-31697056D03*
X160000000Y-27600000D03*
D13*
X160000000Y-30000000D03*
D12*
X160000000Y-32400000D03*
X161697056Y-28302944D03*
X161697056Y-31697056D03*
X162400000Y-30000000D03*
%TD*%
D16*
%TO.C,J7*%
X91680000Y-33535000D03*
D17*
X91680000Y-36075000D03*
%TD*%
D18*
%TO.C,J9*%
X70000000Y-105000000D03*
D19*
X70000000Y-102500000D03*
%TD*%
D18*
%TO.C,J4*%
X70000000Y-58500000D03*
D19*
X70000000Y-56000000D03*
%TD*%
D12*
%TO.C,H5*%
X98600000Y-30000000D03*
X99302944Y-28302944D03*
X99302944Y-31697056D03*
X101000000Y-27600000D03*
D13*
X101000000Y-30000000D03*
D12*
X101000000Y-32400000D03*
X102697056Y-28302944D03*
X102697056Y-31697056D03*
X103400000Y-30000000D03*
%TD*%
D18*
%TO.C,J1*%
X70000000Y-40000000D03*
D19*
X70000000Y-37500000D03*
%TD*%
D20*
%TO.C,J3*%
X87500000Y-120000000D03*
D21*
X85000000Y-120000000D03*
%TD*%
D18*
%TO.C,J8*%
X70000000Y-96000000D03*
D19*
X70000000Y-93500000D03*
%TD*%
D18*
%TO.C,J5*%
X70000000Y-49000000D03*
D19*
X70000000Y-46500000D03*
%TD*%
D12*
%TO.C,H6*%
X98600000Y-120000000D03*
X99302944Y-118302944D03*
X99302944Y-121697056D03*
X101000000Y-117600000D03*
D13*
X101000000Y-120000000D03*
D12*
X101000000Y-122400000D03*
X102697056Y-118302944D03*
X102697056Y-121697056D03*
X103400000Y-120000000D03*
%TD*%
D18*
%TO.C,J6*%
X69975000Y-67750000D03*
D19*
X69975000Y-65250000D03*
%TD*%
D12*
%TO.C,H2*%
X67600000Y-30000000D03*
X68302944Y-28302944D03*
X68302944Y-31697056D03*
X70000000Y-27600000D03*
D13*
X70000000Y-30000000D03*
D12*
X70000000Y-32400000D03*
X71697056Y-28302944D03*
X71697056Y-31697056D03*
X72400000Y-30000000D03*
%TD*%
%LPD*%
M02*
