%TF.GenerationSoftware,KiCad,Pcbnew,7.0.10*%
%TF.CreationDate,2024-02-04T21:05:04+01:00*%
%TF.ProjectId,demo_LMP7721,64656d6f-5f4c-44d5-9037-3732312e6b69,rev?*%
%TF.SameCoordinates,Original*%
%TF.FileFunction,Paste,Top*%
%TF.FilePolarity,Positive*%
%FSLAX46Y46*%
G04 Gerber Fmt 4.6, Leading zero omitted, Abs format (unit mm)*
G04 Created by KiCad (PCBNEW 7.0.10) date 2024-02-04 21:05:04*
%MOMM*%
%LPD*%
G01*
G04 APERTURE LIST*
G04 Aperture macros list*
%AMRoundRect*
0 Rectangle with rounded corners*
0 $1 Rounding radius*
0 $2 $3 $4 $5 $6 $7 $8 $9 X,Y pos of 4 corners*
0 Add a 4 corners polygon primitive as box body*
4,1,4,$2,$3,$4,$5,$6,$7,$8,$9,$2,$3,0*
0 Add four circle primitives for the rounded corners*
1,1,$1+$1,$2,$3*
1,1,$1+$1,$4,$5*
1,1,$1+$1,$6,$7*
1,1,$1+$1,$8,$9*
0 Add four rect primitives between the rounded corners*
20,1,$1+$1,$2,$3,$4,$5,0*
20,1,$1+$1,$4,$5,$6,$7,0*
20,1,$1+$1,$6,$7,$8,$9,0*
20,1,$1+$1,$8,$9,$2,$3,0*%
G04 Aperture macros list end*
%ADD10RoundRect,0.225000X-0.225000X-0.250000X0.225000X-0.250000X0.225000X0.250000X-0.225000X0.250000X0*%
%ADD11RoundRect,0.200000X0.200000X0.275000X-0.200000X0.275000X-0.200000X-0.275000X0.200000X-0.275000X0*%
%ADD12RoundRect,0.225000X-0.250000X0.225000X-0.250000X-0.225000X0.250000X-0.225000X0.250000X0.225000X0*%
%ADD13RoundRect,0.150000X-0.150000X0.825000X-0.150000X-0.825000X0.150000X-0.825000X0.150000X0.825000X0*%
%ADD14RoundRect,0.250000X0.625000X-0.312500X0.625000X0.312500X-0.625000X0.312500X-0.625000X-0.312500X0*%
%ADD15RoundRect,0.225000X0.250000X-0.225000X0.250000X0.225000X-0.250000X0.225000X-0.250000X-0.225000X0*%
%ADD16RoundRect,0.225000X0.225000X0.250000X-0.225000X0.250000X-0.225000X-0.250000X0.225000X-0.250000X0*%
%ADD17RoundRect,0.150000X0.150000X-0.825000X0.150000X0.825000X-0.150000X0.825000X-0.150000X-0.825000X0*%
%ADD18RoundRect,0.200000X-0.200000X-0.275000X0.200000X-0.275000X0.200000X0.275000X-0.200000X0.275000X0*%
%ADD19RoundRect,0.150000X0.825000X0.150000X-0.825000X0.150000X-0.825000X-0.150000X0.825000X-0.150000X0*%
%ADD20RoundRect,0.200000X-0.275000X0.200000X-0.275000X-0.200000X0.275000X-0.200000X0.275000X0.200000X0*%
%ADD21RoundRect,0.250000X-0.650000X0.325000X-0.650000X-0.325000X0.650000X-0.325000X0.650000X0.325000X0*%
%ADD22RoundRect,0.100000X0.100000X-0.712500X0.100000X0.712500X-0.100000X0.712500X-0.100000X-0.712500X0*%
%ADD23RoundRect,0.218750X0.218750X0.256250X-0.218750X0.256250X-0.218750X-0.256250X0.218750X-0.256250X0*%
%ADD24RoundRect,0.150000X-0.512500X-0.150000X0.512500X-0.150000X0.512500X0.150000X-0.512500X0.150000X0*%
%ADD25RoundRect,0.250000X-0.250000X-0.475000X0.250000X-0.475000X0.250000X0.475000X-0.250000X0.475000X0*%
%ADD26RoundRect,0.100000X0.100000X-0.637500X0.100000X0.637500X-0.100000X0.637500X-0.100000X-0.637500X0*%
%ADD27RoundRect,0.218750X-0.256250X0.218750X-0.256250X-0.218750X0.256250X-0.218750X0.256250X0.218750X0*%
%ADD28RoundRect,0.250000X0.250000X0.475000X-0.250000X0.475000X-0.250000X-0.475000X0.250000X-0.475000X0*%
%ADD29RoundRect,0.200000X0.275000X-0.200000X0.275000X0.200000X-0.275000X0.200000X-0.275000X-0.200000X0*%
G04 APERTURE END LIST*
D10*
%TO.C,C82*%
X124475000Y-33062500D03*
X126025000Y-33062500D03*
%TD*%
D11*
%TO.C,R71*%
X91825000Y-50500000D03*
X90175000Y-50500000D03*
%TD*%
D12*
%TO.C,C7*%
X86150000Y-74114000D03*
X86150000Y-75664000D03*
%TD*%
D13*
%TO.C,U3*%
X135655000Y-41775000D03*
X134385000Y-41775000D03*
X133115000Y-41775000D03*
X131845000Y-41775000D03*
X131845000Y-46725000D03*
X133115000Y-46725000D03*
X134385000Y-46725000D03*
X135655000Y-46725000D03*
%TD*%
D14*
%TO.C,R9*%
X150500000Y-34212500D03*
X150500000Y-31287500D03*
%TD*%
D15*
%TO.C,C112*%
X103100000Y-112875000D03*
X103100000Y-111325000D03*
%TD*%
%TO.C,C15*%
X80700000Y-35505000D03*
X80700000Y-33955000D03*
%TD*%
D10*
%TO.C,C86*%
X133725000Y-123750000D03*
X135275000Y-123750000D03*
%TD*%
%TO.C,C137*%
X118025000Y-36550000D03*
X119575000Y-36550000D03*
%TD*%
%TO.C,C67*%
X124475000Y-108062500D03*
X126025000Y-108062500D03*
%TD*%
D16*
%TO.C,C42*%
X136825000Y-64750000D03*
X135275000Y-64750000D03*
%TD*%
D17*
%TO.C,U18*%
X138095000Y-59225000D03*
X139365000Y-59225000D03*
X140635000Y-59225000D03*
X141905000Y-59225000D03*
X141905000Y-54275000D03*
X140635000Y-54275000D03*
X139365000Y-54275000D03*
X138095000Y-54275000D03*
%TD*%
D18*
%TO.C,R13*%
X103075000Y-54075000D03*
X104725000Y-54075000D03*
%TD*%
D19*
%TO.C,U40*%
X121925000Y-104555000D03*
X121925000Y-103285000D03*
X121925000Y-102015000D03*
X121925000Y-100745000D03*
X116975000Y-100745000D03*
X116975000Y-102015000D03*
X116975000Y-103285000D03*
X116975000Y-104555000D03*
%TD*%
%TO.C,U8*%
X121925000Y-54555000D03*
X121925000Y-53285000D03*
X121925000Y-52015000D03*
X121925000Y-50745000D03*
X116975000Y-50745000D03*
X116975000Y-52015000D03*
X116975000Y-53285000D03*
X116975000Y-54555000D03*
%TD*%
D15*
%TO.C,C17*%
X103300000Y-51250000D03*
X103300000Y-49700000D03*
%TD*%
%TO.C,C117*%
X100100000Y-89675000D03*
X100100000Y-88125000D03*
%TD*%
D20*
%TO.C,R63*%
X114950000Y-38025000D03*
X114950000Y-39675000D03*
%TD*%
D16*
%TO.C,C74*%
X110775000Y-103650000D03*
X109225000Y-103650000D03*
%TD*%
D14*
%TO.C,R41*%
X150500000Y-121712500D03*
X150500000Y-118787500D03*
%TD*%
D12*
%TO.C,C46*%
X114950000Y-60000000D03*
X114950000Y-61550000D03*
%TD*%
D21*
%TO.C,C129*%
X109400000Y-109800000D03*
X109400000Y-112750000D03*
%TD*%
D16*
%TO.C,C98*%
X136825000Y-89750000D03*
X135275000Y-89750000D03*
%TD*%
D10*
%TO.C,C77*%
X124475000Y-95562500D03*
X126025000Y-95562500D03*
%TD*%
D15*
%TO.C,C16*%
X152750000Y-33775000D03*
X152750000Y-32225000D03*
%TD*%
%TO.C,C20*%
X100100000Y-51250000D03*
X100100000Y-49700000D03*
%TD*%
D10*
%TO.C,C65*%
X118375000Y-118600000D03*
X119925000Y-118600000D03*
%TD*%
D22*
%TO.C,U39*%
X111387500Y-101787501D03*
X112037500Y-101787501D03*
X112687500Y-101787501D03*
X113337500Y-101787501D03*
X113337500Y-97562501D03*
X112687500Y-97562501D03*
X112037500Y-97562501D03*
X111387500Y-97562501D03*
%TD*%
D14*
%TO.C,R28*%
X150500000Y-84212500D03*
X150500000Y-81287500D03*
%TD*%
D20*
%TO.C,R69*%
X114950000Y-113025000D03*
X114950000Y-114675000D03*
%TD*%
D18*
%TO.C,R50*%
X100075000Y-86630000D03*
X101725000Y-86630000D03*
%TD*%
D10*
%TO.C,C92*%
X112225000Y-116150000D03*
X113775000Y-116150000D03*
%TD*%
D12*
%TO.C,C66*%
X114950000Y-110000000D03*
X114950000Y-111550000D03*
%TD*%
D10*
%TO.C,C59*%
X124025000Y-79900000D03*
X125575000Y-79900000D03*
%TD*%
%TO.C,C75*%
X118375000Y-106100000D03*
X119925000Y-106100000D03*
%TD*%
D15*
%TO.C,C97*%
X103100000Y-89875000D03*
X103100000Y-88325000D03*
%TD*%
%TO.C,C4*%
X80350000Y-76089000D03*
X80350000Y-74539000D03*
%TD*%
D16*
%TO.C,C110*%
X146975000Y-111200000D03*
X145425000Y-111200000D03*
%TD*%
%TO.C,C29*%
X136825000Y-52250000D03*
X135275000Y-52250000D03*
%TD*%
D12*
%TO.C,C134*%
X116500000Y-85000000D03*
X116500000Y-86550000D03*
%TD*%
D17*
%TO.C,U24*%
X138095000Y-84225000D03*
X139365000Y-84225000D03*
X140635000Y-84225000D03*
X141905000Y-84225000D03*
X141905000Y-79275000D03*
X140635000Y-79275000D03*
X139365000Y-79275000D03*
X138095000Y-79275000D03*
%TD*%
D23*
%TO.C,D2*%
X88587500Y-112400000D03*
X87012500Y-112400000D03*
%TD*%
D10*
%TO.C,C107*%
X133725000Y-111250000D03*
X135275000Y-111250000D03*
%TD*%
%TO.C,C91*%
X112225000Y-78650000D03*
X113775000Y-78650000D03*
%TD*%
D15*
%TO.C,C109*%
X152750000Y-108775000D03*
X152750000Y-107225000D03*
%TD*%
D10*
%TO.C,C99*%
X131475000Y-89750000D03*
X133025000Y-89750000D03*
%TD*%
D24*
%TO.C,U6*%
X82150000Y-72939000D03*
X82150000Y-73889000D03*
X82150000Y-74839000D03*
X84425000Y-74839000D03*
X84425000Y-73889000D03*
X84425000Y-72939000D03*
%TD*%
D10*
%TO.C,C141*%
X118025000Y-86550000D03*
X119575000Y-86550000D03*
%TD*%
D25*
%TO.C,C114*%
X83850000Y-57600000D03*
X85750000Y-57600000D03*
%TD*%
D12*
%TO.C,C130*%
X116500000Y-35000000D03*
X116500000Y-36550000D03*
%TD*%
D22*
%TO.C,U34*%
X111387500Y-89287501D03*
X112037500Y-89287501D03*
X112687500Y-89287501D03*
X113337500Y-89287501D03*
X113337500Y-85062501D03*
X112687500Y-85062501D03*
X112037500Y-85062501D03*
X111387500Y-85062501D03*
%TD*%
D11*
%TO.C,R2*%
X140300000Y-48750000D03*
X138650000Y-48750000D03*
%TD*%
D12*
%TO.C,C133*%
X116500000Y-72500000D03*
X116500000Y-74050000D03*
%TD*%
D13*
%TO.C,U20*%
X135655000Y-66775000D03*
X134385000Y-66775000D03*
X133115000Y-66775000D03*
X131845000Y-66775000D03*
X131845000Y-71725000D03*
X133115000Y-71725000D03*
X134385000Y-71725000D03*
X135655000Y-71725000D03*
%TD*%
D11*
%TO.C,R25*%
X140300000Y-86250000D03*
X138650000Y-86250000D03*
%TD*%
D10*
%TO.C,C89*%
X112225000Y-53650000D03*
X113775000Y-53650000D03*
%TD*%
D18*
%TO.C,R12*%
X117975000Y-110050000D03*
X119625000Y-110050000D03*
%TD*%
D10*
%TO.C,C142*%
X118025000Y-99050000D03*
X119575000Y-99050000D03*
%TD*%
D18*
%TO.C,R48*%
X100075000Y-71300000D03*
X101725000Y-71300000D03*
%TD*%
D17*
%TO.C,U5*%
X84365000Y-36205000D03*
X85635000Y-36205000D03*
X86905000Y-36205000D03*
X88175000Y-36205000D03*
X88175000Y-31255000D03*
X86905000Y-31255000D03*
X85635000Y-31255000D03*
X84365000Y-31255000D03*
%TD*%
D16*
%TO.C,C41*%
X140875000Y-27250000D03*
X139325000Y-27250000D03*
%TD*%
%TO.C,C3*%
X110775000Y-53650000D03*
X109225000Y-53650000D03*
%TD*%
D12*
%TO.C,C71*%
X114950000Y-85000000D03*
X114950000Y-86550000D03*
%TD*%
D15*
%TO.C,C111*%
X103600000Y-104875000D03*
X103600000Y-103325000D03*
%TD*%
D26*
%TO.C,U2*%
X88025000Y-76951500D03*
X88675000Y-76951500D03*
X89325000Y-76951500D03*
X89975000Y-76951500D03*
X90625000Y-76951500D03*
X91275000Y-76951500D03*
X91925000Y-76951500D03*
X92575000Y-76951500D03*
X93225000Y-76951500D03*
X93875000Y-76951500D03*
X93875000Y-71226500D03*
X93225000Y-71226500D03*
X92575000Y-71226500D03*
X91925000Y-71226500D03*
X91275000Y-71226500D03*
X90625000Y-71226500D03*
X89975000Y-71226500D03*
X89325000Y-71226500D03*
X88675000Y-71226500D03*
X88025000Y-71226500D03*
%TD*%
D14*
%TO.C,R22*%
X150500000Y-71712500D03*
X150500000Y-68787500D03*
%TD*%
D11*
%TO.C,R7*%
X140300000Y-36250000D03*
X138650000Y-36250000D03*
%TD*%
D18*
%TO.C,R24*%
X117975000Y-97550000D03*
X119625000Y-97550000D03*
%TD*%
D16*
%TO.C,C39*%
X146975000Y-61200000D03*
X145425000Y-61200000D03*
%TD*%
D10*
%TO.C,C50*%
X124025000Y-67400000D03*
X125575000Y-67400000D03*
%TD*%
D18*
%TO.C,R5*%
X86575000Y-65426500D03*
X88225000Y-65426500D03*
%TD*%
D12*
%TO.C,C30*%
X114950000Y-47500000D03*
X114950000Y-49050000D03*
%TD*%
D11*
%TO.C,R60*%
X112625000Y-83225000D03*
X110975000Y-83225000D03*
%TD*%
D15*
%TO.C,C19*%
X80500000Y-55675000D03*
X80500000Y-54125000D03*
%TD*%
D20*
%TO.C,R65*%
X114950000Y-63025000D03*
X114950000Y-64675000D03*
%TD*%
D13*
%TO.C,U17*%
X135655000Y-54275000D03*
X134385000Y-54275000D03*
X133115000Y-54275000D03*
X131845000Y-54275000D03*
X131845000Y-59225000D03*
X133115000Y-59225000D03*
X134385000Y-59225000D03*
X135655000Y-59225000D03*
%TD*%
D20*
%TO.C,R66*%
X114950000Y-75525000D03*
X114950000Y-77175000D03*
%TD*%
D18*
%TO.C,R53*%
X99900000Y-109770000D03*
X101550000Y-109770000D03*
%TD*%
D27*
%TO.C,D3*%
X79100000Y-30812500D03*
X79100000Y-32387500D03*
%TD*%
D15*
%TO.C,C88*%
X152750000Y-121275000D03*
X152750000Y-119725000D03*
%TD*%
D12*
%TO.C,C136*%
X116500000Y-110000000D03*
X116500000Y-111550000D03*
%TD*%
D10*
%TO.C,C61*%
X133725000Y-86250000D03*
X135275000Y-86250000D03*
%TD*%
D16*
%TO.C,C51*%
X146975000Y-73700000D03*
X145425000Y-73700000D03*
%TD*%
D18*
%TO.C,R4*%
X117975000Y-47550000D03*
X119625000Y-47550000D03*
%TD*%
%TO.C,R47*%
X100075000Y-54075000D03*
X101725000Y-54075000D03*
%TD*%
D10*
%TO.C,C43*%
X131475000Y-64750000D03*
X133025000Y-64750000D03*
%TD*%
D16*
%TO.C,C8*%
X84187500Y-84214000D03*
X82637500Y-84214000D03*
%TD*%
D21*
%TO.C,C126*%
X109400000Y-72300000D03*
X109400000Y-75250000D03*
%TD*%
D10*
%TO.C,C24*%
X133725000Y-48750000D03*
X135275000Y-48750000D03*
%TD*%
D22*
%TO.C,U31*%
X111387500Y-114287501D03*
X112037500Y-114287501D03*
X112687500Y-114287501D03*
X113337500Y-114287501D03*
X113337500Y-110062501D03*
X112687500Y-110062501D03*
X112037500Y-110062501D03*
X111387500Y-110062501D03*
%TD*%
D26*
%TO.C,U43*%
X124050000Y-40562500D03*
X124700000Y-40562500D03*
X125350000Y-40562500D03*
X126000000Y-40562500D03*
X126650000Y-40562500D03*
X127300000Y-40562500D03*
X127950000Y-40562500D03*
X127950000Y-34837500D03*
X127300000Y-34837500D03*
X126650000Y-34837500D03*
X126000000Y-34837500D03*
X125350000Y-34837500D03*
X124700000Y-34837500D03*
X124050000Y-34837500D03*
%TD*%
%TO.C,U37*%
X124050000Y-90562500D03*
X124700000Y-90562500D03*
X125350000Y-90562500D03*
X126000000Y-90562500D03*
X126650000Y-90562500D03*
X127300000Y-90562500D03*
X127950000Y-90562500D03*
X127950000Y-84837500D03*
X127300000Y-84837500D03*
X126650000Y-84837500D03*
X126000000Y-84837500D03*
X125350000Y-84837500D03*
X124700000Y-84837500D03*
X124050000Y-84837500D03*
%TD*%
D25*
%TO.C,C122*%
X83320000Y-38600000D03*
X85220000Y-38600000D03*
%TD*%
D28*
%TO.C,C121*%
X88750000Y-38600000D03*
X86850000Y-38600000D03*
%TD*%
D16*
%TO.C,C79*%
X110775000Y-41150000D03*
X109225000Y-41150000D03*
%TD*%
D13*
%TO.C,U45*%
X135655000Y-116775000D03*
X134385000Y-116775000D03*
X133115000Y-116775000D03*
X131845000Y-116775000D03*
X131845000Y-121725000D03*
X133115000Y-121725000D03*
X134385000Y-121725000D03*
X135655000Y-121725000D03*
%TD*%
D29*
%TO.C,R45*%
X79100000Y-35525000D03*
X79100000Y-33875000D03*
%TD*%
D22*
%TO.C,U41*%
X111387500Y-39287501D03*
X112037500Y-39287501D03*
X112687500Y-39287501D03*
X113337500Y-39287501D03*
X113337500Y-35062501D03*
X112687500Y-35062501D03*
X112037500Y-35062501D03*
X111387500Y-35062501D03*
%TD*%
D20*
%TO.C,R67*%
X114950000Y-88025000D03*
X114950000Y-89675000D03*
%TD*%
D11*
%TO.C,R40*%
X143325000Y-123750000D03*
X141675000Y-123750000D03*
%TD*%
D17*
%TO.C,U49*%
X138095000Y-96725000D03*
X139365000Y-96725000D03*
X140635000Y-96725000D03*
X141905000Y-96725000D03*
X141905000Y-91775000D03*
X140635000Y-91775000D03*
X139365000Y-91775000D03*
X138095000Y-91775000D03*
%TD*%
D26*
%TO.C,U9*%
X124050000Y-53062500D03*
X124700000Y-53062500D03*
X125350000Y-53062500D03*
X126000000Y-53062500D03*
X126650000Y-53062500D03*
X127300000Y-53062500D03*
X127950000Y-53062500D03*
X127950000Y-47337500D03*
X127300000Y-47337500D03*
X126650000Y-47337500D03*
X126000000Y-47337500D03*
X125350000Y-47337500D03*
X124700000Y-47337500D03*
X124050000Y-47337500D03*
%TD*%
%TO.C,U33*%
X124050000Y-115562500D03*
X124700000Y-115562500D03*
X125350000Y-115562500D03*
X126000000Y-115562500D03*
X126650000Y-115562500D03*
X127300000Y-115562500D03*
X127950000Y-115562500D03*
X127950000Y-109837500D03*
X127300000Y-109837500D03*
X126650000Y-109837500D03*
X126000000Y-109837500D03*
X125350000Y-109837500D03*
X124700000Y-109837500D03*
X124050000Y-109837500D03*
%TD*%
D29*
%TO.C,R44*%
X78600000Y-55725000D03*
X78600000Y-54075000D03*
%TD*%
D22*
%TO.C,U28*%
X111387500Y-76787501D03*
X112037500Y-76787501D03*
X112687500Y-76787501D03*
X113337500Y-76787501D03*
X113337500Y-72562501D03*
X112687500Y-72562501D03*
X112037500Y-72562501D03*
X111387500Y-72562501D03*
%TD*%
D11*
%TO.C,R70*%
X91825000Y-31000000D03*
X90175000Y-31000000D03*
%TD*%
D16*
%TO.C,C108*%
X140875000Y-102250000D03*
X139325000Y-102250000D03*
%TD*%
D17*
%TO.C,U11*%
X138095000Y-34225000D03*
X139365000Y-34225000D03*
X140635000Y-34225000D03*
X141905000Y-34225000D03*
X141905000Y-29275000D03*
X140635000Y-29275000D03*
X139365000Y-29275000D03*
X138095000Y-29275000D03*
%TD*%
D16*
%TO.C,C62*%
X140875000Y-77250000D03*
X139325000Y-77250000D03*
%TD*%
D12*
%TO.C,C9*%
X86350000Y-80464000D03*
X86350000Y-82014000D03*
%TD*%
D10*
%TO.C,C44*%
X133725000Y-73750000D03*
X135275000Y-73750000D03*
%TD*%
%TO.C,C48*%
X124475000Y-58062500D03*
X126025000Y-58062500D03*
%TD*%
D16*
%TO.C,C18*%
X146975000Y-36200000D03*
X145425000Y-36200000D03*
%TD*%
D11*
%TO.C,R3*%
X143325000Y-48750000D03*
X141675000Y-48750000D03*
%TD*%
D16*
%TO.C,C10*%
X89525000Y-80426500D03*
X87975000Y-80426500D03*
%TD*%
D19*
%TO.C,U29*%
X121925000Y-79555000D03*
X121925000Y-78285000D03*
X121925000Y-77015000D03*
X121925000Y-75745000D03*
X116975000Y-75745000D03*
X116975000Y-77015000D03*
X116975000Y-78285000D03*
X116975000Y-79555000D03*
%TD*%
D10*
%TO.C,C100*%
X133725000Y-98750000D03*
X135275000Y-98750000D03*
%TD*%
D18*
%TO.C,R49*%
X99900000Y-79170000D03*
X101550000Y-79170000D03*
%TD*%
D10*
%TO.C,C143*%
X118025000Y-111550000D03*
X119575000Y-111550000D03*
%TD*%
D16*
%TO.C,C33*%
X110775000Y-66150000D03*
X109225000Y-66150000D03*
%TD*%
D19*
%TO.C,U35*%
X121925000Y-92055000D03*
X121925000Y-90785000D03*
X121925000Y-89515000D03*
X121925000Y-88245000D03*
X116975000Y-88245000D03*
X116975000Y-89515000D03*
X116975000Y-90785000D03*
X116975000Y-92055000D03*
%TD*%
D11*
%TO.C,R21*%
X143325000Y-73750000D03*
X141675000Y-73750000D03*
%TD*%
D15*
%TO.C,C28*%
X103100000Y-57250000D03*
X103100000Y-55700000D03*
%TD*%
D10*
%TO.C,C85*%
X131475000Y-114750000D03*
X133025000Y-114750000D03*
%TD*%
D11*
%TO.C,R62*%
X112625000Y-108225000D03*
X110975000Y-108225000D03*
%TD*%
D29*
%TO.C,R43*%
X82300000Y-52525000D03*
X82300000Y-50875000D03*
%TD*%
D17*
%TO.C,U21*%
X138095000Y-71725000D03*
X139365000Y-71725000D03*
X140635000Y-71725000D03*
X141905000Y-71725000D03*
X141905000Y-66775000D03*
X140635000Y-66775000D03*
X139365000Y-66775000D03*
X138095000Y-66775000D03*
%TD*%
D10*
%TO.C,C140*%
X118025000Y-74050000D03*
X119575000Y-74050000D03*
%TD*%
D15*
%TO.C,C53*%
X103100000Y-82275000D03*
X103100000Y-80725000D03*
%TD*%
D10*
%TO.C,C94*%
X112225000Y-103650000D03*
X113775000Y-103650000D03*
%TD*%
D24*
%TO.C,U7*%
X82212500Y-80689000D03*
X82212500Y-81639000D03*
X82212500Y-82589000D03*
X84487500Y-82589000D03*
X84487500Y-80689000D03*
%TD*%
D16*
%TO.C,C11*%
X89525000Y-78826500D03*
X87975000Y-78826500D03*
%TD*%
D10*
%TO.C,C32*%
X124025000Y-54900000D03*
X125575000Y-54900000D03*
%TD*%
D13*
%TO.C,U10*%
X135655000Y-29275000D03*
X134385000Y-29275000D03*
X133115000Y-29275000D03*
X131845000Y-29275000D03*
X131845000Y-34225000D03*
X133115000Y-34225000D03*
X134385000Y-34225000D03*
X135655000Y-34225000D03*
%TD*%
D11*
%TO.C,R27*%
X140300000Y-123750000D03*
X138650000Y-123750000D03*
%TD*%
D10*
%TO.C,C1*%
X131475000Y-27250000D03*
X133025000Y-27250000D03*
%TD*%
D29*
%TO.C,R54*%
X82270000Y-35555000D03*
X82270000Y-33905000D03*
%TD*%
D11*
%TO.C,R26*%
X143325000Y-86250000D03*
X141675000Y-86250000D03*
%TD*%
%TO.C,R14*%
X140300000Y-61250000D03*
X138650000Y-61250000D03*
%TD*%
D10*
%TO.C,C57*%
X131475000Y-77250000D03*
X133025000Y-77250000D03*
%TD*%
D15*
%TO.C,C38*%
X152750000Y-58775000D03*
X152750000Y-57225000D03*
%TD*%
D19*
%TO.C,U32*%
X121925000Y-117055000D03*
X121925000Y-115785000D03*
X121925000Y-114515000D03*
X121925000Y-113245000D03*
X116975000Y-113245000D03*
X116975000Y-114515000D03*
X116975000Y-115785000D03*
X116975000Y-117055000D03*
%TD*%
D16*
%TO.C,C60*%
X110775000Y-116150000D03*
X109225000Y-116150000D03*
%TD*%
%TO.C,C27*%
X146975000Y-48700000D03*
X145425000Y-48700000D03*
%TD*%
D10*
%TO.C,C13*%
X86625000Y-69026500D03*
X88175000Y-69026500D03*
%TD*%
D15*
%TO.C,C63*%
X152750000Y-83775000D03*
X152750000Y-82225000D03*
%TD*%
D18*
%TO.C,R46*%
X100075000Y-48075000D03*
X101725000Y-48075000D03*
%TD*%
%TO.C,R6*%
X117975000Y-60050000D03*
X119625000Y-60050000D03*
%TD*%
D13*
%TO.C,U48*%
X135655000Y-91775000D03*
X134385000Y-91775000D03*
X133115000Y-91775000D03*
X131845000Y-91775000D03*
X131845000Y-96725000D03*
X133115000Y-96725000D03*
X134385000Y-96725000D03*
X135655000Y-96725000D03*
%TD*%
%TO.C,U50*%
X148130000Y-91775000D03*
X146860000Y-91775000D03*
X145590000Y-91775000D03*
X144320000Y-91775000D03*
X144320000Y-96725000D03*
X145590000Y-96725000D03*
X146860000Y-96725000D03*
X148130000Y-96725000D03*
%TD*%
D11*
%TO.C,R31*%
X143325000Y-98750000D03*
X141675000Y-98750000D03*
%TD*%
D12*
%TO.C,C131*%
X116500000Y-47500000D03*
X116500000Y-49050000D03*
%TD*%
D18*
%TO.C,R8*%
X117975000Y-72550000D03*
X119625000Y-72550000D03*
%TD*%
D10*
%TO.C,C68*%
X124025000Y-117400000D03*
X125575000Y-117400000D03*
%TD*%
D18*
%TO.C,R52*%
X100175000Y-101700000D03*
X101825000Y-101700000D03*
%TD*%
D11*
%TO.C,R15*%
X143325000Y-61250000D03*
X141675000Y-61250000D03*
%TD*%
D10*
%TO.C,C36*%
X133725000Y-61250000D03*
X135275000Y-61250000D03*
%TD*%
D17*
%TO.C,U15*%
X138095000Y-46725000D03*
X139365000Y-46725000D03*
X140635000Y-46725000D03*
X141905000Y-46725000D03*
X141905000Y-41775000D03*
X140635000Y-41775000D03*
X139365000Y-41775000D03*
X138095000Y-41775000D03*
%TD*%
D11*
%TO.C,R61*%
X112625000Y-95725000D03*
X110975000Y-95725000D03*
%TD*%
D18*
%TO.C,R10*%
X103275000Y-48075000D03*
X104925000Y-48075000D03*
%TD*%
D13*
%TO.C,U51*%
X135655000Y-104275000D03*
X134385000Y-104275000D03*
X133115000Y-104275000D03*
X131845000Y-104275000D03*
X131845000Y-109225000D03*
X133115000Y-109225000D03*
X134385000Y-109225000D03*
X135655000Y-109225000D03*
%TD*%
D10*
%TO.C,C14*%
X118375000Y-56100000D03*
X119925000Y-56100000D03*
%TD*%
D15*
%TO.C,C120*%
X100100000Y-113075000D03*
X100100000Y-111525000D03*
%TD*%
%TO.C,C116*%
X99900000Y-82275000D03*
X99900000Y-80725000D03*
%TD*%
D10*
%TO.C,C78*%
X124025000Y-104900000D03*
X125575000Y-104900000D03*
%TD*%
%TO.C,C31*%
X124475000Y-45562500D03*
X126025000Y-45562500D03*
%TD*%
D12*
%TO.C,C132*%
X116500000Y-60000000D03*
X116500000Y-61550000D03*
%TD*%
D13*
%TO.C,U22*%
X148130000Y-66775000D03*
X146860000Y-66775000D03*
X145590000Y-66775000D03*
X144320000Y-66775000D03*
X144320000Y-71725000D03*
X145590000Y-71725000D03*
X146860000Y-71725000D03*
X148130000Y-71725000D03*
%TD*%
%TO.C,U23*%
X135655000Y-79275000D03*
X134385000Y-79275000D03*
X133115000Y-79275000D03*
X131845000Y-79275000D03*
X131845000Y-84225000D03*
X133115000Y-84225000D03*
X134385000Y-84225000D03*
X135655000Y-84225000D03*
%TD*%
D29*
%TO.C,R55*%
X82270000Y-32425000D03*
X82270000Y-30775000D03*
%TD*%
D16*
%TO.C,C69*%
X110775000Y-91150000D03*
X109225000Y-91150000D03*
%TD*%
D13*
%TO.C,U53*%
X148130000Y-104275000D03*
X146860000Y-104275000D03*
X145590000Y-104275000D03*
X144320000Y-104275000D03*
X144320000Y-109225000D03*
X145590000Y-109225000D03*
X146860000Y-109225000D03*
X148130000Y-109225000D03*
%TD*%
D10*
%TO.C,C58*%
X124475000Y-70562500D03*
X126025000Y-70562500D03*
%TD*%
D20*
%TO.C,R64*%
X114950000Y-50525000D03*
X114950000Y-52175000D03*
%TD*%
D19*
%TO.C,U42*%
X121925000Y-42055000D03*
X121925000Y-40785000D03*
X121925000Y-39515000D03*
X121925000Y-38245000D03*
X116975000Y-38245000D03*
X116975000Y-39515000D03*
X116975000Y-40785000D03*
X116975000Y-42055000D03*
%TD*%
D10*
%TO.C,C49*%
X133725000Y-36250000D03*
X135275000Y-36250000D03*
%TD*%
D15*
%TO.C,C119*%
X100200000Y-104875000D03*
X100200000Y-103325000D03*
%TD*%
D14*
%TO.C,R17*%
X150500000Y-59212500D03*
X150500000Y-56287500D03*
%TD*%
D11*
%TO.C,R58*%
X112625000Y-58225000D03*
X110975000Y-58225000D03*
%TD*%
D15*
%TO.C,C47*%
X152750000Y-71275000D03*
X152750000Y-69725000D03*
%TD*%
D10*
%TO.C,C12*%
X86625000Y-67226500D03*
X88175000Y-67226500D03*
%TD*%
%TO.C,C90*%
X112225000Y-66150000D03*
X113775000Y-66150000D03*
%TD*%
D13*
%TO.C,U12*%
X148130000Y-29275000D03*
X146860000Y-29275000D03*
X145590000Y-29275000D03*
X144320000Y-29275000D03*
X144320000Y-34225000D03*
X145590000Y-34225000D03*
X146860000Y-34225000D03*
X148130000Y-34225000D03*
%TD*%
D16*
%TO.C,C96*%
X147525000Y-124000000D03*
X145975000Y-124000000D03*
%TD*%
D17*
%TO.C,U52*%
X138095000Y-109225000D03*
X139365000Y-109225000D03*
X140635000Y-109225000D03*
X141905000Y-109225000D03*
X141905000Y-104275000D03*
X140635000Y-104275000D03*
X139365000Y-104275000D03*
X138095000Y-104275000D03*
%TD*%
D18*
%TO.C,R51*%
X99675000Y-94100000D03*
X101325000Y-94100000D03*
%TD*%
D12*
%TO.C,C135*%
X116500000Y-97500000D03*
X116500000Y-99050000D03*
%TD*%
%TO.C,C5*%
X80325000Y-71514000D03*
X80325000Y-73064000D03*
%TD*%
D28*
%TO.C,C113*%
X89250000Y-57600000D03*
X87350000Y-57600000D03*
%TD*%
D13*
%TO.C,U47*%
X148130000Y-116775000D03*
X146860000Y-116775000D03*
X145590000Y-116775000D03*
X144320000Y-116775000D03*
X144320000Y-121725000D03*
X145590000Y-121725000D03*
X146860000Y-121725000D03*
X148130000Y-121725000D03*
%TD*%
D12*
%TO.C,C6*%
X80412500Y-80439000D03*
X80412500Y-81989000D03*
%TD*%
%TO.C,C81*%
X114950000Y-35000000D03*
X114950000Y-36550000D03*
%TD*%
%TO.C,C56*%
X114950000Y-72500000D03*
X114950000Y-74050000D03*
%TD*%
D10*
%TO.C,C83*%
X124025000Y-42400000D03*
X125575000Y-42400000D03*
%TD*%
D26*
%TO.C,U30*%
X124050000Y-78062500D03*
X124700000Y-78062500D03*
X125350000Y-78062500D03*
X126000000Y-78062500D03*
X126650000Y-78062500D03*
X127300000Y-78062500D03*
X127950000Y-78062500D03*
X127950000Y-72337500D03*
X127300000Y-72337500D03*
X126650000Y-72337500D03*
X126000000Y-72337500D03*
X125350000Y-72337500D03*
X124700000Y-72337500D03*
X124050000Y-72337500D03*
%TD*%
D10*
%TO.C,C138*%
X118025000Y-49050000D03*
X119575000Y-49050000D03*
%TD*%
%TO.C,C73*%
X124025000Y-92400000D03*
X125575000Y-92400000D03*
%TD*%
%TO.C,C139*%
X118025000Y-61550000D03*
X119575000Y-61550000D03*
%TD*%
D11*
%TO.C,R56*%
X112625000Y-33225000D03*
X110975000Y-33225000D03*
%TD*%
D14*
%TO.C,R11*%
X150500000Y-46712500D03*
X150500000Y-43787500D03*
%TD*%
D18*
%TO.C,R39*%
X103375000Y-101700000D03*
X105025000Y-101700000D03*
%TD*%
D21*
%TO.C,C127*%
X109400000Y-84800000D03*
X109400000Y-87750000D03*
%TD*%
D22*
%TO.C,U25*%
X111387500Y-64287501D03*
X112037500Y-64287501D03*
X112687500Y-64287501D03*
X113337500Y-64287501D03*
X113337500Y-60062501D03*
X112687500Y-60062501D03*
X112037500Y-60062501D03*
X111387500Y-60062501D03*
%TD*%
D16*
%TO.C,C101*%
X140875000Y-89750000D03*
X139325000Y-89750000D03*
%TD*%
D10*
%TO.C,C72*%
X124475000Y-83062500D03*
X126025000Y-83062500D03*
%TD*%
D29*
%TO.C,R35*%
X82300000Y-55725000D03*
X82300000Y-54075000D03*
%TD*%
D10*
%TO.C,C70*%
X118375000Y-93600000D03*
X119925000Y-93600000D03*
%TD*%
D16*
%TO.C,C103*%
X146975000Y-98700000D03*
X145425000Y-98700000D03*
%TD*%
D14*
%TO.C,R38*%
X150500000Y-109212500D03*
X150500000Y-106287500D03*
%TD*%
D11*
%TO.C,R30*%
X140300000Y-98750000D03*
X138650000Y-98750000D03*
%TD*%
D15*
%TO.C,C21*%
X100100000Y-57250000D03*
X100100000Y-55700000D03*
%TD*%
D10*
%TO.C,C93*%
X112225000Y-91150000D03*
X113775000Y-91150000D03*
%TD*%
D18*
%TO.C,R18*%
X103300000Y-71360000D03*
X104950000Y-71360000D03*
%TD*%
D21*
%TO.C,C128*%
X109400000Y-97300000D03*
X109400000Y-100250000D03*
%TD*%
D15*
%TO.C,C26*%
X152750000Y-46275000D03*
X152750000Y-44725000D03*
%TD*%
D16*
%TO.C,C55*%
X136825000Y-77250000D03*
X135275000Y-77250000D03*
%TD*%
D18*
%TO.C,R42*%
X103075000Y-109700000D03*
X104725000Y-109700000D03*
%TD*%
%TO.C,R33*%
X102900000Y-94060000D03*
X104550000Y-94060000D03*
%TD*%
D11*
%TO.C,R57*%
X112625000Y-45725000D03*
X110975000Y-45725000D03*
%TD*%
D10*
%TO.C,C35*%
X131475000Y-52250000D03*
X133025000Y-52250000D03*
%TD*%
D13*
%TO.C,U16*%
X148130000Y-41775000D03*
X146860000Y-41775000D03*
X145590000Y-41775000D03*
X144320000Y-41775000D03*
X144320000Y-46725000D03*
X145590000Y-46725000D03*
X146860000Y-46725000D03*
X148130000Y-46725000D03*
%TD*%
D16*
%TO.C,C37*%
X140875000Y-52250000D03*
X139325000Y-52250000D03*
%TD*%
D10*
%TO.C,C34*%
X118375000Y-68600000D03*
X119925000Y-68600000D03*
%TD*%
D21*
%TO.C,C124*%
X109400000Y-47300000D03*
X109400000Y-50250000D03*
%TD*%
D18*
%TO.C,R20*%
X117975000Y-35050000D03*
X119625000Y-35050000D03*
%TD*%
D26*
%TO.C,U27*%
X124050000Y-65562500D03*
X124700000Y-65562500D03*
X125350000Y-65562500D03*
X126000000Y-65562500D03*
X126650000Y-65562500D03*
X127300000Y-65562500D03*
X127950000Y-65562500D03*
X127950000Y-59837500D03*
X127300000Y-59837500D03*
X126650000Y-59837500D03*
X126000000Y-59837500D03*
X125350000Y-59837500D03*
X124700000Y-59837500D03*
X124050000Y-59837500D03*
%TD*%
D16*
%TO.C,C22*%
X136825000Y-39750000D03*
X135275000Y-39750000D03*
%TD*%
D21*
%TO.C,C125*%
X109400000Y-59800000D03*
X109400000Y-62750000D03*
%TD*%
D16*
%TO.C,C87*%
X140875000Y-114750000D03*
X139325000Y-114750000D03*
%TD*%
D19*
%TO.C,U26*%
X121925000Y-67055000D03*
X121925000Y-65785000D03*
X121925000Y-64515000D03*
X121925000Y-63245000D03*
X116975000Y-63245000D03*
X116975000Y-64515000D03*
X116975000Y-65785000D03*
X116975000Y-67055000D03*
%TD*%
D11*
%TO.C,R19*%
X140300000Y-73750000D03*
X138650000Y-73750000D03*
%TD*%
D20*
%TO.C,R68*%
X114950000Y-100525000D03*
X114950000Y-102175000D03*
%TD*%
D10*
%TO.C,C54*%
X118375000Y-81100000D03*
X119925000Y-81100000D03*
%TD*%
D16*
%TO.C,C84*%
X136825000Y-114750000D03*
X135275000Y-114750000D03*
%TD*%
D22*
%TO.C,U1*%
X111387500Y-51787501D03*
X112037500Y-51787501D03*
X112687500Y-51787501D03*
X113337500Y-51787501D03*
X113337500Y-47562501D03*
X112687500Y-47562501D03*
X112037500Y-47562501D03*
X111387500Y-47562501D03*
%TD*%
D11*
%TO.C,R37*%
X143325000Y-111250000D03*
X141675000Y-111250000D03*
%TD*%
D18*
%TO.C,R23*%
X103075000Y-79100000D03*
X104725000Y-79100000D03*
%TD*%
D16*
%TO.C,C105*%
X136825000Y-102250000D03*
X135275000Y-102250000D03*
%TD*%
D13*
%TO.C,U19*%
X148130000Y-54275000D03*
X146860000Y-54275000D03*
X145590000Y-54275000D03*
X144320000Y-54275000D03*
X144320000Y-59225000D03*
X145590000Y-59225000D03*
X146860000Y-59225000D03*
X148130000Y-59225000D03*
%TD*%
D18*
%TO.C,R16*%
X117975000Y-85050000D03*
X119625000Y-85050000D03*
%TD*%
D15*
%TO.C,C115*%
X100100000Y-74475000D03*
X100100000Y-72925000D03*
%TD*%
D10*
%TO.C,C23*%
X131475000Y-39750000D03*
X133025000Y-39750000D03*
%TD*%
D26*
%TO.C,U44*%
X124050000Y-103062500D03*
X124700000Y-103062500D03*
X125350000Y-103062500D03*
X126000000Y-103062500D03*
X126650000Y-103062500D03*
X127300000Y-103062500D03*
X127950000Y-103062500D03*
X127950000Y-97337500D03*
X127300000Y-97337500D03*
X126650000Y-97337500D03*
X126000000Y-97337500D03*
X125350000Y-97337500D03*
X124700000Y-97337500D03*
X124050000Y-97337500D03*
%TD*%
D16*
%TO.C,C25*%
X140875000Y-39750000D03*
X139325000Y-39750000D03*
%TD*%
D11*
%TO.C,R34*%
X140300000Y-111250000D03*
X138650000Y-111250000D03*
%TD*%
D16*
%TO.C,C2*%
X136825000Y-27250000D03*
X135275000Y-27250000D03*
%TD*%
%TO.C,C52*%
X110775000Y-78650000D03*
X109225000Y-78650000D03*
%TD*%
D10*
%TO.C,C80*%
X118375000Y-43600000D03*
X119925000Y-43600000D03*
%TD*%
D18*
%TO.C,R29*%
X103075000Y-86700000D03*
X104725000Y-86700000D03*
%TD*%
D17*
%TO.C,U46*%
X138095000Y-121725000D03*
X139365000Y-121725000D03*
X140635000Y-121725000D03*
X141905000Y-121725000D03*
X141905000Y-116775000D03*
X140635000Y-116775000D03*
X139365000Y-116775000D03*
X138095000Y-116775000D03*
%TD*%
D15*
%TO.C,C104*%
X103100000Y-97275000D03*
X103100000Y-95725000D03*
%TD*%
D10*
%TO.C,C95*%
X112225000Y-41150000D03*
X113775000Y-41150000D03*
%TD*%
D15*
%TO.C,C102*%
X152750000Y-96275000D03*
X152750000Y-94725000D03*
%TD*%
D14*
%TO.C,R32*%
X150500000Y-96712500D03*
X150500000Y-93787500D03*
%TD*%
D15*
%TO.C,C118*%
X99700000Y-97275000D03*
X99700000Y-95725000D03*
%TD*%
D12*
%TO.C,C76*%
X114950000Y-97500000D03*
X114950000Y-99050000D03*
%TD*%
D10*
%TO.C,C106*%
X131475000Y-102250000D03*
X133025000Y-102250000D03*
%TD*%
D16*
%TO.C,C45*%
X140875000Y-64750000D03*
X139325000Y-64750000D03*
%TD*%
%TO.C,C64*%
X146975000Y-86200000D03*
X145425000Y-86200000D03*
%TD*%
D11*
%TO.C,R59*%
X112625000Y-70725000D03*
X110975000Y-70725000D03*
%TD*%
D17*
%TO.C,U4*%
X84395000Y-55375000D03*
X85665000Y-55375000D03*
X86935000Y-55375000D03*
X88205000Y-55375000D03*
X88205000Y-50425000D03*
X86935000Y-50425000D03*
X85665000Y-50425000D03*
X84395000Y-50425000D03*
%TD*%
D21*
%TO.C,C123*%
X109400000Y-34800000D03*
X109400000Y-37750000D03*
%TD*%
D15*
%TO.C,C40*%
X103500000Y-74475000D03*
X103500000Y-72925000D03*
%TD*%
D11*
%TO.C,R1*%
X143325000Y-36250000D03*
X141675000Y-36250000D03*
%TD*%
D27*
%TO.C,D1*%
X78600000Y-50912500D03*
X78600000Y-52487500D03*
%TD*%
D18*
%TO.C,R36*%
X83175000Y-112400000D03*
X84825000Y-112400000D03*
%TD*%
D13*
%TO.C,U36*%
X148130000Y-79275000D03*
X146860000Y-79275000D03*
X145590000Y-79275000D03*
X144320000Y-79275000D03*
X144320000Y-84225000D03*
X145590000Y-84225000D03*
X146860000Y-84225000D03*
X148130000Y-84225000D03*
%TD*%
M02*
