%TF.GenerationSoftware,KiCad,Pcbnew,7.0.10*%
%TF.CreationDate,2024-02-04T21:06:28+01:00*%
%TF.ProjectId,demo_LMP7721,64656d6f-5f4c-44d5-9037-3732312e6b69,rev?*%
%TF.SameCoordinates,Original*%
%TF.FileFunction,Drillmap*%
%TF.FilePolarity,Positive*%
%FSLAX45Y45*%
G04 Gerber Fmt 4.5, Leading zero omitted, Abs format (unit mm)*
G04 Created by KiCad (PCBNEW 7.0.10) date 2024-02-04 21:06:28*
%MOMM*%
%LPD*%
G01*
G04 APERTURE LIST*
%ADD10C,0.100000*%
%ADD11C,0.200000*%
%ADD12C,0.320000*%
G04 APERTURE END LIST*
D10*
X6500000Y-12000000D02*
G75*
G03*
X7000000Y-12500000I500000J0D01*
G01*
X7000000Y-2500000D02*
X16000000Y-2500000D01*
X16000000Y-12500000D02*
G75*
G03*
X16500000Y-12000000I0J500000D01*
G01*
X16000000Y-12500000D02*
X7000000Y-12500000D01*
X16500000Y-3000000D02*
G75*
G03*
X16000000Y-2500000I-500000J0D01*
G01*
X6500000Y-12000000D02*
X6500000Y-3000000D01*
X16500000Y-3000000D02*
X16500000Y-12000000D01*
X7000000Y-2500000D02*
G75*
G03*
X6500000Y-3000000I0J-500000D01*
G01*
D11*
D10*
X7705000Y-7155000D02*
X7745000Y-7195000D01*
X7745000Y-7155000D02*
X7705000Y-7195000D01*
X7740000Y-8060000D02*
X7780000Y-8100000D01*
X7780000Y-8060000D02*
X7740000Y-8100000D01*
X7760000Y-7480000D02*
X7800000Y-7520000D01*
X7800000Y-7480000D02*
X7760000Y-7520000D01*
X8020000Y-8680000D02*
X8060000Y-8720000D01*
X8060000Y-8680000D02*
X8020000Y-8720000D01*
X8030000Y-5080000D02*
X8070000Y-5120000D01*
X8070000Y-5080000D02*
X8030000Y-5120000D01*
X8055000Y-3055000D02*
X8095000Y-3095000D01*
X8095000Y-3055000D02*
X8055000Y-3095000D01*
X8093800Y-8324000D02*
X8133800Y-8364000D01*
X8133800Y-8324000D02*
X8093800Y-8364000D01*
X8140000Y-7760000D02*
X8180000Y-7800000D01*
X8180000Y-7760000D02*
X8140000Y-7800000D01*
X8155000Y-7605000D02*
X8195000Y-7645000D01*
X8195000Y-7605000D02*
X8155000Y-7645000D01*
X8155000Y-7917600D02*
X8195000Y-7957600D01*
X8195000Y-7917600D02*
X8155000Y-7957600D01*
X8430000Y-7905000D02*
X8470000Y-7945000D01*
X8470000Y-7905000D02*
X8430000Y-7945000D01*
X8500000Y-4000000D02*
X8540000Y-4040000D01*
X8540000Y-4000000D02*
X8500000Y-4040000D01*
X8530000Y-2880000D02*
X8570000Y-2920000D01*
X8570000Y-2880000D02*
X8530000Y-2920000D01*
X8530000Y-3355000D02*
X8570000Y-3395000D01*
X8570000Y-3355000D02*
X8530000Y-3395000D01*
X8530000Y-4805000D02*
X8570000Y-4845000D01*
X8570000Y-4805000D02*
X8530000Y-4845000D01*
X8540000Y-5900000D02*
X8580000Y-5940000D01*
X8580000Y-5900000D02*
X8540000Y-5940000D01*
X8555000Y-5280000D02*
X8595000Y-5320000D01*
X8595000Y-5280000D02*
X8555000Y-5320000D01*
X8555000Y-7705000D02*
X8595000Y-7745000D01*
X8595000Y-7705000D02*
X8555000Y-7745000D01*
X8580000Y-6380000D02*
X8620000Y-6420000D01*
X8620000Y-6380000D02*
X8580000Y-6420000D01*
X8580000Y-7830000D02*
X8620000Y-7870000D01*
X8620000Y-7830000D02*
X8580000Y-7870000D01*
X8580000Y-8530000D02*
X8620000Y-8570000D01*
X8620000Y-8530000D02*
X8580000Y-8570000D01*
X8655000Y-4805000D02*
X8695000Y-4845000D01*
X8695000Y-4805000D02*
X8655000Y-4845000D01*
X8655000Y-7180000D02*
X8695000Y-7220000D01*
X8695000Y-7180000D02*
X8655000Y-7220000D01*
X8655000Y-7705000D02*
X8695000Y-7745000D01*
X8695000Y-7705000D02*
X8655000Y-7745000D01*
X8660000Y-3980000D02*
X8700000Y-4020000D01*
X8700000Y-3980000D02*
X8660000Y-4020000D01*
X8680000Y-2880000D02*
X8720000Y-2920000D01*
X8720000Y-2880000D02*
X8680000Y-2920000D01*
X8680000Y-3355000D02*
X8720000Y-3395000D01*
X8720000Y-3355000D02*
X8680000Y-3395000D01*
X8680000Y-5280000D02*
X8720000Y-5320000D01*
X8720000Y-5280000D02*
X8680000Y-5320000D01*
X8680000Y-6380000D02*
X8720000Y-6420000D01*
X8720000Y-6380000D02*
X8680000Y-6420000D01*
X8700000Y-5900000D02*
X8740000Y-5940000D01*
X8740000Y-5900000D02*
X8700000Y-5940000D01*
X8705000Y-8405000D02*
X8745000Y-8445000D01*
X8745000Y-8405000D02*
X8705000Y-8445000D01*
X8855000Y-8280000D02*
X8895000Y-8320000D01*
X8895000Y-8280000D02*
X8855000Y-8320000D01*
X8856500Y-7256500D02*
X8896500Y-7296500D01*
X8896500Y-7256500D02*
X8856500Y-7296500D01*
X8930000Y-6530000D02*
X8970000Y-6570000D01*
X8970000Y-6530000D02*
X8930000Y-6570000D01*
X8953735Y-6903735D02*
X8993735Y-6943735D01*
X8993735Y-6903735D02*
X8953735Y-6943735D01*
X8955000Y-6655000D02*
X8995000Y-6695000D01*
X8995000Y-6655000D02*
X8955000Y-6695000D01*
X8955000Y-6755000D02*
X8995000Y-6795000D01*
X8995000Y-6755000D02*
X8955000Y-6795000D01*
X8998518Y-7250473D02*
X9038518Y-7290473D01*
X9038518Y-7250473D02*
X8998518Y-7290473D01*
X9030000Y-3730000D02*
X9070000Y-3770000D01*
X9070000Y-3730000D02*
X9030000Y-3770000D01*
X9055000Y-5680000D02*
X9095000Y-5720000D01*
X9095000Y-5680000D02*
X9055000Y-5720000D01*
X9055000Y-6930000D02*
X9095000Y-6970000D01*
X9095000Y-6930000D02*
X9055000Y-6970000D01*
X9097500Y-7264706D02*
X9137500Y-7304706D01*
X9137500Y-7264706D02*
X9097500Y-7304706D01*
X9170000Y-6935000D02*
X9210000Y-6975000D01*
X9210000Y-6935000D02*
X9170000Y-6975000D01*
X9245000Y-7260000D02*
X9285000Y-7300000D01*
X9285000Y-7260000D02*
X9245000Y-7300000D01*
X9850000Y-11407500D02*
X9890000Y-11447500D01*
X9890000Y-11407500D02*
X9850000Y-11447500D01*
X10130000Y-5727500D02*
X10170000Y-5767500D01*
X10170000Y-5727500D02*
X10130000Y-5767500D01*
X10130000Y-8227500D02*
X10170000Y-8267500D01*
X10170000Y-8227500D02*
X10130000Y-8267500D01*
X10130000Y-9707500D02*
X10170000Y-9747500D01*
X10170000Y-9707500D02*
X10130000Y-9747500D01*
X10150000Y-5107500D02*
X10190000Y-5147500D01*
X10190000Y-5107500D02*
X10150000Y-5147500D01*
X10170000Y-7427500D02*
X10210000Y-7467500D01*
X10210000Y-7427500D02*
X10170000Y-7467500D01*
X10170000Y-10467500D02*
X10210000Y-10507500D01*
X10210000Y-10467500D02*
X10170000Y-10507500D01*
X10600000Y-7900000D02*
X10640000Y-7940000D01*
X10640000Y-7900000D02*
X10600000Y-7940000D01*
X10600000Y-10950000D02*
X10640000Y-10990000D01*
X10640000Y-10950000D02*
X10600000Y-10990000D01*
X10610000Y-8660000D02*
X10650000Y-8700000D01*
X10650000Y-8660000D02*
X10610000Y-8700000D01*
X10610000Y-10160000D02*
X10650000Y-10200000D01*
X10650000Y-10160000D02*
X10610000Y-10200000D01*
X10620000Y-4810000D02*
X10660000Y-4850000D01*
X10660000Y-4810000D02*
X10620000Y-4850000D01*
X10620000Y-9400000D02*
X10660000Y-9440000D01*
X10660000Y-9400000D02*
X10620000Y-9440000D01*
X10630000Y-5400000D02*
X10670000Y-5440000D01*
X10670000Y-5400000D02*
X10630000Y-5440000D01*
X10660000Y-7110000D02*
X10700000Y-7150000D01*
X10700000Y-7110000D02*
X10660000Y-7150000D01*
X10900000Y-3930000D02*
X10940000Y-3970000D01*
X10940000Y-3930000D02*
X10900000Y-3970000D01*
X10900000Y-5180000D02*
X10940000Y-5220000D01*
X10940000Y-5180000D02*
X10900000Y-5220000D01*
X10900000Y-6430000D02*
X10940000Y-6470000D01*
X10940000Y-6430000D02*
X10900000Y-6470000D01*
X10900000Y-7680000D02*
X10940000Y-7720000D01*
X10940000Y-7680000D02*
X10900000Y-7720000D01*
X10900000Y-8930000D02*
X10940000Y-8970000D01*
X10940000Y-8930000D02*
X10900000Y-8970000D01*
X10900000Y-10180000D02*
X10940000Y-10220000D01*
X10940000Y-10180000D02*
X10900000Y-10220000D01*
X10900000Y-11430000D02*
X10940000Y-11470000D01*
X10940000Y-11430000D02*
X10900000Y-11470000D01*
X11320000Y-4360000D02*
X11360000Y-4400000D01*
X11360000Y-4360000D02*
X11320000Y-4400000D01*
X11320000Y-5520000D02*
X11360000Y-5560000D01*
X11360000Y-5520000D02*
X11320000Y-5560000D01*
X11320000Y-6780000D02*
X11360000Y-6820000D01*
X11360000Y-6780000D02*
X11320000Y-6820000D01*
X11340000Y-8090000D02*
X11380000Y-8130000D01*
X11380000Y-8090000D02*
X11340000Y-8130000D01*
X11340000Y-9340000D02*
X11380000Y-9380000D01*
X11380000Y-9340000D02*
X11340000Y-9380000D01*
X11340000Y-10580000D02*
X11380000Y-10620000D01*
X11380000Y-10580000D02*
X11340000Y-10620000D01*
X11340000Y-11860000D02*
X11380000Y-11900000D01*
X11380000Y-11860000D02*
X11340000Y-11900000D01*
X11940000Y-3800000D02*
X11980000Y-3840000D01*
X11980000Y-3800000D02*
X11940000Y-3840000D01*
X11940000Y-5050000D02*
X11980000Y-5090000D01*
X11980000Y-5050000D02*
X11940000Y-5090000D01*
X11940000Y-6300000D02*
X11980000Y-6340000D01*
X11980000Y-6300000D02*
X11940000Y-6340000D01*
X11940000Y-7550000D02*
X11980000Y-7590000D01*
X11980000Y-7550000D02*
X11940000Y-7590000D01*
X11940000Y-8800000D02*
X11980000Y-8840000D01*
X11980000Y-8800000D02*
X11940000Y-8840000D01*
X11940000Y-10050000D02*
X11980000Y-10090000D01*
X11980000Y-10050000D02*
X11940000Y-10090000D01*
X11940000Y-11300000D02*
X11980000Y-11340000D01*
X11980000Y-11300000D02*
X11940000Y-11340000D01*
X11970000Y-3900000D02*
X12010000Y-3940000D01*
X12010000Y-3900000D02*
X11970000Y-3940000D01*
X11970000Y-4180000D02*
X12010000Y-4220000D01*
X12010000Y-4180000D02*
X11970000Y-4220000D01*
X11970000Y-5150000D02*
X12010000Y-5190000D01*
X12010000Y-5150000D02*
X11970000Y-5190000D01*
X11970000Y-5430000D02*
X12010000Y-5470000D01*
X12010000Y-5430000D02*
X11970000Y-5470000D01*
X11970000Y-6400000D02*
X12010000Y-6440000D01*
X12010000Y-6400000D02*
X11970000Y-6440000D01*
X11970000Y-6680000D02*
X12010000Y-6720000D01*
X12010000Y-6680000D02*
X11970000Y-6720000D01*
X11970000Y-7650000D02*
X12010000Y-7690000D01*
X12010000Y-7650000D02*
X11970000Y-7690000D01*
X11970000Y-7930000D02*
X12010000Y-7970000D01*
X12010000Y-7930000D02*
X11970000Y-7970000D01*
X11970000Y-8900000D02*
X12010000Y-8940000D01*
X12010000Y-8900000D02*
X11970000Y-8940000D01*
X11970000Y-9180000D02*
X12010000Y-9220000D01*
X12010000Y-9180000D02*
X11970000Y-9220000D01*
X11970000Y-10150000D02*
X12010000Y-10190000D01*
X12010000Y-10150000D02*
X11970000Y-10190000D01*
X11970000Y-10430000D02*
X12010000Y-10470000D01*
X12010000Y-10430000D02*
X11970000Y-10470000D01*
X11970000Y-11400000D02*
X12010000Y-11440000D01*
X12010000Y-11400000D02*
X11970000Y-11440000D01*
X11970000Y-11680000D02*
X12010000Y-11720000D01*
X12010000Y-11680000D02*
X11970000Y-11720000D01*
X12040000Y-8640000D02*
X12080000Y-8680000D01*
X12080000Y-8640000D02*
X12040000Y-8680000D01*
X12040000Y-9880000D02*
X12080000Y-9920000D01*
X12080000Y-9880000D02*
X12040000Y-9920000D01*
X12040000Y-11140000D02*
X12080000Y-11180000D01*
X12080000Y-11140000D02*
X12040000Y-11180000D01*
X12060000Y-4880000D02*
X12100000Y-4920000D01*
X12100000Y-4880000D02*
X12060000Y-4920000D01*
X12060000Y-7380000D02*
X12100000Y-7420000D01*
X12100000Y-7380000D02*
X12060000Y-7420000D01*
X12080000Y-5590000D02*
X12120000Y-5630000D01*
X12120000Y-5590000D02*
X12080000Y-5630000D01*
X12080000Y-6840000D02*
X12120000Y-6880000D01*
X12120000Y-6840000D02*
X12080000Y-6880000D01*
X12080000Y-9340000D02*
X12120000Y-9380000D01*
X12120000Y-9340000D02*
X12080000Y-9380000D01*
X12080000Y-10580000D02*
X12120000Y-10620000D01*
X12120000Y-10580000D02*
X12080000Y-10620000D01*
X12080000Y-11840000D02*
X12120000Y-11880000D01*
X12120000Y-11840000D02*
X12080000Y-11880000D01*
X12081138Y-8089484D02*
X12121138Y-8129484D01*
X12121138Y-8089484D02*
X12081138Y-8129484D01*
X12090000Y-3660000D02*
X12130000Y-3700000D01*
X12130000Y-3660000D02*
X12090000Y-3700000D01*
X12090000Y-6160000D02*
X12130000Y-6200000D01*
X12130000Y-6160000D02*
X12090000Y-6200000D01*
X12100000Y-4340000D02*
X12140000Y-4380000D01*
X12140000Y-4340000D02*
X12100000Y-4380000D01*
X12200000Y-4400000D02*
X12240000Y-4440000D01*
X12240000Y-4400000D02*
X12200000Y-4440000D01*
X12200000Y-5620000D02*
X12240000Y-5660000D01*
X12240000Y-5620000D02*
X12200000Y-5660000D01*
X12200000Y-6880000D02*
X12240000Y-6920000D01*
X12240000Y-6880000D02*
X12200000Y-6920000D01*
X12200000Y-8120000D02*
X12240000Y-8160000D01*
X12240000Y-8120000D02*
X12200000Y-8160000D01*
X12200000Y-9360000D02*
X12240000Y-9400000D01*
X12240000Y-9360000D02*
X12200000Y-9400000D01*
X12200000Y-10620000D02*
X12240000Y-10660000D01*
X12240000Y-10620000D02*
X12200000Y-10660000D01*
X12220000Y-11860000D02*
X12260000Y-11900000D01*
X12260000Y-11860000D02*
X12220000Y-11900000D01*
X12340000Y-3200000D02*
X12380000Y-3240000D01*
X12380000Y-3200000D02*
X12340000Y-3240000D01*
X12340000Y-4440000D02*
X12380000Y-4480000D01*
X12380000Y-4440000D02*
X12340000Y-4480000D01*
X12340000Y-5700000D02*
X12380000Y-5740000D01*
X12380000Y-5700000D02*
X12340000Y-5740000D01*
X12340000Y-6960000D02*
X12380000Y-7000000D01*
X12380000Y-6960000D02*
X12340000Y-7000000D01*
X12340000Y-8200000D02*
X12380000Y-8240000D01*
X12380000Y-8200000D02*
X12340000Y-8240000D01*
X12340000Y-9440000D02*
X12380000Y-9480000D01*
X12380000Y-9440000D02*
X12340000Y-9480000D01*
X12340000Y-10660000D02*
X12380000Y-10700000D01*
X12380000Y-10660000D02*
X12340000Y-10700000D01*
X12440000Y-6380000D02*
X12480000Y-6420000D01*
X12480000Y-6380000D02*
X12440000Y-6420000D01*
X12450000Y-3890000D02*
X12490000Y-3930000D01*
X12490000Y-3890000D02*
X12450000Y-3930000D01*
X12450000Y-5140000D02*
X12490000Y-5180000D01*
X12490000Y-5140000D02*
X12450000Y-5180000D01*
X12450000Y-7640000D02*
X12490000Y-7680000D01*
X12490000Y-7640000D02*
X12450000Y-7680000D01*
X12450000Y-8890000D02*
X12490000Y-8930000D01*
X12490000Y-8890000D02*
X12450000Y-8930000D01*
X12450000Y-10130000D02*
X12490000Y-10170000D01*
X12490000Y-10130000D02*
X12450000Y-10170000D01*
X12450000Y-11390000D02*
X12490000Y-11430000D01*
X12490000Y-11390000D02*
X12450000Y-11430000D01*
X12510000Y-3670000D02*
X12550000Y-3710000D01*
X12550000Y-3670000D02*
X12510000Y-3710000D01*
X12530000Y-6307000D02*
X12570000Y-6347000D01*
X12570000Y-6307000D02*
X12530000Y-6347000D01*
X12531000Y-6835000D02*
X12571000Y-6875000D01*
X12571000Y-6835000D02*
X12531000Y-6875000D01*
X12532000Y-11303000D02*
X12572000Y-11343000D01*
X12572000Y-11303000D02*
X12532000Y-11343000D01*
X12540000Y-4360000D02*
X12580000Y-4400000D01*
X12580000Y-4360000D02*
X12540000Y-4400000D01*
X12540000Y-5610000D02*
X12580000Y-5650000D01*
X12580000Y-5610000D02*
X12540000Y-5650000D01*
X12540000Y-8110000D02*
X12580000Y-8150000D01*
X12580000Y-8110000D02*
X12540000Y-8150000D01*
X12540000Y-9360000D02*
X12580000Y-9400000D01*
X12580000Y-9360000D02*
X12540000Y-9400000D01*
X12540000Y-10610000D02*
X12580000Y-10650000D01*
X12580000Y-10610000D02*
X12540000Y-10650000D01*
X12540000Y-11860000D02*
X12580000Y-11900000D01*
X12580000Y-11860000D02*
X12540000Y-11900000D01*
X12546000Y-10074000D02*
X12586000Y-10114000D01*
X12586000Y-10074000D02*
X12546000Y-10114000D01*
X12549994Y-5141111D02*
X12589994Y-5181111D01*
X12589994Y-5141111D02*
X12549994Y-5181111D01*
X12580000Y-3890000D02*
X12620000Y-3930000D01*
X12620000Y-3890000D02*
X12580000Y-3930000D01*
X12580000Y-8890000D02*
X12620000Y-8930000D01*
X12620000Y-8890000D02*
X12580000Y-8930000D01*
X12600000Y-6385000D02*
X12640000Y-6425000D01*
X12640000Y-6385000D02*
X12600000Y-6425000D01*
X12600000Y-7633000D02*
X12640000Y-7673000D01*
X12640000Y-7633000D02*
X12600000Y-7673000D01*
X12600000Y-8740000D02*
X12640000Y-8780000D01*
X12640000Y-8740000D02*
X12600000Y-8780000D01*
X12618000Y-11366000D02*
X12658000Y-11406000D01*
X12658000Y-11366000D02*
X12618000Y-11406000D01*
X12641000Y-5065000D02*
X12681000Y-5105000D01*
X12681000Y-5065000D02*
X12641000Y-5105000D01*
X12654000Y-10091000D02*
X12694000Y-10131000D01*
X12694000Y-10091000D02*
X12654000Y-10131000D01*
X12690000Y-4230000D02*
X12730000Y-4270000D01*
X12730000Y-4230000D02*
X12690000Y-4270000D01*
X12690000Y-5480000D02*
X12730000Y-5520000D01*
X12730000Y-5480000D02*
X12690000Y-5520000D01*
X12690000Y-7980000D02*
X12730000Y-8020000D01*
X12730000Y-7980000D02*
X12690000Y-8020000D01*
X12690000Y-9230000D02*
X12730000Y-9270000D01*
X12730000Y-9230000D02*
X12690000Y-9270000D01*
X12690000Y-10480000D02*
X12730000Y-10520000D01*
X12730000Y-10480000D02*
X12690000Y-10520000D01*
X12690000Y-11180000D02*
X12730000Y-11220000D01*
X12730000Y-11180000D02*
X12690000Y-11220000D01*
X12690000Y-11730000D02*
X12730000Y-11770000D01*
X12730000Y-11730000D02*
X12690000Y-11770000D01*
X12704000Y-7598000D02*
X12744000Y-7638000D01*
X12744000Y-7598000D02*
X12704000Y-7638000D01*
X12710000Y-4940000D02*
X12750000Y-4980000D01*
X12750000Y-4940000D02*
X12710000Y-4980000D01*
X12710000Y-6220000D02*
X12750000Y-6260000D01*
X12750000Y-6220000D02*
X12710000Y-6260000D01*
X12719000Y-6685000D02*
X12759000Y-6725000D01*
X12759000Y-6685000D02*
X12719000Y-6725000D01*
X12720000Y-3280000D02*
X12760000Y-3320000D01*
X12760000Y-3280000D02*
X12720000Y-3320000D01*
X12720000Y-4530000D02*
X12760000Y-4570000D01*
X12760000Y-4530000D02*
X12720000Y-4570000D01*
X12720000Y-5780000D02*
X12760000Y-5820000D01*
X12760000Y-5780000D02*
X12720000Y-5820000D01*
X12720000Y-7030000D02*
X12760000Y-7070000D01*
X12760000Y-7030000D02*
X12720000Y-7070000D01*
X12720000Y-8280000D02*
X12760000Y-8320000D01*
X12760000Y-8280000D02*
X12720000Y-8320000D01*
X12720000Y-9530000D02*
X12760000Y-9570000D01*
X12760000Y-9530000D02*
X12720000Y-9570000D01*
X12720000Y-9950000D02*
X12760000Y-9990000D01*
X12760000Y-9950000D02*
X12720000Y-9990000D01*
X12720000Y-10780000D02*
X12760000Y-10820000D01*
X12760000Y-10780000D02*
X12720000Y-10820000D01*
X12740000Y-7460000D02*
X12780000Y-7500000D01*
X12780000Y-7460000D02*
X12740000Y-7500000D01*
X12955000Y-3455000D02*
X12995000Y-3495000D01*
X12995000Y-3455000D02*
X12955000Y-3495000D01*
X12955000Y-4705000D02*
X12995000Y-4745000D01*
X12995000Y-4705000D02*
X12955000Y-4745000D01*
X12955000Y-5980000D02*
X12995000Y-6020000D01*
X12995000Y-5980000D02*
X12955000Y-6020000D01*
X12960000Y-7220000D02*
X13000000Y-7260000D01*
X13000000Y-7220000D02*
X12960000Y-7260000D01*
X12960000Y-8460000D02*
X13000000Y-8500000D01*
X13000000Y-8460000D02*
X12960000Y-8500000D01*
X12960000Y-9720000D02*
X13000000Y-9760000D01*
X13000000Y-9720000D02*
X12960000Y-9760000D01*
X12960000Y-10960000D02*
X13000000Y-11000000D01*
X13000000Y-10960000D02*
X12960000Y-11000000D01*
X13055000Y-3180000D02*
X13095000Y-3220000D01*
X13095000Y-3180000D02*
X13055000Y-3220000D01*
X13080000Y-6930000D02*
X13120000Y-6970000D01*
X13120000Y-6930000D02*
X13080000Y-6970000D01*
X13105000Y-4405000D02*
X13145000Y-4445000D01*
X13145000Y-4405000D02*
X13105000Y-4445000D01*
X13130000Y-3680000D02*
X13170000Y-3720000D01*
X13170000Y-3680000D02*
X13130000Y-3720000D01*
X13155000Y-4855000D02*
X13195000Y-4895000D01*
X13195000Y-4855000D02*
X13155000Y-4895000D01*
X13155000Y-6105000D02*
X13195000Y-6145000D01*
X13195000Y-6105000D02*
X13155000Y-6145000D01*
X13230000Y-3605000D02*
X13270000Y-3645000D01*
X13270000Y-3605000D02*
X13230000Y-3645000D01*
X13230000Y-3730000D02*
X13270000Y-3770000D01*
X13270000Y-3730000D02*
X13230000Y-3770000D01*
X13230000Y-4980000D02*
X13270000Y-5020000D01*
X13270000Y-4980000D02*
X13230000Y-5020000D01*
X13230000Y-7355000D02*
X13270000Y-7395000D01*
X13270000Y-7355000D02*
X13230000Y-7395000D01*
X13230000Y-7480000D02*
X13270000Y-7520000D01*
X13270000Y-7480000D02*
X13230000Y-7520000D01*
X13230000Y-8605000D02*
X13270000Y-8645000D01*
X13270000Y-8605000D02*
X13230000Y-8645000D01*
X13230000Y-8730000D02*
X13270000Y-8770000D01*
X13270000Y-8730000D02*
X13230000Y-8770000D01*
X13230000Y-9855000D02*
X13270000Y-9895000D01*
X13270000Y-9855000D02*
X13230000Y-9895000D01*
X13230000Y-11105000D02*
X13270000Y-11145000D01*
X13270000Y-11105000D02*
X13230000Y-11145000D01*
X13230000Y-11230000D02*
X13270000Y-11270000D01*
X13270000Y-11230000D02*
X13230000Y-11270000D01*
X13400000Y-2700000D02*
X13440000Y-2740000D01*
X13440000Y-2700000D02*
X13400000Y-2740000D01*
X13400000Y-3960000D02*
X13440000Y-4000000D01*
X13440000Y-3960000D02*
X13400000Y-4000000D01*
X13400000Y-5200000D02*
X13440000Y-5240000D01*
X13440000Y-5200000D02*
X13400000Y-5240000D01*
X13400000Y-6440000D02*
X13440000Y-6480000D01*
X13440000Y-6440000D02*
X13400000Y-6480000D01*
X13400000Y-8940000D02*
X13440000Y-8980000D01*
X13440000Y-8940000D02*
X13400000Y-8980000D01*
X13400000Y-10200000D02*
X13440000Y-10240000D01*
X13440000Y-10200000D02*
X13400000Y-10240000D01*
X13400000Y-11440000D02*
X13440000Y-11480000D01*
X13440000Y-11440000D02*
X13400000Y-11480000D01*
X13401000Y-7706000D02*
X13441000Y-7746000D01*
X13441000Y-7706000D02*
X13401000Y-7746000D01*
X13480000Y-2555000D02*
X13520000Y-2595000D01*
X13520000Y-2555000D02*
X13480000Y-2595000D01*
X13630000Y-3805000D02*
X13670000Y-3845000D01*
X13670000Y-3805000D02*
X13630000Y-3845000D01*
X13630000Y-5055000D02*
X13670000Y-5095000D01*
X13670000Y-5055000D02*
X13630000Y-5095000D01*
X13630000Y-6305000D02*
X13670000Y-6345000D01*
X13670000Y-6305000D02*
X13630000Y-6345000D01*
X13630000Y-7555000D02*
X13670000Y-7595000D01*
X13670000Y-7555000D02*
X13630000Y-7595000D01*
X13630000Y-8805000D02*
X13670000Y-8845000D01*
X13670000Y-8805000D02*
X13630000Y-8845000D01*
X13630000Y-10055000D02*
X13670000Y-10095000D01*
X13670000Y-10055000D02*
X13630000Y-10095000D01*
X13630000Y-11305000D02*
X13670000Y-11345000D01*
X13670000Y-11305000D02*
X13630000Y-11345000D01*
X13680000Y-3730000D02*
X13720000Y-3770000D01*
X13720000Y-3730000D02*
X13680000Y-3770000D01*
X13680000Y-4980000D02*
X13720000Y-5020000D01*
X13720000Y-4980000D02*
X13680000Y-5020000D01*
X13680000Y-6230000D02*
X13720000Y-6270000D01*
X13720000Y-6230000D02*
X13680000Y-6270000D01*
X13680000Y-7480000D02*
X13720000Y-7520000D01*
X13720000Y-7480000D02*
X13680000Y-7520000D01*
X13680000Y-8730000D02*
X13720000Y-8770000D01*
X13720000Y-8730000D02*
X13680000Y-8770000D01*
X13680000Y-9980000D02*
X13720000Y-10020000D01*
X13720000Y-9980000D02*
X13680000Y-10020000D01*
X13680000Y-11230000D02*
X13720000Y-11270000D01*
X13720000Y-11230000D02*
X13680000Y-11270000D01*
X13730000Y-2555000D02*
X13770000Y-2595000D01*
X13770000Y-2555000D02*
X13730000Y-2595000D01*
X13730000Y-3805000D02*
X13770000Y-3845000D01*
X13770000Y-3805000D02*
X13730000Y-3845000D01*
X13730000Y-5055000D02*
X13770000Y-5095000D01*
X13770000Y-5055000D02*
X13730000Y-5095000D01*
X13730000Y-6305000D02*
X13770000Y-6345000D01*
X13770000Y-6305000D02*
X13730000Y-6345000D01*
X13730000Y-7555000D02*
X13770000Y-7595000D01*
X13770000Y-7555000D02*
X13730000Y-7595000D01*
X13730000Y-8805000D02*
X13770000Y-8845000D01*
X13770000Y-8805000D02*
X13730000Y-8845000D01*
X13730000Y-10055000D02*
X13770000Y-10095000D01*
X13770000Y-10055000D02*
X13730000Y-10095000D01*
X13730000Y-11305000D02*
X13770000Y-11345000D01*
X13770000Y-11305000D02*
X13730000Y-11345000D01*
X13800000Y-2705000D02*
X13840000Y-2745000D01*
X13840000Y-2705000D02*
X13800000Y-2745000D01*
X13800000Y-3955000D02*
X13840000Y-3995000D01*
X13840000Y-3955000D02*
X13800000Y-3995000D01*
X13800000Y-5205000D02*
X13840000Y-5245000D01*
X13840000Y-5205000D02*
X13800000Y-5245000D01*
X13800000Y-6455000D02*
X13840000Y-6495000D01*
X13840000Y-6455000D02*
X13800000Y-6495000D01*
X13800000Y-7705000D02*
X13840000Y-7745000D01*
X13840000Y-7705000D02*
X13800000Y-7745000D01*
X13800000Y-8955000D02*
X13840000Y-8995000D01*
X13840000Y-8955000D02*
X13800000Y-8995000D01*
X13800000Y-10205000D02*
X13840000Y-10245000D01*
X13840000Y-10205000D02*
X13800000Y-10245000D01*
X13800000Y-11455000D02*
X13840000Y-11495000D01*
X13840000Y-11455000D02*
X13800000Y-11495000D01*
X13955000Y-2555000D02*
X13995000Y-2595000D01*
X13995000Y-2555000D02*
X13955000Y-2595000D01*
X14080000Y-3180000D02*
X14120000Y-3220000D01*
X14120000Y-3180000D02*
X14080000Y-3220000D01*
X14080000Y-4430000D02*
X14120000Y-4470000D01*
X14120000Y-4430000D02*
X14080000Y-4470000D01*
X14080000Y-8180000D02*
X14120000Y-8220000D01*
X14120000Y-8180000D02*
X14080000Y-8220000D01*
X14080000Y-9430000D02*
X14120000Y-9470000D01*
X14120000Y-9430000D02*
X14080000Y-9470000D01*
X14080000Y-10680000D02*
X14120000Y-10720000D01*
X14120000Y-10680000D02*
X14080000Y-10720000D01*
X14105000Y-5680000D02*
X14145000Y-5720000D01*
X14145000Y-5680000D02*
X14105000Y-5720000D01*
X14105000Y-6955000D02*
X14145000Y-6995000D01*
X14145000Y-6955000D02*
X14105000Y-6995000D01*
X14120000Y-11950000D02*
X14160000Y-11990000D01*
X14160000Y-11950000D02*
X14120000Y-11990000D01*
X14255000Y-2555000D02*
X14295000Y-2595000D01*
X14295000Y-2555000D02*
X14255000Y-2595000D01*
X14410000Y-2700000D02*
X14450000Y-2740000D01*
X14450000Y-2700000D02*
X14410000Y-2740000D01*
X14410000Y-3950000D02*
X14450000Y-3990000D01*
X14450000Y-3950000D02*
X14410000Y-3990000D01*
X14410000Y-5200000D02*
X14450000Y-5240000D01*
X14450000Y-5200000D02*
X14410000Y-5240000D01*
X14410000Y-6450000D02*
X14450000Y-6490000D01*
X14450000Y-6450000D02*
X14410000Y-6490000D01*
X14410000Y-7700000D02*
X14450000Y-7740000D01*
X14450000Y-7700000D02*
X14410000Y-7740000D01*
X14410000Y-8950000D02*
X14450000Y-8990000D01*
X14450000Y-8950000D02*
X14410000Y-8990000D01*
X14410000Y-10200000D02*
X14450000Y-10240000D01*
X14450000Y-10200000D02*
X14410000Y-10240000D01*
X14410000Y-11450000D02*
X14450000Y-11490000D01*
X14450000Y-11450000D02*
X14410000Y-11490000D01*
X14480000Y-12380000D02*
X14520000Y-12420000D01*
X14520000Y-12380000D02*
X14480000Y-12420000D01*
X14509229Y-6226225D02*
X14549229Y-6266225D01*
X14549229Y-6226225D02*
X14509229Y-6266225D01*
X14510131Y-4973377D02*
X14550131Y-5013377D01*
X14550131Y-4973377D02*
X14510131Y-5013377D01*
X14510131Y-7473377D02*
X14550131Y-7513377D01*
X14550131Y-7473377D02*
X14510131Y-7513377D01*
X14510131Y-8723377D02*
X14550131Y-8763377D01*
X14550131Y-8723377D02*
X14510131Y-8763377D01*
X14510131Y-9973377D02*
X14550131Y-10013377D01*
X14550131Y-9973377D02*
X14510131Y-10013377D01*
X14510131Y-11223377D02*
X14550131Y-11263377D01*
X14550131Y-11223377D02*
X14510131Y-11263377D01*
X14530000Y-3705000D02*
X14570000Y-3745000D01*
X14570000Y-3705000D02*
X14530000Y-3745000D01*
X14530000Y-6455000D02*
X14570000Y-6495000D01*
X14570000Y-6455000D02*
X14530000Y-6495000D01*
X14540000Y-2700000D02*
X14580000Y-2740000D01*
X14580000Y-2700000D02*
X14540000Y-2740000D01*
X14540000Y-5210000D02*
X14580000Y-5250000D01*
X14580000Y-5210000D02*
X14540000Y-5250000D01*
X14540000Y-7705000D02*
X14580000Y-7745000D01*
X14580000Y-7705000D02*
X14540000Y-7745000D01*
X14540000Y-8955000D02*
X14580000Y-8995000D01*
X14580000Y-8955000D02*
X14540000Y-8995000D01*
X14540000Y-11460000D02*
X14580000Y-11500000D01*
X14580000Y-11460000D02*
X14540000Y-11500000D01*
X14555000Y-3955000D02*
X14595000Y-3995000D01*
X14595000Y-3955000D02*
X14555000Y-3995000D01*
X14555000Y-10205000D02*
X14595000Y-10245000D01*
X14595000Y-10205000D02*
X14555000Y-10245000D01*
X14660000Y-5205000D02*
X14700000Y-5245000D01*
X14700000Y-5205000D02*
X14660000Y-5245000D01*
X14660000Y-6460000D02*
X14700000Y-6500000D01*
X14700000Y-6460000D02*
X14660000Y-6500000D01*
X14660000Y-7705000D02*
X14700000Y-7745000D01*
X14700000Y-7705000D02*
X14660000Y-7745000D01*
X14660000Y-8955000D02*
X14700000Y-8995000D01*
X14700000Y-8955000D02*
X14660000Y-8995000D01*
X14670000Y-2700000D02*
X14710000Y-2740000D01*
X14710000Y-2700000D02*
X14670000Y-2740000D01*
X14670000Y-3960000D02*
X14710000Y-4000000D01*
X14710000Y-3960000D02*
X14670000Y-4000000D01*
X14670000Y-11460000D02*
X14710000Y-11500000D01*
X14710000Y-11460000D02*
X14670000Y-11500000D01*
X14680000Y-8755000D02*
X14720000Y-8795000D01*
X14720000Y-8755000D02*
X14680000Y-8795000D01*
X14680000Y-10205000D02*
X14720000Y-10245000D01*
X14720000Y-10205000D02*
X14680000Y-10245000D01*
X14730000Y-3755000D02*
X14770000Y-3795000D01*
X14770000Y-3755000D02*
X14730000Y-3795000D01*
X14730000Y-5005000D02*
X14770000Y-5045000D01*
X14770000Y-5005000D02*
X14730000Y-5045000D01*
X14730000Y-6255000D02*
X14770000Y-6295000D01*
X14770000Y-6255000D02*
X14730000Y-6295000D01*
X14730000Y-7505000D02*
X14770000Y-7545000D01*
X14770000Y-7505000D02*
X14730000Y-7545000D01*
X14730000Y-10005000D02*
X14770000Y-10045000D01*
X14770000Y-10005000D02*
X14730000Y-10045000D01*
X14730000Y-11255000D02*
X14770000Y-11295000D01*
X14770000Y-11255000D02*
X14730000Y-11295000D01*
X14790000Y-2700000D02*
X14830000Y-2740000D01*
X14830000Y-2700000D02*
X14790000Y-2740000D01*
X14790000Y-3960000D02*
X14830000Y-4000000D01*
X14830000Y-3960000D02*
X14790000Y-4000000D01*
X14790000Y-5210000D02*
X14830000Y-5250000D01*
X14830000Y-5210000D02*
X14790000Y-5250000D01*
X14790000Y-6455000D02*
X14830000Y-6495000D01*
X14830000Y-6455000D02*
X14790000Y-6495000D01*
X14790000Y-7700000D02*
X14830000Y-7740000D01*
X14830000Y-7700000D02*
X14790000Y-7740000D01*
X14790000Y-8955000D02*
X14830000Y-8995000D01*
X14830000Y-8955000D02*
X14790000Y-8995000D01*
X14790000Y-11460000D02*
X14830000Y-11500000D01*
X14830000Y-11460000D02*
X14790000Y-11500000D01*
X14800000Y-10200000D02*
X14840000Y-10240000D01*
X14840000Y-10200000D02*
X14800000Y-10240000D01*
X14830000Y-3630000D02*
X14870000Y-3670000D01*
X14870000Y-3630000D02*
X14830000Y-3670000D01*
X14830000Y-4880000D02*
X14870000Y-4920000D01*
X14870000Y-4880000D02*
X14830000Y-4920000D01*
X14830000Y-7380000D02*
X14870000Y-7420000D01*
X14870000Y-7380000D02*
X14830000Y-7420000D01*
X14830000Y-8630000D02*
X14870000Y-8670000D01*
X14870000Y-8630000D02*
X14830000Y-8670000D01*
X14830000Y-9880000D02*
X14870000Y-9920000D01*
X14870000Y-9880000D02*
X14830000Y-9920000D01*
X14830000Y-11130000D02*
X14870000Y-11170000D01*
X14870000Y-11130000D02*
X14830000Y-11170000D01*
X14880000Y-12380000D02*
X14920000Y-12420000D01*
X14920000Y-12380000D02*
X14880000Y-12420000D01*
X14930000Y-4105000D02*
X14970000Y-4145000D01*
X14970000Y-4105000D02*
X14930000Y-4145000D01*
X14930000Y-5255000D02*
X14970000Y-5295000D01*
X14970000Y-5255000D02*
X14930000Y-5295000D01*
X14930000Y-6505000D02*
X14970000Y-6545000D01*
X14970000Y-6505000D02*
X14930000Y-6545000D01*
X14930000Y-7755000D02*
X14970000Y-7795000D01*
X14970000Y-7755000D02*
X14930000Y-7795000D01*
X14930000Y-7955000D02*
X14970000Y-7995000D01*
X14970000Y-7955000D02*
X14930000Y-7995000D01*
X14930000Y-9005000D02*
X14970000Y-9045000D01*
X14970000Y-9005000D02*
X14930000Y-9045000D01*
X14930000Y-9205000D02*
X14970000Y-9245000D01*
X14970000Y-9205000D02*
X14930000Y-9245000D01*
X14930000Y-10455000D02*
X14970000Y-10495000D01*
X14970000Y-10455000D02*
X14930000Y-10495000D01*
X14930000Y-11605000D02*
X14970000Y-11645000D01*
X14970000Y-11605000D02*
X14930000Y-11645000D01*
X14940000Y-2900000D02*
X14980000Y-2940000D01*
X14980000Y-2900000D02*
X14940000Y-2940000D01*
X14990000Y-12380000D02*
X15030000Y-12420000D01*
X15030000Y-12380000D02*
X14990000Y-12420000D01*
X15030000Y-4205000D02*
X15070000Y-4245000D01*
X15070000Y-4205000D02*
X15030000Y-4245000D01*
X15030000Y-4880000D02*
X15070000Y-4920000D01*
X15070000Y-4880000D02*
X15030000Y-4920000D01*
X15030000Y-6130000D02*
X15070000Y-6170000D01*
X15070000Y-6130000D02*
X15030000Y-6170000D01*
X15030000Y-6705000D02*
X15070000Y-6745000D01*
X15070000Y-6705000D02*
X15030000Y-6745000D01*
X15030000Y-7380000D02*
X15070000Y-7420000D01*
X15070000Y-7380000D02*
X15030000Y-7420000D01*
X15030000Y-8630000D02*
X15070000Y-8670000D01*
X15070000Y-8630000D02*
X15030000Y-8670000D01*
X15030000Y-11130000D02*
X15070000Y-11170000D01*
X15070000Y-11130000D02*
X15030000Y-11170000D01*
X15055000Y-3830000D02*
X15095000Y-3870000D01*
X15095000Y-3830000D02*
X15055000Y-3870000D01*
X15105000Y-9955000D02*
X15145000Y-9995000D01*
X15145000Y-9955000D02*
X15105000Y-9995000D01*
X15130000Y-3630000D02*
X15170000Y-3670000D01*
X15170000Y-3630000D02*
X15130000Y-3670000D01*
X15130000Y-5455000D02*
X15170000Y-5495000D01*
X15170000Y-5455000D02*
X15130000Y-5495000D01*
X15130000Y-7955000D02*
X15170000Y-7995000D01*
X15170000Y-7955000D02*
X15130000Y-7995000D01*
X15130000Y-9205000D02*
X15170000Y-9245000D01*
X15170000Y-9205000D02*
X15130000Y-9245000D01*
X15220000Y-12380000D02*
X15260000Y-12420000D01*
X15260000Y-12380000D02*
X15220000Y-12420000D01*
X15230000Y-3880000D02*
X15270000Y-3920000D01*
X15270000Y-3880000D02*
X15230000Y-3920000D01*
X15230000Y-4205000D02*
X15270000Y-4245000D01*
X15270000Y-4205000D02*
X15230000Y-4245000D01*
X15230000Y-5180000D02*
X15270000Y-5220000D01*
X15270000Y-5180000D02*
X15230000Y-5220000D01*
X15230000Y-7380000D02*
X15270000Y-7420000D01*
X15270000Y-7380000D02*
X15230000Y-7420000D01*
X15230000Y-8630000D02*
X15270000Y-8670000D01*
X15270000Y-8630000D02*
X15230000Y-8670000D01*
X15230000Y-10230000D02*
X15270000Y-10270000D01*
X15270000Y-10230000D02*
X15230000Y-10270000D01*
X15230000Y-11130000D02*
X15270000Y-11170000D01*
X15270000Y-11130000D02*
X15230000Y-11170000D01*
X15230000Y-11705000D02*
X15270000Y-11745000D01*
X15270000Y-11705000D02*
X15230000Y-11745000D01*
X15330000Y-2955000D02*
X15370000Y-2995000D01*
X15370000Y-2955000D02*
X15330000Y-2995000D01*
X15330000Y-4880000D02*
X15370000Y-4920000D01*
X15370000Y-4880000D02*
X15330000Y-4920000D01*
X15330000Y-6130000D02*
X15370000Y-6170000D01*
X15370000Y-6130000D02*
X15330000Y-6170000D01*
X15330000Y-6705000D02*
X15370000Y-6745000D01*
X15370000Y-6705000D02*
X15330000Y-6745000D01*
X15330000Y-7955000D02*
X15370000Y-7995000D01*
X15370000Y-7955000D02*
X15330000Y-7995000D01*
X15330000Y-9205000D02*
X15370000Y-9245000D01*
X15370000Y-9205000D02*
X15330000Y-9245000D01*
X15380000Y-6380000D02*
X15420000Y-6420000D01*
X15420000Y-6380000D02*
X15380000Y-6420000D01*
X15405000Y-11505000D02*
X15445000Y-11545000D01*
X15445000Y-11505000D02*
X15405000Y-11545000D01*
X15430000Y-3630000D02*
X15470000Y-3670000D01*
X15470000Y-3630000D02*
X15430000Y-3670000D01*
X15430000Y-3855000D02*
X15470000Y-3895000D01*
X15470000Y-3855000D02*
X15430000Y-3895000D01*
X15430000Y-4205000D02*
X15470000Y-4245000D01*
X15470000Y-4205000D02*
X15430000Y-4245000D01*
X15430000Y-7280000D02*
X15470000Y-7320000D01*
X15470000Y-7280000D02*
X15430000Y-7320000D01*
X15430000Y-8055000D02*
X15470000Y-8095000D01*
X15470000Y-8055000D02*
X15430000Y-8095000D01*
X15430000Y-9780000D02*
X15470000Y-9820000D01*
X15470000Y-9780000D02*
X15430000Y-9820000D01*
X15430000Y-11130000D02*
X15470000Y-11170000D01*
X15470000Y-11130000D02*
X15430000Y-11170000D01*
X15455000Y-5080000D02*
X15495000Y-5120000D01*
X15495000Y-5080000D02*
X15455000Y-5120000D01*
X15480000Y-5480000D02*
X15520000Y-5520000D01*
X15520000Y-5480000D02*
X15480000Y-5520000D01*
X15480000Y-5655000D02*
X15520000Y-5695000D01*
X15520000Y-5655000D02*
X15480000Y-5695000D01*
X15480000Y-10105000D02*
X15520000Y-10145000D01*
X15520000Y-10105000D02*
X15480000Y-10145000D01*
X15505000Y-3155000D02*
X15545000Y-3195000D01*
X15545000Y-3155000D02*
X15505000Y-3195000D01*
X15505000Y-10580000D02*
X15545000Y-10620000D01*
X15545000Y-10580000D02*
X15505000Y-10620000D01*
X15530000Y-11230000D02*
X15570000Y-11270000D01*
X15570000Y-11230000D02*
X15530000Y-11270000D01*
X15555000Y-7555000D02*
X15595000Y-7595000D01*
X15595000Y-7555000D02*
X15555000Y-7595000D01*
X15555000Y-7730000D02*
X15595000Y-7770000D01*
X15595000Y-7730000D02*
X15555000Y-7770000D01*
X15580000Y-6730000D02*
X15620000Y-6770000D01*
X15620000Y-6730000D02*
X15580000Y-6770000D01*
X15605000Y-4530000D02*
X15645000Y-4570000D01*
X15645000Y-4530000D02*
X15605000Y-4570000D01*
X15620000Y-12360000D02*
X15660000Y-12400000D01*
X15660000Y-12360000D02*
X15620000Y-12400000D01*
X15655000Y-3855000D02*
X15695000Y-3895000D01*
X15695000Y-3855000D02*
X15655000Y-3895000D01*
X15680000Y-4230000D02*
X15720000Y-4270000D01*
X15720000Y-4230000D02*
X15680000Y-4270000D01*
X15730000Y-11005000D02*
X15770000Y-11045000D01*
X15770000Y-11005000D02*
X15730000Y-11045000D01*
X15830000Y-4480000D02*
X15870000Y-4520000D01*
X15870000Y-4480000D02*
X15830000Y-4520000D01*
X15855000Y-10805000D02*
X15895000Y-10845000D01*
X15895000Y-10805000D02*
X15855000Y-10845000D01*
X15880000Y-4780000D02*
X15920000Y-4820000D01*
X15920000Y-4780000D02*
X15880000Y-4820000D01*
X15880000Y-5130000D02*
X15920000Y-5170000D01*
X15920000Y-5130000D02*
X15880000Y-5170000D01*
X15880000Y-5405000D02*
X15920000Y-5445000D01*
X15920000Y-5405000D02*
X15880000Y-5445000D01*
X15905000Y-9805000D02*
X15945000Y-9845000D01*
X15945000Y-9805000D02*
X15905000Y-9845000D01*
X15905000Y-10130000D02*
X15945000Y-10170000D01*
X15945000Y-10130000D02*
X15905000Y-10170000D01*
X15905000Y-10455000D02*
X15945000Y-10495000D01*
X15945000Y-10455000D02*
X15905000Y-10495000D01*
X16155000Y-3605000D02*
X16195000Y-3645000D01*
X16195000Y-3605000D02*
X16155000Y-3645000D01*
X16205000Y-3930000D02*
X16245000Y-3970000D01*
X16245000Y-3930000D02*
X16205000Y-3970000D01*
X16280000Y-11330000D02*
X16320000Y-11370000D01*
X16320000Y-11330000D02*
X16280000Y-11370000D01*
X16305000Y-4205000D02*
X16345000Y-4245000D01*
X16345000Y-4205000D02*
X16305000Y-4245000D01*
X16305000Y-4880000D02*
X16345000Y-4920000D01*
X16345000Y-4880000D02*
X16305000Y-4920000D01*
X16330000Y-4580000D02*
X16370000Y-4620000D01*
X16370000Y-4580000D02*
X16330000Y-4620000D01*
X16330000Y-5205000D02*
X16370000Y-5245000D01*
X16370000Y-5205000D02*
X16330000Y-5245000D01*
X16330000Y-9605000D02*
X16370000Y-9645000D01*
X16370000Y-9605000D02*
X16330000Y-9645000D01*
X16330000Y-10055000D02*
X16370000Y-10095000D01*
X16370000Y-10055000D02*
X16330000Y-10095000D01*
X16330000Y-10480000D02*
X16370000Y-10520000D01*
X16370000Y-10480000D02*
X16330000Y-10520000D01*
X16330000Y-11005000D02*
X16370000Y-11045000D01*
X16370000Y-11005000D02*
X16330000Y-11045000D01*
X6785000Y-3000000D02*
G75*
G03*
X6735000Y-3000000I-25000J0D01*
G01*
X6735000Y-3000000D02*
G75*
G03*
X6785000Y-3000000I25000J0D01*
G01*
X6785000Y-12000000D02*
G75*
G03*
X6735000Y-12000000I-25000J0D01*
G01*
X6735000Y-12000000D02*
G75*
G03*
X6785000Y-12000000I25000J0D01*
G01*
X6855294Y-2830294D02*
G75*
G03*
X6805294Y-2830294I-25000J0D01*
G01*
X6805294Y-2830294D02*
G75*
G03*
X6855294Y-2830294I25000J0D01*
G01*
X6855294Y-3169706D02*
G75*
G03*
X6805294Y-3169706I-25000J0D01*
G01*
X6805294Y-3169706D02*
G75*
G03*
X6855294Y-3169706I25000J0D01*
G01*
X6855294Y-11830294D02*
G75*
G03*
X6805294Y-11830294I-25000J0D01*
G01*
X6805294Y-11830294D02*
G75*
G03*
X6855294Y-11830294I25000J0D01*
G01*
X6855294Y-12169706D02*
G75*
G03*
X6805294Y-12169706I-25000J0D01*
G01*
X6805294Y-12169706D02*
G75*
G03*
X6855294Y-12169706I25000J0D01*
G01*
X7025000Y-2760000D02*
G75*
G03*
X6975000Y-2760000I-25000J0D01*
G01*
X6975000Y-2760000D02*
G75*
G03*
X7025000Y-2760000I25000J0D01*
G01*
X7025000Y-3240000D02*
G75*
G03*
X6975000Y-3240000I-25000J0D01*
G01*
X6975000Y-3240000D02*
G75*
G03*
X7025000Y-3240000I25000J0D01*
G01*
X7025000Y-11760000D02*
G75*
G03*
X6975000Y-11760000I-25000J0D01*
G01*
X6975000Y-11760000D02*
G75*
G03*
X7025000Y-11760000I25000J0D01*
G01*
X7025000Y-12240000D02*
G75*
G03*
X6975000Y-12240000I-25000J0D01*
G01*
X6975000Y-12240000D02*
G75*
G03*
X7025000Y-12240000I25000J0D01*
G01*
X7194706Y-2830294D02*
G75*
G03*
X7144706Y-2830294I-25000J0D01*
G01*
X7144706Y-2830294D02*
G75*
G03*
X7194706Y-2830294I25000J0D01*
G01*
X7194706Y-3169706D02*
G75*
G03*
X7144706Y-3169706I-25000J0D01*
G01*
X7144706Y-3169706D02*
G75*
G03*
X7194706Y-3169706I25000J0D01*
G01*
X7194706Y-11830294D02*
G75*
G03*
X7144706Y-11830294I-25000J0D01*
G01*
X7144706Y-11830294D02*
G75*
G03*
X7194706Y-11830294I25000J0D01*
G01*
X7194706Y-12169706D02*
G75*
G03*
X7144706Y-12169706I-25000J0D01*
G01*
X7144706Y-12169706D02*
G75*
G03*
X7194706Y-12169706I25000J0D01*
G01*
X7265000Y-3000000D02*
G75*
G03*
X7215000Y-3000000I-25000J0D01*
G01*
X7215000Y-3000000D02*
G75*
G03*
X7265000Y-3000000I25000J0D01*
G01*
X7265000Y-12000000D02*
G75*
G03*
X7215000Y-12000000I-25000J0D01*
G01*
X7215000Y-12000000D02*
G75*
G03*
X7265000Y-12000000I25000J0D01*
G01*
X9885000Y-3000000D02*
G75*
G03*
X9835000Y-3000000I-25000J0D01*
G01*
X9835000Y-3000000D02*
G75*
G03*
X9885000Y-3000000I25000J0D01*
G01*
X9885000Y-12000000D02*
G75*
G03*
X9835000Y-12000000I-25000J0D01*
G01*
X9835000Y-12000000D02*
G75*
G03*
X9885000Y-12000000I25000J0D01*
G01*
X9955294Y-2830294D02*
G75*
G03*
X9905294Y-2830294I-25000J0D01*
G01*
X9905294Y-2830294D02*
G75*
G03*
X9955294Y-2830294I25000J0D01*
G01*
X9955294Y-3169706D02*
G75*
G03*
X9905294Y-3169706I-25000J0D01*
G01*
X9905294Y-3169706D02*
G75*
G03*
X9955294Y-3169706I25000J0D01*
G01*
X9955294Y-11830294D02*
G75*
G03*
X9905294Y-11830294I-25000J0D01*
G01*
X9905294Y-11830294D02*
G75*
G03*
X9955294Y-11830294I25000J0D01*
G01*
X9955294Y-12169706D02*
G75*
G03*
X9905294Y-12169706I-25000J0D01*
G01*
X9905294Y-12169706D02*
G75*
G03*
X9955294Y-12169706I25000J0D01*
G01*
X10125000Y-2760000D02*
G75*
G03*
X10075000Y-2760000I-25000J0D01*
G01*
X10075000Y-2760000D02*
G75*
G03*
X10125000Y-2760000I25000J0D01*
G01*
X10125000Y-3240000D02*
G75*
G03*
X10075000Y-3240000I-25000J0D01*
G01*
X10075000Y-3240000D02*
G75*
G03*
X10125000Y-3240000I25000J0D01*
G01*
X10125000Y-11760000D02*
G75*
G03*
X10075000Y-11760000I-25000J0D01*
G01*
X10075000Y-11760000D02*
G75*
G03*
X10125000Y-11760000I25000J0D01*
G01*
X10125000Y-12240000D02*
G75*
G03*
X10075000Y-12240000I-25000J0D01*
G01*
X10075000Y-12240000D02*
G75*
G03*
X10125000Y-12240000I25000J0D01*
G01*
X10294706Y-2830294D02*
G75*
G03*
X10244706Y-2830294I-25000J0D01*
G01*
X10244706Y-2830294D02*
G75*
G03*
X10294706Y-2830294I25000J0D01*
G01*
X10294706Y-3169706D02*
G75*
G03*
X10244706Y-3169706I-25000J0D01*
G01*
X10244706Y-3169706D02*
G75*
G03*
X10294706Y-3169706I25000J0D01*
G01*
X10294706Y-11830294D02*
G75*
G03*
X10244706Y-11830294I-25000J0D01*
G01*
X10244706Y-11830294D02*
G75*
G03*
X10294706Y-11830294I25000J0D01*
G01*
X10294706Y-12169706D02*
G75*
G03*
X10244706Y-12169706I-25000J0D01*
G01*
X10244706Y-12169706D02*
G75*
G03*
X10294706Y-12169706I25000J0D01*
G01*
X10365000Y-3000000D02*
G75*
G03*
X10315000Y-3000000I-25000J0D01*
G01*
X10315000Y-3000000D02*
G75*
G03*
X10365000Y-3000000I25000J0D01*
G01*
X10365000Y-12000000D02*
G75*
G03*
X10315000Y-12000000I-25000J0D01*
G01*
X10315000Y-12000000D02*
G75*
G03*
X10365000Y-12000000I25000J0D01*
G01*
X15785000Y-3000000D02*
G75*
G03*
X15735000Y-3000000I-25000J0D01*
G01*
X15735000Y-3000000D02*
G75*
G03*
X15785000Y-3000000I25000J0D01*
G01*
X15785000Y-12000000D02*
G75*
G03*
X15735000Y-12000000I-25000J0D01*
G01*
X15735000Y-12000000D02*
G75*
G03*
X15785000Y-12000000I25000J0D01*
G01*
X15855294Y-2830294D02*
G75*
G03*
X15805294Y-2830294I-25000J0D01*
G01*
X15805294Y-2830294D02*
G75*
G03*
X15855294Y-2830294I25000J0D01*
G01*
X15855294Y-3169706D02*
G75*
G03*
X15805294Y-3169706I-25000J0D01*
G01*
X15805294Y-3169706D02*
G75*
G03*
X15855294Y-3169706I25000J0D01*
G01*
X15855294Y-11830294D02*
G75*
G03*
X15805294Y-11830294I-25000J0D01*
G01*
X15805294Y-11830294D02*
G75*
G03*
X15855294Y-11830294I25000J0D01*
G01*
X15855294Y-12169706D02*
G75*
G03*
X15805294Y-12169706I-25000J0D01*
G01*
X15805294Y-12169706D02*
G75*
G03*
X15855294Y-12169706I25000J0D01*
G01*
X16025000Y-2760000D02*
G75*
G03*
X15975000Y-2760000I-25000J0D01*
G01*
X15975000Y-2760000D02*
G75*
G03*
X16025000Y-2760000I25000J0D01*
G01*
X16025000Y-3240000D02*
G75*
G03*
X15975000Y-3240000I-25000J0D01*
G01*
X15975000Y-3240000D02*
G75*
G03*
X16025000Y-3240000I25000J0D01*
G01*
X16025000Y-11760000D02*
G75*
G03*
X15975000Y-11760000I-25000J0D01*
G01*
X15975000Y-11760000D02*
G75*
G03*
X16025000Y-11760000I25000J0D01*
G01*
X16025000Y-12240000D02*
G75*
G03*
X15975000Y-12240000I-25000J0D01*
G01*
X15975000Y-12240000D02*
G75*
G03*
X16025000Y-12240000I25000J0D01*
G01*
X16194706Y-2830294D02*
G75*
G03*
X16144706Y-2830294I-25000J0D01*
G01*
X16144706Y-2830294D02*
G75*
G03*
X16194706Y-2830294I25000J0D01*
G01*
X16194706Y-3169706D02*
G75*
G03*
X16144706Y-3169706I-25000J0D01*
G01*
X16144706Y-3169706D02*
G75*
G03*
X16194706Y-3169706I25000J0D01*
G01*
X16194706Y-11830294D02*
G75*
G03*
X16144706Y-11830294I-25000J0D01*
G01*
X16144706Y-11830294D02*
G75*
G03*
X16194706Y-11830294I25000J0D01*
G01*
X16194706Y-12169706D02*
G75*
G03*
X16144706Y-12169706I-25000J0D01*
G01*
X16144706Y-12169706D02*
G75*
G03*
X16194706Y-12169706I25000J0D01*
G01*
X16265000Y-3000000D02*
G75*
G03*
X16215000Y-3000000I-25000J0D01*
G01*
X16215000Y-3000000D02*
G75*
G03*
X16265000Y-3000000I25000J0D01*
G01*
X16265000Y-12000000D02*
G75*
G03*
X16215000Y-12000000I-25000J0D01*
G01*
X16215000Y-12000000D02*
G75*
G03*
X16265000Y-12000000I25000J0D01*
G01*
X6997500Y-7427500D02*
X6997500Y-7522500D01*
X6950000Y-7475000D02*
X7045000Y-7475000D01*
X6997500Y-7677500D02*
X6997500Y-7772500D01*
X6950000Y-7725000D02*
X7045000Y-7725000D01*
X6997500Y-7927500D02*
X6997500Y-8022500D01*
X6950000Y-7975000D02*
X7045000Y-7975000D01*
X6997500Y-8177500D02*
X6997500Y-8272500D01*
X6950000Y-8225000D02*
X7045000Y-8225000D01*
X6997500Y-8427500D02*
X6997500Y-8522500D01*
X6950000Y-8475000D02*
X7045000Y-8475000D01*
X6997500Y-8677500D02*
X6997500Y-8772500D01*
X6950000Y-8725000D02*
X7045000Y-8725000D01*
X7032856Y-6560356D02*
X7032856Y-6489644D01*
X6962144Y-6489644D01*
X6962144Y-6560356D01*
X7032856Y-6560356D01*
X7032856Y-6810356D02*
X7032856Y-6739644D01*
X6962144Y-6739644D01*
X6962144Y-6810356D01*
X7032856Y-6810356D01*
X7035356Y-3785356D02*
X7035356Y-3714644D01*
X6964644Y-3714644D01*
X6964644Y-3785356D01*
X7035356Y-3785356D01*
X7035356Y-4035356D02*
X7035356Y-3964644D01*
X6964644Y-3964644D01*
X6964644Y-4035356D01*
X7035356Y-4035356D01*
X7035356Y-4685356D02*
X7035356Y-4614644D01*
X6964644Y-4614644D01*
X6964644Y-4685356D01*
X7035356Y-4685356D01*
X7035356Y-4935356D02*
X7035356Y-4864644D01*
X6964644Y-4864644D01*
X6964644Y-4935356D01*
X7035356Y-4935356D01*
X7035356Y-5635356D02*
X7035356Y-5564644D01*
X6964644Y-5564644D01*
X6964644Y-5635356D01*
X7035356Y-5635356D01*
X7035356Y-5885356D02*
X7035356Y-5814644D01*
X6964644Y-5814644D01*
X6964644Y-5885356D01*
X7035356Y-5885356D01*
X7035356Y-9385356D02*
X7035356Y-9314644D01*
X6964644Y-9314644D01*
X6964644Y-9385356D01*
X7035356Y-9385356D01*
X7035356Y-9635356D02*
X7035356Y-9564644D01*
X6964644Y-9564644D01*
X6964644Y-9635356D01*
X7035356Y-9635356D01*
X7035356Y-10285356D02*
X7035356Y-10214644D01*
X6964644Y-10214644D01*
X6964644Y-10285356D01*
X7035356Y-10285356D01*
X7035356Y-10535356D02*
X7035356Y-10464644D01*
X6964644Y-10464644D01*
X6964644Y-10535356D01*
X7035356Y-10535356D01*
X8535356Y-12035356D02*
X8535356Y-11964644D01*
X8464644Y-11964644D01*
X8464644Y-12035356D01*
X8535356Y-12035356D01*
X8785356Y-12035356D02*
X8785356Y-11964644D01*
X8714644Y-11964644D01*
X8714644Y-12035356D01*
X8785356Y-12035356D01*
X9203356Y-3388856D02*
X9203356Y-3318144D01*
X9132644Y-3318144D01*
X9132644Y-3388856D01*
X9203356Y-3388856D01*
X9203356Y-3642856D02*
X9203356Y-3572144D01*
X9132644Y-3572144D01*
X9132644Y-3642856D01*
X9203356Y-3642856D01*
X9220356Y-5341856D02*
X9220356Y-5271144D01*
X9149644Y-5271144D01*
X9149644Y-5341856D01*
X9220356Y-5341856D01*
X9220356Y-5595856D02*
X9220356Y-5525144D01*
X9149644Y-5525144D01*
X9149644Y-5595856D01*
X9220356Y-5595856D01*
X15907856Y-5757356D02*
X15907856Y-5686644D01*
X15837144Y-5686644D01*
X15837144Y-5757356D01*
X15907856Y-5757356D01*
X15907856Y-6011356D02*
X15907856Y-5940644D01*
X15837144Y-5940644D01*
X15837144Y-6011356D01*
X15907856Y-6011356D01*
X15907856Y-6265356D02*
X15907856Y-6194644D01*
X15837144Y-6194644D01*
X15837144Y-6265356D01*
X15907856Y-6265356D01*
X15907856Y-6519356D02*
X15907856Y-6448644D01*
X15837144Y-6448644D01*
X15837144Y-6519356D01*
X15907856Y-6519356D01*
X15907856Y-6773356D02*
X15907856Y-6702644D01*
X15837144Y-6702644D01*
X15837144Y-6773356D01*
X15907856Y-6773356D01*
X15907856Y-7027356D02*
X15907856Y-6956644D01*
X15837144Y-6956644D01*
X15837144Y-7027356D01*
X15907856Y-7027356D01*
X15907856Y-7281356D02*
X15907856Y-7210644D01*
X15837144Y-7210644D01*
X15837144Y-7281356D01*
X15907856Y-7281356D01*
X15907856Y-7535356D02*
X15907856Y-7464644D01*
X15837144Y-7464644D01*
X15837144Y-7535356D01*
X15907856Y-7535356D01*
X15907856Y-7789356D02*
X15907856Y-7718644D01*
X15837144Y-7718644D01*
X15837144Y-7789356D01*
X15907856Y-7789356D01*
X15907856Y-8043356D02*
X15907856Y-7972644D01*
X15837144Y-7972644D01*
X15837144Y-8043356D01*
X15907856Y-8043356D01*
X15907856Y-8297356D02*
X15907856Y-8226644D01*
X15837144Y-8226644D01*
X15837144Y-8297356D01*
X15907856Y-8297356D01*
X15907856Y-8551356D02*
X15907856Y-8480644D01*
X15837144Y-8480644D01*
X15837144Y-8551356D01*
X15907856Y-8551356D01*
X15907856Y-8805356D02*
X15907856Y-8734644D01*
X15837144Y-8734644D01*
X15837144Y-8805356D01*
X15907856Y-8805356D01*
X15907856Y-9059356D02*
X15907856Y-8988644D01*
X15837144Y-8988644D01*
X15837144Y-9059356D01*
X15907856Y-9059356D01*
X15907856Y-9313356D02*
X15907856Y-9242644D01*
X15837144Y-9242644D01*
X15837144Y-9313356D01*
X15907856Y-9313356D01*
X16161856Y-5757356D02*
X16161856Y-5686644D01*
X16091144Y-5686644D01*
X16091144Y-5757356D01*
X16161856Y-5757356D01*
X16161856Y-6011356D02*
X16161856Y-5940644D01*
X16091144Y-5940644D01*
X16091144Y-6011356D01*
X16161856Y-6011356D01*
X16161856Y-6265356D02*
X16161856Y-6194644D01*
X16091144Y-6194644D01*
X16091144Y-6265356D01*
X16161856Y-6265356D01*
X16161856Y-6519356D02*
X16161856Y-6448644D01*
X16091144Y-6448644D01*
X16091144Y-6519356D01*
X16161856Y-6519356D01*
X16161856Y-6773356D02*
X16161856Y-6702644D01*
X16091144Y-6702644D01*
X16091144Y-6773356D01*
X16161856Y-6773356D01*
X16161856Y-7027356D02*
X16161856Y-6956644D01*
X16091144Y-6956644D01*
X16091144Y-7027356D01*
X16161856Y-7027356D01*
X16161856Y-7281356D02*
X16161856Y-7210644D01*
X16091144Y-7210644D01*
X16091144Y-7281356D01*
X16161856Y-7281356D01*
X16161856Y-7535356D02*
X16161856Y-7464644D01*
X16091144Y-7464644D01*
X16091144Y-7535356D01*
X16161856Y-7535356D01*
X16161856Y-7789356D02*
X16161856Y-7718644D01*
X16091144Y-7718644D01*
X16091144Y-7789356D01*
X16161856Y-7789356D01*
X16161856Y-8043356D02*
X16161856Y-7972644D01*
X16091144Y-7972644D01*
X16091144Y-8043356D01*
X16161856Y-8043356D01*
X16161856Y-8297356D02*
X16161856Y-8226644D01*
X16091144Y-8226644D01*
X16091144Y-8297356D01*
X16161856Y-8297356D01*
X16161856Y-8551356D02*
X16161856Y-8480644D01*
X16091144Y-8480644D01*
X16091144Y-8551356D01*
X16161856Y-8551356D01*
X16161856Y-8805356D02*
X16161856Y-8734644D01*
X16091144Y-8734644D01*
X16091144Y-8805356D01*
X16161856Y-8805356D01*
X16161856Y-9059356D02*
X16161856Y-8988644D01*
X16091144Y-8988644D01*
X16091144Y-9059356D01*
X16161856Y-9059356D01*
X16161856Y-9313356D02*
X16161856Y-9242644D01*
X16091144Y-9242644D01*
X16091144Y-9313356D01*
X16161856Y-9313356D01*
D12*
X7000000Y-3160000D02*
X7160000Y-3000000D01*
X7000000Y-2840000D01*
X6840000Y-3000000D01*
X7000000Y-3160000D01*
X7000000Y-12160000D02*
X7160000Y-12000000D01*
X7000000Y-11840000D01*
X6840000Y-12000000D01*
X7000000Y-12160000D01*
X10100000Y-3160000D02*
X10260000Y-3000000D01*
X10100000Y-2840000D01*
X9940000Y-3000000D01*
X10100000Y-3160000D01*
X10100000Y-12160000D02*
X10260000Y-12000000D01*
X10100000Y-11840000D01*
X9940000Y-12000000D01*
X10100000Y-12160000D01*
X16000000Y-3160000D02*
X16160000Y-3000000D01*
X16000000Y-2840000D01*
X15840000Y-3000000D01*
X16000000Y-3160000D01*
X16000000Y-12160000D02*
X16160000Y-12000000D01*
X16000000Y-11840000D01*
X15840000Y-12000000D01*
X16000000Y-12160000D01*
D11*
X6755777Y-12816484D02*
X6755777Y-12616484D01*
X6755777Y-12616484D02*
X6803396Y-12616484D01*
X6803396Y-12616484D02*
X6831967Y-12626008D01*
X6831967Y-12626008D02*
X6851015Y-12645055D01*
X6851015Y-12645055D02*
X6860539Y-12664103D01*
X6860539Y-12664103D02*
X6870062Y-12702198D01*
X6870062Y-12702198D02*
X6870062Y-12730769D01*
X6870062Y-12730769D02*
X6860539Y-12768865D01*
X6860539Y-12768865D02*
X6851015Y-12787912D01*
X6851015Y-12787912D02*
X6831967Y-12806960D01*
X6831967Y-12806960D02*
X6803396Y-12816484D01*
X6803396Y-12816484D02*
X6755777Y-12816484D01*
X6955777Y-12816484D02*
X6955777Y-12683150D01*
X6955777Y-12721246D02*
X6965301Y-12702198D01*
X6965301Y-12702198D02*
X6974824Y-12692674D01*
X6974824Y-12692674D02*
X6993872Y-12683150D01*
X6993872Y-12683150D02*
X7012920Y-12683150D01*
X7079586Y-12816484D02*
X7079586Y-12683150D01*
X7079586Y-12616484D02*
X7070062Y-12626008D01*
X7070062Y-12626008D02*
X7079586Y-12635531D01*
X7079586Y-12635531D02*
X7089110Y-12626008D01*
X7089110Y-12626008D02*
X7079586Y-12616484D01*
X7079586Y-12616484D02*
X7079586Y-12635531D01*
X7203396Y-12816484D02*
X7184348Y-12806960D01*
X7184348Y-12806960D02*
X7174824Y-12787912D01*
X7174824Y-12787912D02*
X7174824Y-12616484D01*
X7308158Y-12816484D02*
X7289110Y-12806960D01*
X7289110Y-12806960D02*
X7279586Y-12787912D01*
X7279586Y-12787912D02*
X7279586Y-12616484D01*
X7536729Y-12816484D02*
X7536729Y-12616484D01*
X7536729Y-12616484D02*
X7603396Y-12759341D01*
X7603396Y-12759341D02*
X7670062Y-12616484D01*
X7670062Y-12616484D02*
X7670062Y-12816484D01*
X7851015Y-12816484D02*
X7851015Y-12711722D01*
X7851015Y-12711722D02*
X7841491Y-12692674D01*
X7841491Y-12692674D02*
X7822443Y-12683150D01*
X7822443Y-12683150D02*
X7784348Y-12683150D01*
X7784348Y-12683150D02*
X7765301Y-12692674D01*
X7851015Y-12806960D02*
X7831967Y-12816484D01*
X7831967Y-12816484D02*
X7784348Y-12816484D01*
X7784348Y-12816484D02*
X7765301Y-12806960D01*
X7765301Y-12806960D02*
X7755777Y-12787912D01*
X7755777Y-12787912D02*
X7755777Y-12768865D01*
X7755777Y-12768865D02*
X7765301Y-12749817D01*
X7765301Y-12749817D02*
X7784348Y-12740293D01*
X7784348Y-12740293D02*
X7831967Y-12740293D01*
X7831967Y-12740293D02*
X7851015Y-12730769D01*
X7946253Y-12683150D02*
X7946253Y-12883150D01*
X7946253Y-12692674D02*
X7965301Y-12683150D01*
X7965301Y-12683150D02*
X8003396Y-12683150D01*
X8003396Y-12683150D02*
X8022443Y-12692674D01*
X8022443Y-12692674D02*
X8031967Y-12702198D01*
X8031967Y-12702198D02*
X8041491Y-12721246D01*
X8041491Y-12721246D02*
X8041491Y-12778388D01*
X8041491Y-12778388D02*
X8031967Y-12797436D01*
X8031967Y-12797436D02*
X8022443Y-12806960D01*
X8022443Y-12806960D02*
X8003396Y-12816484D01*
X8003396Y-12816484D02*
X7965301Y-12816484D01*
X7965301Y-12816484D02*
X7946253Y-12806960D01*
X8127205Y-12797436D02*
X8136729Y-12806960D01*
X8136729Y-12806960D02*
X8127205Y-12816484D01*
X8127205Y-12816484D02*
X8117682Y-12806960D01*
X8117682Y-12806960D02*
X8127205Y-12797436D01*
X8127205Y-12797436D02*
X8127205Y-12816484D01*
X8127205Y-12692674D02*
X8136729Y-12702198D01*
X8136729Y-12702198D02*
X8127205Y-12711722D01*
X8127205Y-12711722D02*
X8117682Y-12702198D01*
X8117682Y-12702198D02*
X8127205Y-12692674D01*
X8127205Y-12692674D02*
X8127205Y-12711722D01*
D10*
X6455000Y-13125000D02*
X6495000Y-13165000D01*
X6495000Y-13125000D02*
X6455000Y-13165000D01*
D11*
X6793872Y-13036484D02*
X6812920Y-13036484D01*
X6812920Y-13036484D02*
X6831967Y-13046008D01*
X6831967Y-13046008D02*
X6841491Y-13055531D01*
X6841491Y-13055531D02*
X6851015Y-13074579D01*
X6851015Y-13074579D02*
X6860539Y-13112674D01*
X6860539Y-13112674D02*
X6860539Y-13160293D01*
X6860539Y-13160293D02*
X6851015Y-13198388D01*
X6851015Y-13198388D02*
X6841491Y-13217436D01*
X6841491Y-13217436D02*
X6831967Y-13226960D01*
X6831967Y-13226960D02*
X6812920Y-13236484D01*
X6812920Y-13236484D02*
X6793872Y-13236484D01*
X6793872Y-13236484D02*
X6774824Y-13226960D01*
X6774824Y-13226960D02*
X6765301Y-13217436D01*
X6765301Y-13217436D02*
X6755777Y-13198388D01*
X6755777Y-13198388D02*
X6746253Y-13160293D01*
X6746253Y-13160293D02*
X6746253Y-13112674D01*
X6746253Y-13112674D02*
X6755777Y-13074579D01*
X6755777Y-13074579D02*
X6765301Y-13055531D01*
X6765301Y-13055531D02*
X6774824Y-13046008D01*
X6774824Y-13046008D02*
X6793872Y-13036484D01*
X6946253Y-13217436D02*
X6955777Y-13226960D01*
X6955777Y-13226960D02*
X6946253Y-13236484D01*
X6946253Y-13236484D02*
X6936729Y-13226960D01*
X6936729Y-13226960D02*
X6946253Y-13217436D01*
X6946253Y-13217436D02*
X6946253Y-13236484D01*
X7127205Y-13103150D02*
X7127205Y-13236484D01*
X7079586Y-13026960D02*
X7031967Y-13169817D01*
X7031967Y-13169817D02*
X7155777Y-13169817D01*
X7270062Y-13036484D02*
X7289110Y-13036484D01*
X7289110Y-13036484D02*
X7308158Y-13046008D01*
X7308158Y-13046008D02*
X7317682Y-13055531D01*
X7317682Y-13055531D02*
X7327205Y-13074579D01*
X7327205Y-13074579D02*
X7336729Y-13112674D01*
X7336729Y-13112674D02*
X7336729Y-13160293D01*
X7336729Y-13160293D02*
X7327205Y-13198388D01*
X7327205Y-13198388D02*
X7317682Y-13217436D01*
X7317682Y-13217436D02*
X7308158Y-13226960D01*
X7308158Y-13226960D02*
X7289110Y-13236484D01*
X7289110Y-13236484D02*
X7270062Y-13236484D01*
X7270062Y-13236484D02*
X7251015Y-13226960D01*
X7251015Y-13226960D02*
X7241491Y-13217436D01*
X7241491Y-13217436D02*
X7231967Y-13198388D01*
X7231967Y-13198388D02*
X7222443Y-13160293D01*
X7222443Y-13160293D02*
X7222443Y-13112674D01*
X7222443Y-13112674D02*
X7231967Y-13074579D01*
X7231967Y-13074579D02*
X7241491Y-13055531D01*
X7241491Y-13055531D02*
X7251015Y-13046008D01*
X7251015Y-13046008D02*
X7270062Y-13036484D01*
X7460539Y-13036484D02*
X7479586Y-13036484D01*
X7479586Y-13036484D02*
X7498634Y-13046008D01*
X7498634Y-13046008D02*
X7508158Y-13055531D01*
X7508158Y-13055531D02*
X7517682Y-13074579D01*
X7517682Y-13074579D02*
X7527205Y-13112674D01*
X7527205Y-13112674D02*
X7527205Y-13160293D01*
X7527205Y-13160293D02*
X7517682Y-13198388D01*
X7517682Y-13198388D02*
X7508158Y-13217436D01*
X7508158Y-13217436D02*
X7498634Y-13226960D01*
X7498634Y-13226960D02*
X7479586Y-13236484D01*
X7479586Y-13236484D02*
X7460539Y-13236484D01*
X7460539Y-13236484D02*
X7441491Y-13226960D01*
X7441491Y-13226960D02*
X7431967Y-13217436D01*
X7431967Y-13217436D02*
X7422443Y-13198388D01*
X7422443Y-13198388D02*
X7412920Y-13160293D01*
X7412920Y-13160293D02*
X7412920Y-13112674D01*
X7412920Y-13112674D02*
X7422443Y-13074579D01*
X7422443Y-13074579D02*
X7431967Y-13055531D01*
X7431967Y-13055531D02*
X7441491Y-13046008D01*
X7441491Y-13046008D02*
X7460539Y-13036484D01*
X7612920Y-13236484D02*
X7612920Y-13103150D01*
X7612920Y-13122198D02*
X7622443Y-13112674D01*
X7622443Y-13112674D02*
X7641491Y-13103150D01*
X7641491Y-13103150D02*
X7670063Y-13103150D01*
X7670063Y-13103150D02*
X7689110Y-13112674D01*
X7689110Y-13112674D02*
X7698634Y-13131722D01*
X7698634Y-13131722D02*
X7698634Y-13236484D01*
X7698634Y-13131722D02*
X7708158Y-13112674D01*
X7708158Y-13112674D02*
X7727205Y-13103150D01*
X7727205Y-13103150D02*
X7755777Y-13103150D01*
X7755777Y-13103150D02*
X7774824Y-13112674D01*
X7774824Y-13112674D02*
X7784348Y-13131722D01*
X7784348Y-13131722D02*
X7784348Y-13236484D01*
X7879586Y-13236484D02*
X7879586Y-13103150D01*
X7879586Y-13122198D02*
X7889110Y-13112674D01*
X7889110Y-13112674D02*
X7908158Y-13103150D01*
X7908158Y-13103150D02*
X7936729Y-13103150D01*
X7936729Y-13103150D02*
X7955777Y-13112674D01*
X7955777Y-13112674D02*
X7965301Y-13131722D01*
X7965301Y-13131722D02*
X7965301Y-13236484D01*
X7965301Y-13131722D02*
X7974824Y-13112674D01*
X7974824Y-13112674D02*
X7993872Y-13103150D01*
X7993872Y-13103150D02*
X8022443Y-13103150D01*
X8022443Y-13103150D02*
X8041491Y-13112674D01*
X8041491Y-13112674D02*
X8051015Y-13131722D01*
X8051015Y-13131722D02*
X8051015Y-13236484D01*
X8441491Y-13026960D02*
X8270063Y-13284103D01*
X8698634Y-13036484D02*
X8717682Y-13036484D01*
X8717682Y-13036484D02*
X8736729Y-13046008D01*
X8736729Y-13046008D02*
X8746253Y-13055531D01*
X8746253Y-13055531D02*
X8755777Y-13074579D01*
X8755777Y-13074579D02*
X8765301Y-13112674D01*
X8765301Y-13112674D02*
X8765301Y-13160293D01*
X8765301Y-13160293D02*
X8755777Y-13198388D01*
X8755777Y-13198388D02*
X8746253Y-13217436D01*
X8746253Y-13217436D02*
X8736729Y-13226960D01*
X8736729Y-13226960D02*
X8717682Y-13236484D01*
X8717682Y-13236484D02*
X8698634Y-13236484D01*
X8698634Y-13236484D02*
X8679587Y-13226960D01*
X8679587Y-13226960D02*
X8670063Y-13217436D01*
X8670063Y-13217436D02*
X8660539Y-13198388D01*
X8660539Y-13198388D02*
X8651015Y-13160293D01*
X8651015Y-13160293D02*
X8651015Y-13112674D01*
X8651015Y-13112674D02*
X8660539Y-13074579D01*
X8660539Y-13074579D02*
X8670063Y-13055531D01*
X8670063Y-13055531D02*
X8679587Y-13046008D01*
X8679587Y-13046008D02*
X8698634Y-13036484D01*
X8851015Y-13217436D02*
X8860539Y-13226960D01*
X8860539Y-13226960D02*
X8851015Y-13236484D01*
X8851015Y-13236484D02*
X8841491Y-13226960D01*
X8841491Y-13226960D02*
X8851015Y-13217436D01*
X8851015Y-13217436D02*
X8851015Y-13236484D01*
X8984348Y-13036484D02*
X9003396Y-13036484D01*
X9003396Y-13036484D02*
X9022444Y-13046008D01*
X9022444Y-13046008D02*
X9031968Y-13055531D01*
X9031968Y-13055531D02*
X9041491Y-13074579D01*
X9041491Y-13074579D02*
X9051015Y-13112674D01*
X9051015Y-13112674D02*
X9051015Y-13160293D01*
X9051015Y-13160293D02*
X9041491Y-13198388D01*
X9041491Y-13198388D02*
X9031968Y-13217436D01*
X9031968Y-13217436D02*
X9022444Y-13226960D01*
X9022444Y-13226960D02*
X9003396Y-13236484D01*
X9003396Y-13236484D02*
X8984348Y-13236484D01*
X8984348Y-13236484D02*
X8965301Y-13226960D01*
X8965301Y-13226960D02*
X8955777Y-13217436D01*
X8955777Y-13217436D02*
X8946253Y-13198388D01*
X8946253Y-13198388D02*
X8936729Y-13160293D01*
X8936729Y-13160293D02*
X8936729Y-13112674D01*
X8936729Y-13112674D02*
X8946253Y-13074579D01*
X8946253Y-13074579D02*
X8955777Y-13055531D01*
X8955777Y-13055531D02*
X8965301Y-13046008D01*
X8965301Y-13046008D02*
X8984348Y-13036484D01*
X9241491Y-13236484D02*
X9127206Y-13236484D01*
X9184348Y-13236484D02*
X9184348Y-13036484D01*
X9184348Y-13036484D02*
X9165301Y-13065055D01*
X9165301Y-13065055D02*
X9146253Y-13084103D01*
X9146253Y-13084103D02*
X9127206Y-13093627D01*
X9422444Y-13036484D02*
X9327206Y-13036484D01*
X9327206Y-13036484D02*
X9317682Y-13131722D01*
X9317682Y-13131722D02*
X9327206Y-13122198D01*
X9327206Y-13122198D02*
X9346253Y-13112674D01*
X9346253Y-13112674D02*
X9393872Y-13112674D01*
X9393872Y-13112674D02*
X9412920Y-13122198D01*
X9412920Y-13122198D02*
X9422444Y-13131722D01*
X9422444Y-13131722D02*
X9431968Y-13150769D01*
X9431968Y-13150769D02*
X9431968Y-13198388D01*
X9431968Y-13198388D02*
X9422444Y-13217436D01*
X9422444Y-13217436D02*
X9412920Y-13226960D01*
X9412920Y-13226960D02*
X9393872Y-13236484D01*
X9393872Y-13236484D02*
X9346253Y-13236484D01*
X9346253Y-13236484D02*
X9327206Y-13226960D01*
X9327206Y-13226960D02*
X9317682Y-13217436D01*
X9498634Y-13036484D02*
X9631968Y-13036484D01*
X9631968Y-13036484D02*
X9546253Y-13236484D01*
X9698634Y-13036484D02*
X9698634Y-13074579D01*
X9774825Y-13036484D02*
X9774825Y-13074579D01*
X10070063Y-13312674D02*
X10060539Y-13303150D01*
X10060539Y-13303150D02*
X10041491Y-13274579D01*
X10041491Y-13274579D02*
X10031968Y-13255531D01*
X10031968Y-13255531D02*
X10022444Y-13226960D01*
X10022444Y-13226960D02*
X10012920Y-13179341D01*
X10012920Y-13179341D02*
X10012920Y-13141246D01*
X10012920Y-13141246D02*
X10022444Y-13093627D01*
X10022444Y-13093627D02*
X10031968Y-13065055D01*
X10031968Y-13065055D02*
X10041491Y-13046008D01*
X10041491Y-13046008D02*
X10060539Y-13017436D01*
X10060539Y-13017436D02*
X10070063Y-13007912D01*
X10127206Y-13036484D02*
X10251015Y-13036484D01*
X10251015Y-13036484D02*
X10184349Y-13112674D01*
X10184349Y-13112674D02*
X10212920Y-13112674D01*
X10212920Y-13112674D02*
X10231968Y-13122198D01*
X10231968Y-13122198D02*
X10241491Y-13131722D01*
X10241491Y-13131722D02*
X10251015Y-13150769D01*
X10251015Y-13150769D02*
X10251015Y-13198388D01*
X10251015Y-13198388D02*
X10241491Y-13217436D01*
X10241491Y-13217436D02*
X10231968Y-13226960D01*
X10231968Y-13226960D02*
X10212920Y-13236484D01*
X10212920Y-13236484D02*
X10155777Y-13236484D01*
X10155777Y-13236484D02*
X10136730Y-13226960D01*
X10136730Y-13226960D02*
X10127206Y-13217436D01*
X10317682Y-13036484D02*
X10451015Y-13036484D01*
X10451015Y-13036484D02*
X10365301Y-13236484D01*
X10508158Y-13036484D02*
X10641491Y-13036484D01*
X10641491Y-13036484D02*
X10555777Y-13236484D01*
X10870063Y-13236484D02*
X10870063Y-13036484D01*
X10955777Y-13236484D02*
X10955777Y-13131722D01*
X10955777Y-13131722D02*
X10946253Y-13112674D01*
X10946253Y-13112674D02*
X10927206Y-13103150D01*
X10927206Y-13103150D02*
X10898634Y-13103150D01*
X10898634Y-13103150D02*
X10879587Y-13112674D01*
X10879587Y-13112674D02*
X10870063Y-13122198D01*
X11079587Y-13236484D02*
X11060539Y-13226960D01*
X11060539Y-13226960D02*
X11051015Y-13217436D01*
X11051015Y-13217436D02*
X11041492Y-13198388D01*
X11041492Y-13198388D02*
X11041492Y-13141246D01*
X11041492Y-13141246D02*
X11051015Y-13122198D01*
X11051015Y-13122198D02*
X11060539Y-13112674D01*
X11060539Y-13112674D02*
X11079587Y-13103150D01*
X11079587Y-13103150D02*
X11108158Y-13103150D01*
X11108158Y-13103150D02*
X11127206Y-13112674D01*
X11127206Y-13112674D02*
X11136730Y-13122198D01*
X11136730Y-13122198D02*
X11146253Y-13141246D01*
X11146253Y-13141246D02*
X11146253Y-13198388D01*
X11146253Y-13198388D02*
X11136730Y-13217436D01*
X11136730Y-13217436D02*
X11127206Y-13226960D01*
X11127206Y-13226960D02*
X11108158Y-13236484D01*
X11108158Y-13236484D02*
X11079587Y-13236484D01*
X11260539Y-13236484D02*
X11241491Y-13226960D01*
X11241491Y-13226960D02*
X11231968Y-13207912D01*
X11231968Y-13207912D02*
X11231968Y-13036484D01*
X11412920Y-13226960D02*
X11393872Y-13236484D01*
X11393872Y-13236484D02*
X11355777Y-13236484D01*
X11355777Y-13236484D02*
X11336730Y-13226960D01*
X11336730Y-13226960D02*
X11327206Y-13207912D01*
X11327206Y-13207912D02*
X11327206Y-13131722D01*
X11327206Y-13131722D02*
X11336730Y-13112674D01*
X11336730Y-13112674D02*
X11355777Y-13103150D01*
X11355777Y-13103150D02*
X11393872Y-13103150D01*
X11393872Y-13103150D02*
X11412920Y-13112674D01*
X11412920Y-13112674D02*
X11422444Y-13131722D01*
X11422444Y-13131722D02*
X11422444Y-13150769D01*
X11422444Y-13150769D02*
X11327206Y-13169817D01*
X11498634Y-13226960D02*
X11517682Y-13236484D01*
X11517682Y-13236484D02*
X11555777Y-13236484D01*
X11555777Y-13236484D02*
X11574825Y-13226960D01*
X11574825Y-13226960D02*
X11584349Y-13207912D01*
X11584349Y-13207912D02*
X11584349Y-13198388D01*
X11584349Y-13198388D02*
X11574825Y-13179341D01*
X11574825Y-13179341D02*
X11555777Y-13169817D01*
X11555777Y-13169817D02*
X11527206Y-13169817D01*
X11527206Y-13169817D02*
X11508158Y-13160293D01*
X11508158Y-13160293D02*
X11498634Y-13141246D01*
X11498634Y-13141246D02*
X11498634Y-13131722D01*
X11498634Y-13131722D02*
X11508158Y-13112674D01*
X11508158Y-13112674D02*
X11527206Y-13103150D01*
X11527206Y-13103150D02*
X11555777Y-13103150D01*
X11555777Y-13103150D02*
X11574825Y-13112674D01*
X11651015Y-13312674D02*
X11660539Y-13303150D01*
X11660539Y-13303150D02*
X11679587Y-13274579D01*
X11679587Y-13274579D02*
X11689111Y-13255531D01*
X11689111Y-13255531D02*
X11698634Y-13226960D01*
X11698634Y-13226960D02*
X11708158Y-13179341D01*
X11708158Y-13179341D02*
X11708158Y-13141246D01*
X11708158Y-13141246D02*
X11698634Y-13093627D01*
X11698634Y-13093627D02*
X11689111Y-13065055D01*
X11689111Y-13065055D02*
X11679587Y-13046008D01*
X11679587Y-13046008D02*
X11660539Y-13017436D01*
X11660539Y-13017436D02*
X11651015Y-13007912D01*
D10*
X6495000Y-13409000D02*
G75*
G03*
X6445000Y-13409000I-25000J0D01*
G01*
X6445000Y-13409000D02*
G75*
G03*
X6495000Y-13409000I25000J0D01*
G01*
D11*
X6793872Y-13300484D02*
X6812920Y-13300484D01*
X6812920Y-13300484D02*
X6831967Y-13310008D01*
X6831967Y-13310008D02*
X6841491Y-13319531D01*
X6841491Y-13319531D02*
X6851015Y-13338579D01*
X6851015Y-13338579D02*
X6860539Y-13376674D01*
X6860539Y-13376674D02*
X6860539Y-13424293D01*
X6860539Y-13424293D02*
X6851015Y-13462388D01*
X6851015Y-13462388D02*
X6841491Y-13481436D01*
X6841491Y-13481436D02*
X6831967Y-13490960D01*
X6831967Y-13490960D02*
X6812920Y-13500484D01*
X6812920Y-13500484D02*
X6793872Y-13500484D01*
X6793872Y-13500484D02*
X6774824Y-13490960D01*
X6774824Y-13490960D02*
X6765301Y-13481436D01*
X6765301Y-13481436D02*
X6755777Y-13462388D01*
X6755777Y-13462388D02*
X6746253Y-13424293D01*
X6746253Y-13424293D02*
X6746253Y-13376674D01*
X6746253Y-13376674D02*
X6755777Y-13338579D01*
X6755777Y-13338579D02*
X6765301Y-13319531D01*
X6765301Y-13319531D02*
X6774824Y-13310008D01*
X6774824Y-13310008D02*
X6793872Y-13300484D01*
X6946253Y-13481436D02*
X6955777Y-13490960D01*
X6955777Y-13490960D02*
X6946253Y-13500484D01*
X6946253Y-13500484D02*
X6936729Y-13490960D01*
X6936729Y-13490960D02*
X6946253Y-13481436D01*
X6946253Y-13481436D02*
X6946253Y-13500484D01*
X7136729Y-13300484D02*
X7041491Y-13300484D01*
X7041491Y-13300484D02*
X7031967Y-13395722D01*
X7031967Y-13395722D02*
X7041491Y-13386198D01*
X7041491Y-13386198D02*
X7060539Y-13376674D01*
X7060539Y-13376674D02*
X7108158Y-13376674D01*
X7108158Y-13376674D02*
X7127205Y-13386198D01*
X7127205Y-13386198D02*
X7136729Y-13395722D01*
X7136729Y-13395722D02*
X7146253Y-13414769D01*
X7146253Y-13414769D02*
X7146253Y-13462388D01*
X7146253Y-13462388D02*
X7136729Y-13481436D01*
X7136729Y-13481436D02*
X7127205Y-13490960D01*
X7127205Y-13490960D02*
X7108158Y-13500484D01*
X7108158Y-13500484D02*
X7060539Y-13500484D01*
X7060539Y-13500484D02*
X7041491Y-13490960D01*
X7041491Y-13490960D02*
X7031967Y-13481436D01*
X7270062Y-13300484D02*
X7289110Y-13300484D01*
X7289110Y-13300484D02*
X7308158Y-13310008D01*
X7308158Y-13310008D02*
X7317682Y-13319531D01*
X7317682Y-13319531D02*
X7327205Y-13338579D01*
X7327205Y-13338579D02*
X7336729Y-13376674D01*
X7336729Y-13376674D02*
X7336729Y-13424293D01*
X7336729Y-13424293D02*
X7327205Y-13462388D01*
X7327205Y-13462388D02*
X7317682Y-13481436D01*
X7317682Y-13481436D02*
X7308158Y-13490960D01*
X7308158Y-13490960D02*
X7289110Y-13500484D01*
X7289110Y-13500484D02*
X7270062Y-13500484D01*
X7270062Y-13500484D02*
X7251015Y-13490960D01*
X7251015Y-13490960D02*
X7241491Y-13481436D01*
X7241491Y-13481436D02*
X7231967Y-13462388D01*
X7231967Y-13462388D02*
X7222443Y-13424293D01*
X7222443Y-13424293D02*
X7222443Y-13376674D01*
X7222443Y-13376674D02*
X7231967Y-13338579D01*
X7231967Y-13338579D02*
X7241491Y-13319531D01*
X7241491Y-13319531D02*
X7251015Y-13310008D01*
X7251015Y-13310008D02*
X7270062Y-13300484D01*
X7460539Y-13300484D02*
X7479586Y-13300484D01*
X7479586Y-13300484D02*
X7498634Y-13310008D01*
X7498634Y-13310008D02*
X7508158Y-13319531D01*
X7508158Y-13319531D02*
X7517682Y-13338579D01*
X7517682Y-13338579D02*
X7527205Y-13376674D01*
X7527205Y-13376674D02*
X7527205Y-13424293D01*
X7527205Y-13424293D02*
X7517682Y-13462388D01*
X7517682Y-13462388D02*
X7508158Y-13481436D01*
X7508158Y-13481436D02*
X7498634Y-13490960D01*
X7498634Y-13490960D02*
X7479586Y-13500484D01*
X7479586Y-13500484D02*
X7460539Y-13500484D01*
X7460539Y-13500484D02*
X7441491Y-13490960D01*
X7441491Y-13490960D02*
X7431967Y-13481436D01*
X7431967Y-13481436D02*
X7422443Y-13462388D01*
X7422443Y-13462388D02*
X7412920Y-13424293D01*
X7412920Y-13424293D02*
X7412920Y-13376674D01*
X7412920Y-13376674D02*
X7422443Y-13338579D01*
X7422443Y-13338579D02*
X7431967Y-13319531D01*
X7431967Y-13319531D02*
X7441491Y-13310008D01*
X7441491Y-13310008D02*
X7460539Y-13300484D01*
X7612920Y-13500484D02*
X7612920Y-13367150D01*
X7612920Y-13386198D02*
X7622443Y-13376674D01*
X7622443Y-13376674D02*
X7641491Y-13367150D01*
X7641491Y-13367150D02*
X7670063Y-13367150D01*
X7670063Y-13367150D02*
X7689110Y-13376674D01*
X7689110Y-13376674D02*
X7698634Y-13395722D01*
X7698634Y-13395722D02*
X7698634Y-13500484D01*
X7698634Y-13395722D02*
X7708158Y-13376674D01*
X7708158Y-13376674D02*
X7727205Y-13367150D01*
X7727205Y-13367150D02*
X7755777Y-13367150D01*
X7755777Y-13367150D02*
X7774824Y-13376674D01*
X7774824Y-13376674D02*
X7784348Y-13395722D01*
X7784348Y-13395722D02*
X7784348Y-13500484D01*
X7879586Y-13500484D02*
X7879586Y-13367150D01*
X7879586Y-13386198D02*
X7889110Y-13376674D01*
X7889110Y-13376674D02*
X7908158Y-13367150D01*
X7908158Y-13367150D02*
X7936729Y-13367150D01*
X7936729Y-13367150D02*
X7955777Y-13376674D01*
X7955777Y-13376674D02*
X7965301Y-13395722D01*
X7965301Y-13395722D02*
X7965301Y-13500484D01*
X7965301Y-13395722D02*
X7974824Y-13376674D01*
X7974824Y-13376674D02*
X7993872Y-13367150D01*
X7993872Y-13367150D02*
X8022443Y-13367150D01*
X8022443Y-13367150D02*
X8041491Y-13376674D01*
X8041491Y-13376674D02*
X8051015Y-13395722D01*
X8051015Y-13395722D02*
X8051015Y-13500484D01*
X8441491Y-13290960D02*
X8270063Y-13548103D01*
X8698634Y-13300484D02*
X8717682Y-13300484D01*
X8717682Y-13300484D02*
X8736729Y-13310008D01*
X8736729Y-13310008D02*
X8746253Y-13319531D01*
X8746253Y-13319531D02*
X8755777Y-13338579D01*
X8755777Y-13338579D02*
X8765301Y-13376674D01*
X8765301Y-13376674D02*
X8765301Y-13424293D01*
X8765301Y-13424293D02*
X8755777Y-13462388D01*
X8755777Y-13462388D02*
X8746253Y-13481436D01*
X8746253Y-13481436D02*
X8736729Y-13490960D01*
X8736729Y-13490960D02*
X8717682Y-13500484D01*
X8717682Y-13500484D02*
X8698634Y-13500484D01*
X8698634Y-13500484D02*
X8679587Y-13490960D01*
X8679587Y-13490960D02*
X8670063Y-13481436D01*
X8670063Y-13481436D02*
X8660539Y-13462388D01*
X8660539Y-13462388D02*
X8651015Y-13424293D01*
X8651015Y-13424293D02*
X8651015Y-13376674D01*
X8651015Y-13376674D02*
X8660539Y-13338579D01*
X8660539Y-13338579D02*
X8670063Y-13319531D01*
X8670063Y-13319531D02*
X8679587Y-13310008D01*
X8679587Y-13310008D02*
X8698634Y-13300484D01*
X8851015Y-13481436D02*
X8860539Y-13490960D01*
X8860539Y-13490960D02*
X8851015Y-13500484D01*
X8851015Y-13500484D02*
X8841491Y-13490960D01*
X8841491Y-13490960D02*
X8851015Y-13481436D01*
X8851015Y-13481436D02*
X8851015Y-13500484D01*
X8984348Y-13300484D02*
X9003396Y-13300484D01*
X9003396Y-13300484D02*
X9022444Y-13310008D01*
X9022444Y-13310008D02*
X9031968Y-13319531D01*
X9031968Y-13319531D02*
X9041491Y-13338579D01*
X9041491Y-13338579D02*
X9051015Y-13376674D01*
X9051015Y-13376674D02*
X9051015Y-13424293D01*
X9051015Y-13424293D02*
X9041491Y-13462388D01*
X9041491Y-13462388D02*
X9031968Y-13481436D01*
X9031968Y-13481436D02*
X9022444Y-13490960D01*
X9022444Y-13490960D02*
X9003396Y-13500484D01*
X9003396Y-13500484D02*
X8984348Y-13500484D01*
X8984348Y-13500484D02*
X8965301Y-13490960D01*
X8965301Y-13490960D02*
X8955777Y-13481436D01*
X8955777Y-13481436D02*
X8946253Y-13462388D01*
X8946253Y-13462388D02*
X8936729Y-13424293D01*
X8936729Y-13424293D02*
X8936729Y-13376674D01*
X8936729Y-13376674D02*
X8946253Y-13338579D01*
X8946253Y-13338579D02*
X8955777Y-13319531D01*
X8955777Y-13319531D02*
X8965301Y-13310008D01*
X8965301Y-13310008D02*
X8984348Y-13300484D01*
X9241491Y-13500484D02*
X9127206Y-13500484D01*
X9184348Y-13500484D02*
X9184348Y-13300484D01*
X9184348Y-13300484D02*
X9165301Y-13329055D01*
X9165301Y-13329055D02*
X9146253Y-13348103D01*
X9146253Y-13348103D02*
X9127206Y-13357627D01*
X9336729Y-13500484D02*
X9374825Y-13500484D01*
X9374825Y-13500484D02*
X9393872Y-13490960D01*
X9393872Y-13490960D02*
X9403396Y-13481436D01*
X9403396Y-13481436D02*
X9422444Y-13452865D01*
X9422444Y-13452865D02*
X9431968Y-13414769D01*
X9431968Y-13414769D02*
X9431968Y-13338579D01*
X9431968Y-13338579D02*
X9422444Y-13319531D01*
X9422444Y-13319531D02*
X9412920Y-13310008D01*
X9412920Y-13310008D02*
X9393872Y-13300484D01*
X9393872Y-13300484D02*
X9355777Y-13300484D01*
X9355777Y-13300484D02*
X9336729Y-13310008D01*
X9336729Y-13310008D02*
X9327206Y-13319531D01*
X9327206Y-13319531D02*
X9317682Y-13338579D01*
X9317682Y-13338579D02*
X9317682Y-13386198D01*
X9317682Y-13386198D02*
X9327206Y-13405246D01*
X9327206Y-13405246D02*
X9336729Y-13414769D01*
X9336729Y-13414769D02*
X9355777Y-13424293D01*
X9355777Y-13424293D02*
X9393872Y-13424293D01*
X9393872Y-13424293D02*
X9412920Y-13414769D01*
X9412920Y-13414769D02*
X9422444Y-13405246D01*
X9422444Y-13405246D02*
X9431968Y-13386198D01*
X9498634Y-13300484D02*
X9631968Y-13300484D01*
X9631968Y-13300484D02*
X9546253Y-13500484D01*
X9698634Y-13300484D02*
X9698634Y-13338579D01*
X9774825Y-13300484D02*
X9774825Y-13338579D01*
X10070063Y-13576674D02*
X10060539Y-13567150D01*
X10060539Y-13567150D02*
X10041491Y-13538579D01*
X10041491Y-13538579D02*
X10031968Y-13519531D01*
X10031968Y-13519531D02*
X10022444Y-13490960D01*
X10022444Y-13490960D02*
X10012920Y-13443341D01*
X10012920Y-13443341D02*
X10012920Y-13405246D01*
X10012920Y-13405246D02*
X10022444Y-13357627D01*
X10022444Y-13357627D02*
X10031968Y-13329055D01*
X10031968Y-13329055D02*
X10041491Y-13310008D01*
X10041491Y-13310008D02*
X10060539Y-13281436D01*
X10060539Y-13281436D02*
X10070063Y-13271912D01*
X10231968Y-13367150D02*
X10231968Y-13500484D01*
X10184349Y-13290960D02*
X10136730Y-13433817D01*
X10136730Y-13433817D02*
X10260539Y-13433817D01*
X10365301Y-13386198D02*
X10346253Y-13376674D01*
X10346253Y-13376674D02*
X10336730Y-13367150D01*
X10336730Y-13367150D02*
X10327206Y-13348103D01*
X10327206Y-13348103D02*
X10327206Y-13338579D01*
X10327206Y-13338579D02*
X10336730Y-13319531D01*
X10336730Y-13319531D02*
X10346253Y-13310008D01*
X10346253Y-13310008D02*
X10365301Y-13300484D01*
X10365301Y-13300484D02*
X10403396Y-13300484D01*
X10403396Y-13300484D02*
X10422444Y-13310008D01*
X10422444Y-13310008D02*
X10431968Y-13319531D01*
X10431968Y-13319531D02*
X10441491Y-13338579D01*
X10441491Y-13338579D02*
X10441491Y-13348103D01*
X10441491Y-13348103D02*
X10431968Y-13367150D01*
X10431968Y-13367150D02*
X10422444Y-13376674D01*
X10422444Y-13376674D02*
X10403396Y-13386198D01*
X10403396Y-13386198D02*
X10365301Y-13386198D01*
X10365301Y-13386198D02*
X10346253Y-13395722D01*
X10346253Y-13395722D02*
X10336730Y-13405246D01*
X10336730Y-13405246D02*
X10327206Y-13424293D01*
X10327206Y-13424293D02*
X10327206Y-13462388D01*
X10327206Y-13462388D02*
X10336730Y-13481436D01*
X10336730Y-13481436D02*
X10346253Y-13490960D01*
X10346253Y-13490960D02*
X10365301Y-13500484D01*
X10365301Y-13500484D02*
X10403396Y-13500484D01*
X10403396Y-13500484D02*
X10422444Y-13490960D01*
X10422444Y-13490960D02*
X10431968Y-13481436D01*
X10431968Y-13481436D02*
X10441491Y-13462388D01*
X10441491Y-13462388D02*
X10441491Y-13424293D01*
X10441491Y-13424293D02*
X10431968Y-13405246D01*
X10431968Y-13405246D02*
X10422444Y-13395722D01*
X10422444Y-13395722D02*
X10403396Y-13386198D01*
X10679587Y-13500484D02*
X10679587Y-13300484D01*
X10765301Y-13500484D02*
X10765301Y-13395722D01*
X10765301Y-13395722D02*
X10755777Y-13376674D01*
X10755777Y-13376674D02*
X10736730Y-13367150D01*
X10736730Y-13367150D02*
X10708158Y-13367150D01*
X10708158Y-13367150D02*
X10689111Y-13376674D01*
X10689111Y-13376674D02*
X10679587Y-13386198D01*
X10889111Y-13500484D02*
X10870063Y-13490960D01*
X10870063Y-13490960D02*
X10860539Y-13481436D01*
X10860539Y-13481436D02*
X10851015Y-13462388D01*
X10851015Y-13462388D02*
X10851015Y-13405246D01*
X10851015Y-13405246D02*
X10860539Y-13386198D01*
X10860539Y-13386198D02*
X10870063Y-13376674D01*
X10870063Y-13376674D02*
X10889111Y-13367150D01*
X10889111Y-13367150D02*
X10917682Y-13367150D01*
X10917682Y-13367150D02*
X10936730Y-13376674D01*
X10936730Y-13376674D02*
X10946253Y-13386198D01*
X10946253Y-13386198D02*
X10955777Y-13405246D01*
X10955777Y-13405246D02*
X10955777Y-13462388D01*
X10955777Y-13462388D02*
X10946253Y-13481436D01*
X10946253Y-13481436D02*
X10936730Y-13490960D01*
X10936730Y-13490960D02*
X10917682Y-13500484D01*
X10917682Y-13500484D02*
X10889111Y-13500484D01*
X11070063Y-13500484D02*
X11051015Y-13490960D01*
X11051015Y-13490960D02*
X11041492Y-13471912D01*
X11041492Y-13471912D02*
X11041492Y-13300484D01*
X11222444Y-13490960D02*
X11203396Y-13500484D01*
X11203396Y-13500484D02*
X11165301Y-13500484D01*
X11165301Y-13500484D02*
X11146253Y-13490960D01*
X11146253Y-13490960D02*
X11136730Y-13471912D01*
X11136730Y-13471912D02*
X11136730Y-13395722D01*
X11136730Y-13395722D02*
X11146253Y-13376674D01*
X11146253Y-13376674D02*
X11165301Y-13367150D01*
X11165301Y-13367150D02*
X11203396Y-13367150D01*
X11203396Y-13367150D02*
X11222444Y-13376674D01*
X11222444Y-13376674D02*
X11231968Y-13395722D01*
X11231968Y-13395722D02*
X11231968Y-13414769D01*
X11231968Y-13414769D02*
X11136730Y-13433817D01*
X11308158Y-13490960D02*
X11327206Y-13500484D01*
X11327206Y-13500484D02*
X11365301Y-13500484D01*
X11365301Y-13500484D02*
X11384349Y-13490960D01*
X11384349Y-13490960D02*
X11393872Y-13471912D01*
X11393872Y-13471912D02*
X11393872Y-13462388D01*
X11393872Y-13462388D02*
X11384349Y-13443341D01*
X11384349Y-13443341D02*
X11365301Y-13433817D01*
X11365301Y-13433817D02*
X11336730Y-13433817D01*
X11336730Y-13433817D02*
X11317682Y-13424293D01*
X11317682Y-13424293D02*
X11308158Y-13405246D01*
X11308158Y-13405246D02*
X11308158Y-13395722D01*
X11308158Y-13395722D02*
X11317682Y-13376674D01*
X11317682Y-13376674D02*
X11336730Y-13367150D01*
X11336730Y-13367150D02*
X11365301Y-13367150D01*
X11365301Y-13367150D02*
X11384349Y-13376674D01*
X11460539Y-13576674D02*
X11470063Y-13567150D01*
X11470063Y-13567150D02*
X11489111Y-13538579D01*
X11489111Y-13538579D02*
X11498634Y-13519531D01*
X11498634Y-13519531D02*
X11508158Y-13490960D01*
X11508158Y-13490960D02*
X11517682Y-13443341D01*
X11517682Y-13443341D02*
X11517682Y-13405246D01*
X11517682Y-13405246D02*
X11508158Y-13357627D01*
X11508158Y-13357627D02*
X11498634Y-13329055D01*
X11498634Y-13329055D02*
X11489111Y-13310008D01*
X11489111Y-13310008D02*
X11470063Y-13281436D01*
X11470063Y-13281436D02*
X11460539Y-13271912D01*
D10*
X6447500Y-13625500D02*
X6447500Y-13720500D01*
X6400000Y-13673000D02*
X6495000Y-13673000D01*
D11*
X6793872Y-13564484D02*
X6812920Y-13564484D01*
X6812920Y-13564484D02*
X6831967Y-13574008D01*
X6831967Y-13574008D02*
X6841491Y-13583531D01*
X6841491Y-13583531D02*
X6851015Y-13602579D01*
X6851015Y-13602579D02*
X6860539Y-13640674D01*
X6860539Y-13640674D02*
X6860539Y-13688293D01*
X6860539Y-13688293D02*
X6851015Y-13726388D01*
X6851015Y-13726388D02*
X6841491Y-13745436D01*
X6841491Y-13745436D02*
X6831967Y-13754960D01*
X6831967Y-13754960D02*
X6812920Y-13764484D01*
X6812920Y-13764484D02*
X6793872Y-13764484D01*
X6793872Y-13764484D02*
X6774824Y-13754960D01*
X6774824Y-13754960D02*
X6765301Y-13745436D01*
X6765301Y-13745436D02*
X6755777Y-13726388D01*
X6755777Y-13726388D02*
X6746253Y-13688293D01*
X6746253Y-13688293D02*
X6746253Y-13640674D01*
X6746253Y-13640674D02*
X6755777Y-13602579D01*
X6755777Y-13602579D02*
X6765301Y-13583531D01*
X6765301Y-13583531D02*
X6774824Y-13574008D01*
X6774824Y-13574008D02*
X6793872Y-13564484D01*
X6946253Y-13745436D02*
X6955777Y-13754960D01*
X6955777Y-13754960D02*
X6946253Y-13764484D01*
X6946253Y-13764484D02*
X6936729Y-13754960D01*
X6936729Y-13754960D02*
X6946253Y-13745436D01*
X6946253Y-13745436D02*
X6946253Y-13764484D01*
X7051015Y-13764484D02*
X7089110Y-13764484D01*
X7089110Y-13764484D02*
X7108158Y-13754960D01*
X7108158Y-13754960D02*
X7117682Y-13745436D01*
X7117682Y-13745436D02*
X7136729Y-13716865D01*
X7136729Y-13716865D02*
X7146253Y-13678769D01*
X7146253Y-13678769D02*
X7146253Y-13602579D01*
X7146253Y-13602579D02*
X7136729Y-13583531D01*
X7136729Y-13583531D02*
X7127205Y-13574008D01*
X7127205Y-13574008D02*
X7108158Y-13564484D01*
X7108158Y-13564484D02*
X7070062Y-13564484D01*
X7070062Y-13564484D02*
X7051015Y-13574008D01*
X7051015Y-13574008D02*
X7041491Y-13583531D01*
X7041491Y-13583531D02*
X7031967Y-13602579D01*
X7031967Y-13602579D02*
X7031967Y-13650198D01*
X7031967Y-13650198D02*
X7041491Y-13669246D01*
X7041491Y-13669246D02*
X7051015Y-13678769D01*
X7051015Y-13678769D02*
X7070062Y-13688293D01*
X7070062Y-13688293D02*
X7108158Y-13688293D01*
X7108158Y-13688293D02*
X7127205Y-13678769D01*
X7127205Y-13678769D02*
X7136729Y-13669246D01*
X7136729Y-13669246D02*
X7146253Y-13650198D01*
X7327205Y-13564484D02*
X7231967Y-13564484D01*
X7231967Y-13564484D02*
X7222443Y-13659722D01*
X7222443Y-13659722D02*
X7231967Y-13650198D01*
X7231967Y-13650198D02*
X7251015Y-13640674D01*
X7251015Y-13640674D02*
X7298634Y-13640674D01*
X7298634Y-13640674D02*
X7317682Y-13650198D01*
X7317682Y-13650198D02*
X7327205Y-13659722D01*
X7327205Y-13659722D02*
X7336729Y-13678769D01*
X7336729Y-13678769D02*
X7336729Y-13726388D01*
X7336729Y-13726388D02*
X7327205Y-13745436D01*
X7327205Y-13745436D02*
X7317682Y-13754960D01*
X7317682Y-13754960D02*
X7298634Y-13764484D01*
X7298634Y-13764484D02*
X7251015Y-13764484D01*
X7251015Y-13764484D02*
X7231967Y-13754960D01*
X7231967Y-13754960D02*
X7222443Y-13745436D01*
X7460539Y-13564484D02*
X7479586Y-13564484D01*
X7479586Y-13564484D02*
X7498634Y-13574008D01*
X7498634Y-13574008D02*
X7508158Y-13583531D01*
X7508158Y-13583531D02*
X7517682Y-13602579D01*
X7517682Y-13602579D02*
X7527205Y-13640674D01*
X7527205Y-13640674D02*
X7527205Y-13688293D01*
X7527205Y-13688293D02*
X7517682Y-13726388D01*
X7517682Y-13726388D02*
X7508158Y-13745436D01*
X7508158Y-13745436D02*
X7498634Y-13754960D01*
X7498634Y-13754960D02*
X7479586Y-13764484D01*
X7479586Y-13764484D02*
X7460539Y-13764484D01*
X7460539Y-13764484D02*
X7441491Y-13754960D01*
X7441491Y-13754960D02*
X7431967Y-13745436D01*
X7431967Y-13745436D02*
X7422443Y-13726388D01*
X7422443Y-13726388D02*
X7412920Y-13688293D01*
X7412920Y-13688293D02*
X7412920Y-13640674D01*
X7412920Y-13640674D02*
X7422443Y-13602579D01*
X7422443Y-13602579D02*
X7431967Y-13583531D01*
X7431967Y-13583531D02*
X7441491Y-13574008D01*
X7441491Y-13574008D02*
X7460539Y-13564484D01*
X7612920Y-13764484D02*
X7612920Y-13631150D01*
X7612920Y-13650198D02*
X7622443Y-13640674D01*
X7622443Y-13640674D02*
X7641491Y-13631150D01*
X7641491Y-13631150D02*
X7670063Y-13631150D01*
X7670063Y-13631150D02*
X7689110Y-13640674D01*
X7689110Y-13640674D02*
X7698634Y-13659722D01*
X7698634Y-13659722D02*
X7698634Y-13764484D01*
X7698634Y-13659722D02*
X7708158Y-13640674D01*
X7708158Y-13640674D02*
X7727205Y-13631150D01*
X7727205Y-13631150D02*
X7755777Y-13631150D01*
X7755777Y-13631150D02*
X7774824Y-13640674D01*
X7774824Y-13640674D02*
X7784348Y-13659722D01*
X7784348Y-13659722D02*
X7784348Y-13764484D01*
X7879586Y-13764484D02*
X7879586Y-13631150D01*
X7879586Y-13650198D02*
X7889110Y-13640674D01*
X7889110Y-13640674D02*
X7908158Y-13631150D01*
X7908158Y-13631150D02*
X7936729Y-13631150D01*
X7936729Y-13631150D02*
X7955777Y-13640674D01*
X7955777Y-13640674D02*
X7965301Y-13659722D01*
X7965301Y-13659722D02*
X7965301Y-13764484D01*
X7965301Y-13659722D02*
X7974824Y-13640674D01*
X7974824Y-13640674D02*
X7993872Y-13631150D01*
X7993872Y-13631150D02*
X8022443Y-13631150D01*
X8022443Y-13631150D02*
X8041491Y-13640674D01*
X8041491Y-13640674D02*
X8051015Y-13659722D01*
X8051015Y-13659722D02*
X8051015Y-13764484D01*
X8441491Y-13554960D02*
X8270063Y-13812103D01*
X8698634Y-13564484D02*
X8717682Y-13564484D01*
X8717682Y-13564484D02*
X8736729Y-13574008D01*
X8736729Y-13574008D02*
X8746253Y-13583531D01*
X8746253Y-13583531D02*
X8755777Y-13602579D01*
X8755777Y-13602579D02*
X8765301Y-13640674D01*
X8765301Y-13640674D02*
X8765301Y-13688293D01*
X8765301Y-13688293D02*
X8755777Y-13726388D01*
X8755777Y-13726388D02*
X8746253Y-13745436D01*
X8746253Y-13745436D02*
X8736729Y-13754960D01*
X8736729Y-13754960D02*
X8717682Y-13764484D01*
X8717682Y-13764484D02*
X8698634Y-13764484D01*
X8698634Y-13764484D02*
X8679587Y-13754960D01*
X8679587Y-13754960D02*
X8670063Y-13745436D01*
X8670063Y-13745436D02*
X8660539Y-13726388D01*
X8660539Y-13726388D02*
X8651015Y-13688293D01*
X8651015Y-13688293D02*
X8651015Y-13640674D01*
X8651015Y-13640674D02*
X8660539Y-13602579D01*
X8660539Y-13602579D02*
X8670063Y-13583531D01*
X8670063Y-13583531D02*
X8679587Y-13574008D01*
X8679587Y-13574008D02*
X8698634Y-13564484D01*
X8851015Y-13745436D02*
X8860539Y-13754960D01*
X8860539Y-13754960D02*
X8851015Y-13764484D01*
X8851015Y-13764484D02*
X8841491Y-13754960D01*
X8841491Y-13754960D02*
X8851015Y-13745436D01*
X8851015Y-13745436D02*
X8851015Y-13764484D01*
X8984348Y-13564484D02*
X9003396Y-13564484D01*
X9003396Y-13564484D02*
X9022444Y-13574008D01*
X9022444Y-13574008D02*
X9031968Y-13583531D01*
X9031968Y-13583531D02*
X9041491Y-13602579D01*
X9041491Y-13602579D02*
X9051015Y-13640674D01*
X9051015Y-13640674D02*
X9051015Y-13688293D01*
X9051015Y-13688293D02*
X9041491Y-13726388D01*
X9041491Y-13726388D02*
X9031968Y-13745436D01*
X9031968Y-13745436D02*
X9022444Y-13754960D01*
X9022444Y-13754960D02*
X9003396Y-13764484D01*
X9003396Y-13764484D02*
X8984348Y-13764484D01*
X8984348Y-13764484D02*
X8965301Y-13754960D01*
X8965301Y-13754960D02*
X8955777Y-13745436D01*
X8955777Y-13745436D02*
X8946253Y-13726388D01*
X8946253Y-13726388D02*
X8936729Y-13688293D01*
X8936729Y-13688293D02*
X8936729Y-13640674D01*
X8936729Y-13640674D02*
X8946253Y-13602579D01*
X8946253Y-13602579D02*
X8955777Y-13583531D01*
X8955777Y-13583531D02*
X8965301Y-13574008D01*
X8965301Y-13574008D02*
X8984348Y-13564484D01*
X9117682Y-13564484D02*
X9241491Y-13564484D01*
X9241491Y-13564484D02*
X9174825Y-13640674D01*
X9174825Y-13640674D02*
X9203396Y-13640674D01*
X9203396Y-13640674D02*
X9222444Y-13650198D01*
X9222444Y-13650198D02*
X9231968Y-13659722D01*
X9231968Y-13659722D02*
X9241491Y-13678769D01*
X9241491Y-13678769D02*
X9241491Y-13726388D01*
X9241491Y-13726388D02*
X9231968Y-13745436D01*
X9231968Y-13745436D02*
X9222444Y-13754960D01*
X9222444Y-13754960D02*
X9203396Y-13764484D01*
X9203396Y-13764484D02*
X9146253Y-13764484D01*
X9146253Y-13764484D02*
X9127206Y-13754960D01*
X9127206Y-13754960D02*
X9117682Y-13745436D01*
X9308158Y-13564484D02*
X9441491Y-13564484D01*
X9441491Y-13564484D02*
X9355777Y-13764484D01*
X9603396Y-13631150D02*
X9603396Y-13764484D01*
X9555777Y-13554960D02*
X9508158Y-13697817D01*
X9508158Y-13697817D02*
X9631968Y-13697817D01*
X9698634Y-13564484D02*
X9698634Y-13602579D01*
X9774825Y-13564484D02*
X9774825Y-13602579D01*
X10070063Y-13840674D02*
X10060539Y-13831150D01*
X10060539Y-13831150D02*
X10041491Y-13802579D01*
X10041491Y-13802579D02*
X10031968Y-13783531D01*
X10031968Y-13783531D02*
X10022444Y-13754960D01*
X10022444Y-13754960D02*
X10012920Y-13707341D01*
X10012920Y-13707341D02*
X10012920Y-13669246D01*
X10012920Y-13669246D02*
X10022444Y-13621627D01*
X10022444Y-13621627D02*
X10031968Y-13593055D01*
X10031968Y-13593055D02*
X10041491Y-13574008D01*
X10041491Y-13574008D02*
X10060539Y-13545436D01*
X10060539Y-13545436D02*
X10070063Y-13535912D01*
X10231968Y-13564484D02*
X10193872Y-13564484D01*
X10193872Y-13564484D02*
X10174825Y-13574008D01*
X10174825Y-13574008D02*
X10165301Y-13583531D01*
X10165301Y-13583531D02*
X10146253Y-13612103D01*
X10146253Y-13612103D02*
X10136730Y-13650198D01*
X10136730Y-13650198D02*
X10136730Y-13726388D01*
X10136730Y-13726388D02*
X10146253Y-13745436D01*
X10146253Y-13745436D02*
X10155777Y-13754960D01*
X10155777Y-13754960D02*
X10174825Y-13764484D01*
X10174825Y-13764484D02*
X10212920Y-13764484D01*
X10212920Y-13764484D02*
X10231968Y-13754960D01*
X10231968Y-13754960D02*
X10241491Y-13745436D01*
X10241491Y-13745436D02*
X10251015Y-13726388D01*
X10251015Y-13726388D02*
X10251015Y-13678769D01*
X10251015Y-13678769D02*
X10241491Y-13659722D01*
X10241491Y-13659722D02*
X10231968Y-13650198D01*
X10231968Y-13650198D02*
X10212920Y-13640674D01*
X10212920Y-13640674D02*
X10174825Y-13640674D01*
X10174825Y-13640674D02*
X10155777Y-13650198D01*
X10155777Y-13650198D02*
X10146253Y-13659722D01*
X10146253Y-13659722D02*
X10136730Y-13678769D01*
X10489111Y-13764484D02*
X10489111Y-13564484D01*
X10574825Y-13764484D02*
X10574825Y-13659722D01*
X10574825Y-13659722D02*
X10565301Y-13640674D01*
X10565301Y-13640674D02*
X10546253Y-13631150D01*
X10546253Y-13631150D02*
X10517682Y-13631150D01*
X10517682Y-13631150D02*
X10498634Y-13640674D01*
X10498634Y-13640674D02*
X10489111Y-13650198D01*
X10698634Y-13764484D02*
X10679587Y-13754960D01*
X10679587Y-13754960D02*
X10670063Y-13745436D01*
X10670063Y-13745436D02*
X10660539Y-13726388D01*
X10660539Y-13726388D02*
X10660539Y-13669246D01*
X10660539Y-13669246D02*
X10670063Y-13650198D01*
X10670063Y-13650198D02*
X10679587Y-13640674D01*
X10679587Y-13640674D02*
X10698634Y-13631150D01*
X10698634Y-13631150D02*
X10727206Y-13631150D01*
X10727206Y-13631150D02*
X10746253Y-13640674D01*
X10746253Y-13640674D02*
X10755777Y-13650198D01*
X10755777Y-13650198D02*
X10765301Y-13669246D01*
X10765301Y-13669246D02*
X10765301Y-13726388D01*
X10765301Y-13726388D02*
X10755777Y-13745436D01*
X10755777Y-13745436D02*
X10746253Y-13754960D01*
X10746253Y-13754960D02*
X10727206Y-13764484D01*
X10727206Y-13764484D02*
X10698634Y-13764484D01*
X10879587Y-13764484D02*
X10860539Y-13754960D01*
X10860539Y-13754960D02*
X10851015Y-13735912D01*
X10851015Y-13735912D02*
X10851015Y-13564484D01*
X11031968Y-13754960D02*
X11012920Y-13764484D01*
X11012920Y-13764484D02*
X10974825Y-13764484D01*
X10974825Y-13764484D02*
X10955777Y-13754960D01*
X10955777Y-13754960D02*
X10946253Y-13735912D01*
X10946253Y-13735912D02*
X10946253Y-13659722D01*
X10946253Y-13659722D02*
X10955777Y-13640674D01*
X10955777Y-13640674D02*
X10974825Y-13631150D01*
X10974825Y-13631150D02*
X11012920Y-13631150D01*
X11012920Y-13631150D02*
X11031968Y-13640674D01*
X11031968Y-13640674D02*
X11041492Y-13659722D01*
X11041492Y-13659722D02*
X11041492Y-13678769D01*
X11041492Y-13678769D02*
X10946253Y-13697817D01*
X11117682Y-13754960D02*
X11136730Y-13764484D01*
X11136730Y-13764484D02*
X11174825Y-13764484D01*
X11174825Y-13764484D02*
X11193872Y-13754960D01*
X11193872Y-13754960D02*
X11203396Y-13735912D01*
X11203396Y-13735912D02*
X11203396Y-13726388D01*
X11203396Y-13726388D02*
X11193872Y-13707341D01*
X11193872Y-13707341D02*
X11174825Y-13697817D01*
X11174825Y-13697817D02*
X11146253Y-13697817D01*
X11146253Y-13697817D02*
X11127206Y-13688293D01*
X11127206Y-13688293D02*
X11117682Y-13669246D01*
X11117682Y-13669246D02*
X11117682Y-13659722D01*
X11117682Y-13659722D02*
X11127206Y-13640674D01*
X11127206Y-13640674D02*
X11146253Y-13631150D01*
X11146253Y-13631150D02*
X11174825Y-13631150D01*
X11174825Y-13631150D02*
X11193872Y-13640674D01*
X11270063Y-13840674D02*
X11279587Y-13831150D01*
X11279587Y-13831150D02*
X11298634Y-13802579D01*
X11298634Y-13802579D02*
X11308158Y-13783531D01*
X11308158Y-13783531D02*
X11317682Y-13754960D01*
X11317682Y-13754960D02*
X11327206Y-13707341D01*
X11327206Y-13707341D02*
X11327206Y-13669246D01*
X11327206Y-13669246D02*
X11317682Y-13621627D01*
X11317682Y-13621627D02*
X11308158Y-13593055D01*
X11308158Y-13593055D02*
X11298634Y-13574008D01*
X11298634Y-13574008D02*
X11279587Y-13545436D01*
X11279587Y-13545436D02*
X11270063Y-13535912D01*
D10*
X6480356Y-13972356D02*
X6480356Y-13901644D01*
X6409644Y-13901644D01*
X6409644Y-13972356D01*
X6480356Y-13972356D01*
D11*
X6860539Y-14028484D02*
X6746253Y-14028484D01*
X6803396Y-14028484D02*
X6803396Y-13828484D01*
X6803396Y-13828484D02*
X6784348Y-13857055D01*
X6784348Y-13857055D02*
X6765301Y-13876103D01*
X6765301Y-13876103D02*
X6746253Y-13885627D01*
X6946253Y-14009436D02*
X6955777Y-14018960D01*
X6955777Y-14018960D02*
X6946253Y-14028484D01*
X6946253Y-14028484D02*
X6936729Y-14018960D01*
X6936729Y-14018960D02*
X6946253Y-14009436D01*
X6946253Y-14009436D02*
X6946253Y-14028484D01*
X7079586Y-13828484D02*
X7098634Y-13828484D01*
X7098634Y-13828484D02*
X7117682Y-13838008D01*
X7117682Y-13838008D02*
X7127205Y-13847531D01*
X7127205Y-13847531D02*
X7136729Y-13866579D01*
X7136729Y-13866579D02*
X7146253Y-13904674D01*
X7146253Y-13904674D02*
X7146253Y-13952293D01*
X7146253Y-13952293D02*
X7136729Y-13990388D01*
X7136729Y-13990388D02*
X7127205Y-14009436D01*
X7127205Y-14009436D02*
X7117682Y-14018960D01*
X7117682Y-14018960D02*
X7098634Y-14028484D01*
X7098634Y-14028484D02*
X7079586Y-14028484D01*
X7079586Y-14028484D02*
X7060539Y-14018960D01*
X7060539Y-14018960D02*
X7051015Y-14009436D01*
X7051015Y-14009436D02*
X7041491Y-13990388D01*
X7041491Y-13990388D02*
X7031967Y-13952293D01*
X7031967Y-13952293D02*
X7031967Y-13904674D01*
X7031967Y-13904674D02*
X7041491Y-13866579D01*
X7041491Y-13866579D02*
X7051015Y-13847531D01*
X7051015Y-13847531D02*
X7060539Y-13838008D01*
X7060539Y-13838008D02*
X7079586Y-13828484D01*
X7270062Y-13828484D02*
X7289110Y-13828484D01*
X7289110Y-13828484D02*
X7308158Y-13838008D01*
X7308158Y-13838008D02*
X7317682Y-13847531D01*
X7317682Y-13847531D02*
X7327205Y-13866579D01*
X7327205Y-13866579D02*
X7336729Y-13904674D01*
X7336729Y-13904674D02*
X7336729Y-13952293D01*
X7336729Y-13952293D02*
X7327205Y-13990388D01*
X7327205Y-13990388D02*
X7317682Y-14009436D01*
X7317682Y-14009436D02*
X7308158Y-14018960D01*
X7308158Y-14018960D02*
X7289110Y-14028484D01*
X7289110Y-14028484D02*
X7270062Y-14028484D01*
X7270062Y-14028484D02*
X7251015Y-14018960D01*
X7251015Y-14018960D02*
X7241491Y-14009436D01*
X7241491Y-14009436D02*
X7231967Y-13990388D01*
X7231967Y-13990388D02*
X7222443Y-13952293D01*
X7222443Y-13952293D02*
X7222443Y-13904674D01*
X7222443Y-13904674D02*
X7231967Y-13866579D01*
X7231967Y-13866579D02*
X7241491Y-13847531D01*
X7241491Y-13847531D02*
X7251015Y-13838008D01*
X7251015Y-13838008D02*
X7270062Y-13828484D01*
X7460539Y-13828484D02*
X7479586Y-13828484D01*
X7479586Y-13828484D02*
X7498634Y-13838008D01*
X7498634Y-13838008D02*
X7508158Y-13847531D01*
X7508158Y-13847531D02*
X7517682Y-13866579D01*
X7517682Y-13866579D02*
X7527205Y-13904674D01*
X7527205Y-13904674D02*
X7527205Y-13952293D01*
X7527205Y-13952293D02*
X7517682Y-13990388D01*
X7517682Y-13990388D02*
X7508158Y-14009436D01*
X7508158Y-14009436D02*
X7498634Y-14018960D01*
X7498634Y-14018960D02*
X7479586Y-14028484D01*
X7479586Y-14028484D02*
X7460539Y-14028484D01*
X7460539Y-14028484D02*
X7441491Y-14018960D01*
X7441491Y-14018960D02*
X7431967Y-14009436D01*
X7431967Y-14009436D02*
X7422443Y-13990388D01*
X7422443Y-13990388D02*
X7412920Y-13952293D01*
X7412920Y-13952293D02*
X7412920Y-13904674D01*
X7412920Y-13904674D02*
X7422443Y-13866579D01*
X7422443Y-13866579D02*
X7431967Y-13847531D01*
X7431967Y-13847531D02*
X7441491Y-13838008D01*
X7441491Y-13838008D02*
X7460539Y-13828484D01*
X7612920Y-14028484D02*
X7612920Y-13895150D01*
X7612920Y-13914198D02*
X7622443Y-13904674D01*
X7622443Y-13904674D02*
X7641491Y-13895150D01*
X7641491Y-13895150D02*
X7670063Y-13895150D01*
X7670063Y-13895150D02*
X7689110Y-13904674D01*
X7689110Y-13904674D02*
X7698634Y-13923722D01*
X7698634Y-13923722D02*
X7698634Y-14028484D01*
X7698634Y-13923722D02*
X7708158Y-13904674D01*
X7708158Y-13904674D02*
X7727205Y-13895150D01*
X7727205Y-13895150D02*
X7755777Y-13895150D01*
X7755777Y-13895150D02*
X7774824Y-13904674D01*
X7774824Y-13904674D02*
X7784348Y-13923722D01*
X7784348Y-13923722D02*
X7784348Y-14028484D01*
X7879586Y-14028484D02*
X7879586Y-13895150D01*
X7879586Y-13914198D02*
X7889110Y-13904674D01*
X7889110Y-13904674D02*
X7908158Y-13895150D01*
X7908158Y-13895150D02*
X7936729Y-13895150D01*
X7936729Y-13895150D02*
X7955777Y-13904674D01*
X7955777Y-13904674D02*
X7965301Y-13923722D01*
X7965301Y-13923722D02*
X7965301Y-14028484D01*
X7965301Y-13923722D02*
X7974824Y-13904674D01*
X7974824Y-13904674D02*
X7993872Y-13895150D01*
X7993872Y-13895150D02*
X8022443Y-13895150D01*
X8022443Y-13895150D02*
X8041491Y-13904674D01*
X8041491Y-13904674D02*
X8051015Y-13923722D01*
X8051015Y-13923722D02*
X8051015Y-14028484D01*
X8441491Y-13818960D02*
X8270063Y-14076103D01*
X8698634Y-13828484D02*
X8717682Y-13828484D01*
X8717682Y-13828484D02*
X8736729Y-13838008D01*
X8736729Y-13838008D02*
X8746253Y-13847531D01*
X8746253Y-13847531D02*
X8755777Y-13866579D01*
X8755777Y-13866579D02*
X8765301Y-13904674D01*
X8765301Y-13904674D02*
X8765301Y-13952293D01*
X8765301Y-13952293D02*
X8755777Y-13990388D01*
X8755777Y-13990388D02*
X8746253Y-14009436D01*
X8746253Y-14009436D02*
X8736729Y-14018960D01*
X8736729Y-14018960D02*
X8717682Y-14028484D01*
X8717682Y-14028484D02*
X8698634Y-14028484D01*
X8698634Y-14028484D02*
X8679587Y-14018960D01*
X8679587Y-14018960D02*
X8670063Y-14009436D01*
X8670063Y-14009436D02*
X8660539Y-13990388D01*
X8660539Y-13990388D02*
X8651015Y-13952293D01*
X8651015Y-13952293D02*
X8651015Y-13904674D01*
X8651015Y-13904674D02*
X8660539Y-13866579D01*
X8660539Y-13866579D02*
X8670063Y-13847531D01*
X8670063Y-13847531D02*
X8679587Y-13838008D01*
X8679587Y-13838008D02*
X8698634Y-13828484D01*
X8851015Y-14009436D02*
X8860539Y-14018960D01*
X8860539Y-14018960D02*
X8851015Y-14028484D01*
X8851015Y-14028484D02*
X8841491Y-14018960D01*
X8841491Y-14018960D02*
X8851015Y-14009436D01*
X8851015Y-14009436D02*
X8851015Y-14028484D01*
X8984348Y-13828484D02*
X9003396Y-13828484D01*
X9003396Y-13828484D02*
X9022444Y-13838008D01*
X9022444Y-13838008D02*
X9031968Y-13847531D01*
X9031968Y-13847531D02*
X9041491Y-13866579D01*
X9041491Y-13866579D02*
X9051015Y-13904674D01*
X9051015Y-13904674D02*
X9051015Y-13952293D01*
X9051015Y-13952293D02*
X9041491Y-13990388D01*
X9041491Y-13990388D02*
X9031968Y-14009436D01*
X9031968Y-14009436D02*
X9022444Y-14018960D01*
X9022444Y-14018960D02*
X9003396Y-14028484D01*
X9003396Y-14028484D02*
X8984348Y-14028484D01*
X8984348Y-14028484D02*
X8965301Y-14018960D01*
X8965301Y-14018960D02*
X8955777Y-14009436D01*
X8955777Y-14009436D02*
X8946253Y-13990388D01*
X8946253Y-13990388D02*
X8936729Y-13952293D01*
X8936729Y-13952293D02*
X8936729Y-13904674D01*
X8936729Y-13904674D02*
X8946253Y-13866579D01*
X8946253Y-13866579D02*
X8955777Y-13847531D01*
X8955777Y-13847531D02*
X8965301Y-13838008D01*
X8965301Y-13838008D02*
X8984348Y-13828484D01*
X9117682Y-13828484D02*
X9241491Y-13828484D01*
X9241491Y-13828484D02*
X9174825Y-13904674D01*
X9174825Y-13904674D02*
X9203396Y-13904674D01*
X9203396Y-13904674D02*
X9222444Y-13914198D01*
X9222444Y-13914198D02*
X9231968Y-13923722D01*
X9231968Y-13923722D02*
X9241491Y-13942769D01*
X9241491Y-13942769D02*
X9241491Y-13990388D01*
X9241491Y-13990388D02*
X9231968Y-14009436D01*
X9231968Y-14009436D02*
X9222444Y-14018960D01*
X9222444Y-14018960D02*
X9203396Y-14028484D01*
X9203396Y-14028484D02*
X9146253Y-14028484D01*
X9146253Y-14028484D02*
X9127206Y-14018960D01*
X9127206Y-14018960D02*
X9117682Y-14009436D01*
X9336729Y-14028484D02*
X9374825Y-14028484D01*
X9374825Y-14028484D02*
X9393872Y-14018960D01*
X9393872Y-14018960D02*
X9403396Y-14009436D01*
X9403396Y-14009436D02*
X9422444Y-13980865D01*
X9422444Y-13980865D02*
X9431968Y-13942769D01*
X9431968Y-13942769D02*
X9431968Y-13866579D01*
X9431968Y-13866579D02*
X9422444Y-13847531D01*
X9422444Y-13847531D02*
X9412920Y-13838008D01*
X9412920Y-13838008D02*
X9393872Y-13828484D01*
X9393872Y-13828484D02*
X9355777Y-13828484D01*
X9355777Y-13828484D02*
X9336729Y-13838008D01*
X9336729Y-13838008D02*
X9327206Y-13847531D01*
X9327206Y-13847531D02*
X9317682Y-13866579D01*
X9317682Y-13866579D02*
X9317682Y-13914198D01*
X9317682Y-13914198D02*
X9327206Y-13933246D01*
X9327206Y-13933246D02*
X9336729Y-13942769D01*
X9336729Y-13942769D02*
X9355777Y-13952293D01*
X9355777Y-13952293D02*
X9393872Y-13952293D01*
X9393872Y-13952293D02*
X9412920Y-13942769D01*
X9412920Y-13942769D02*
X9422444Y-13933246D01*
X9422444Y-13933246D02*
X9431968Y-13914198D01*
X9603396Y-13895150D02*
X9603396Y-14028484D01*
X9555777Y-13818960D02*
X9508158Y-13961817D01*
X9508158Y-13961817D02*
X9631968Y-13961817D01*
X9698634Y-13828484D02*
X9698634Y-13866579D01*
X9774825Y-13828484D02*
X9774825Y-13866579D01*
X10070063Y-14104674D02*
X10060539Y-14095150D01*
X10060539Y-14095150D02*
X10041491Y-14066579D01*
X10041491Y-14066579D02*
X10031968Y-14047531D01*
X10031968Y-14047531D02*
X10022444Y-14018960D01*
X10022444Y-14018960D02*
X10012920Y-13971341D01*
X10012920Y-13971341D02*
X10012920Y-13933246D01*
X10012920Y-13933246D02*
X10022444Y-13885627D01*
X10022444Y-13885627D02*
X10031968Y-13857055D01*
X10031968Y-13857055D02*
X10041491Y-13838008D01*
X10041491Y-13838008D02*
X10060539Y-13809436D01*
X10060539Y-13809436D02*
X10070063Y-13799912D01*
X10231968Y-13895150D02*
X10231968Y-14028484D01*
X10184349Y-13818960D02*
X10136730Y-13961817D01*
X10136730Y-13961817D02*
X10260539Y-13961817D01*
X10365301Y-13914198D02*
X10346253Y-13904674D01*
X10346253Y-13904674D02*
X10336730Y-13895150D01*
X10336730Y-13895150D02*
X10327206Y-13876103D01*
X10327206Y-13876103D02*
X10327206Y-13866579D01*
X10327206Y-13866579D02*
X10336730Y-13847531D01*
X10336730Y-13847531D02*
X10346253Y-13838008D01*
X10346253Y-13838008D02*
X10365301Y-13828484D01*
X10365301Y-13828484D02*
X10403396Y-13828484D01*
X10403396Y-13828484D02*
X10422444Y-13838008D01*
X10422444Y-13838008D02*
X10431968Y-13847531D01*
X10431968Y-13847531D02*
X10441491Y-13866579D01*
X10441491Y-13866579D02*
X10441491Y-13876103D01*
X10441491Y-13876103D02*
X10431968Y-13895150D01*
X10431968Y-13895150D02*
X10422444Y-13904674D01*
X10422444Y-13904674D02*
X10403396Y-13914198D01*
X10403396Y-13914198D02*
X10365301Y-13914198D01*
X10365301Y-13914198D02*
X10346253Y-13923722D01*
X10346253Y-13923722D02*
X10336730Y-13933246D01*
X10336730Y-13933246D02*
X10327206Y-13952293D01*
X10327206Y-13952293D02*
X10327206Y-13990388D01*
X10327206Y-13990388D02*
X10336730Y-14009436D01*
X10336730Y-14009436D02*
X10346253Y-14018960D01*
X10346253Y-14018960D02*
X10365301Y-14028484D01*
X10365301Y-14028484D02*
X10403396Y-14028484D01*
X10403396Y-14028484D02*
X10422444Y-14018960D01*
X10422444Y-14018960D02*
X10431968Y-14009436D01*
X10431968Y-14009436D02*
X10441491Y-13990388D01*
X10441491Y-13990388D02*
X10441491Y-13952293D01*
X10441491Y-13952293D02*
X10431968Y-13933246D01*
X10431968Y-13933246D02*
X10422444Y-13923722D01*
X10422444Y-13923722D02*
X10403396Y-13914198D01*
X10679587Y-14028484D02*
X10679587Y-13828484D01*
X10765301Y-14028484D02*
X10765301Y-13923722D01*
X10765301Y-13923722D02*
X10755777Y-13904674D01*
X10755777Y-13904674D02*
X10736730Y-13895150D01*
X10736730Y-13895150D02*
X10708158Y-13895150D01*
X10708158Y-13895150D02*
X10689111Y-13904674D01*
X10689111Y-13904674D02*
X10679587Y-13914198D01*
X10889111Y-14028484D02*
X10870063Y-14018960D01*
X10870063Y-14018960D02*
X10860539Y-14009436D01*
X10860539Y-14009436D02*
X10851015Y-13990388D01*
X10851015Y-13990388D02*
X10851015Y-13933246D01*
X10851015Y-13933246D02*
X10860539Y-13914198D01*
X10860539Y-13914198D02*
X10870063Y-13904674D01*
X10870063Y-13904674D02*
X10889111Y-13895150D01*
X10889111Y-13895150D02*
X10917682Y-13895150D01*
X10917682Y-13895150D02*
X10936730Y-13904674D01*
X10936730Y-13904674D02*
X10946253Y-13914198D01*
X10946253Y-13914198D02*
X10955777Y-13933246D01*
X10955777Y-13933246D02*
X10955777Y-13990388D01*
X10955777Y-13990388D02*
X10946253Y-14009436D01*
X10946253Y-14009436D02*
X10936730Y-14018960D01*
X10936730Y-14018960D02*
X10917682Y-14028484D01*
X10917682Y-14028484D02*
X10889111Y-14028484D01*
X11070063Y-14028484D02*
X11051015Y-14018960D01*
X11051015Y-14018960D02*
X11041492Y-13999912D01*
X11041492Y-13999912D02*
X11041492Y-13828484D01*
X11222444Y-14018960D02*
X11203396Y-14028484D01*
X11203396Y-14028484D02*
X11165301Y-14028484D01*
X11165301Y-14028484D02*
X11146253Y-14018960D01*
X11146253Y-14018960D02*
X11136730Y-13999912D01*
X11136730Y-13999912D02*
X11136730Y-13923722D01*
X11136730Y-13923722D02*
X11146253Y-13904674D01*
X11146253Y-13904674D02*
X11165301Y-13895150D01*
X11165301Y-13895150D02*
X11203396Y-13895150D01*
X11203396Y-13895150D02*
X11222444Y-13904674D01*
X11222444Y-13904674D02*
X11231968Y-13923722D01*
X11231968Y-13923722D02*
X11231968Y-13942769D01*
X11231968Y-13942769D02*
X11136730Y-13961817D01*
X11308158Y-14018960D02*
X11327206Y-14028484D01*
X11327206Y-14028484D02*
X11365301Y-14028484D01*
X11365301Y-14028484D02*
X11384349Y-14018960D01*
X11384349Y-14018960D02*
X11393872Y-13999912D01*
X11393872Y-13999912D02*
X11393872Y-13990388D01*
X11393872Y-13990388D02*
X11384349Y-13971341D01*
X11384349Y-13971341D02*
X11365301Y-13961817D01*
X11365301Y-13961817D02*
X11336730Y-13961817D01*
X11336730Y-13961817D02*
X11317682Y-13952293D01*
X11317682Y-13952293D02*
X11308158Y-13933246D01*
X11308158Y-13933246D02*
X11308158Y-13923722D01*
X11308158Y-13923722D02*
X11317682Y-13904674D01*
X11317682Y-13904674D02*
X11336730Y-13895150D01*
X11336730Y-13895150D02*
X11365301Y-13895150D01*
X11365301Y-13895150D02*
X11384349Y-13904674D01*
X11460539Y-14104674D02*
X11470063Y-14095150D01*
X11470063Y-14095150D02*
X11489111Y-14066579D01*
X11489111Y-14066579D02*
X11498634Y-14047531D01*
X11498634Y-14047531D02*
X11508158Y-14018960D01*
X11508158Y-14018960D02*
X11517682Y-13971341D01*
X11517682Y-13971341D02*
X11517682Y-13933246D01*
X11517682Y-13933246D02*
X11508158Y-13885627D01*
X11508158Y-13885627D02*
X11498634Y-13857055D01*
X11498634Y-13857055D02*
X11489111Y-13838008D01*
X11489111Y-13838008D02*
X11470063Y-13809436D01*
X11470063Y-13809436D02*
X11460539Y-13799912D01*
X6395000Y-14301000D02*
X6495000Y-14201000D01*
X6395000Y-14101000D01*
X6295000Y-14201000D01*
X6395000Y-14301000D01*
X6736729Y-14092484D02*
X6860539Y-14092484D01*
X6860539Y-14092484D02*
X6793872Y-14168674D01*
X6793872Y-14168674D02*
X6822443Y-14168674D01*
X6822443Y-14168674D02*
X6841491Y-14178198D01*
X6841491Y-14178198D02*
X6851015Y-14187722D01*
X6851015Y-14187722D02*
X6860539Y-14206769D01*
X6860539Y-14206769D02*
X6860539Y-14254388D01*
X6860539Y-14254388D02*
X6851015Y-14273436D01*
X6851015Y-14273436D02*
X6841491Y-14282960D01*
X6841491Y-14282960D02*
X6822443Y-14292484D01*
X6822443Y-14292484D02*
X6765301Y-14292484D01*
X6765301Y-14292484D02*
X6746253Y-14282960D01*
X6746253Y-14282960D02*
X6736729Y-14273436D01*
X6946253Y-14273436D02*
X6955777Y-14282960D01*
X6955777Y-14282960D02*
X6946253Y-14292484D01*
X6946253Y-14292484D02*
X6936729Y-14282960D01*
X6936729Y-14282960D02*
X6946253Y-14273436D01*
X6946253Y-14273436D02*
X6946253Y-14292484D01*
X7031967Y-14111531D02*
X7041491Y-14102008D01*
X7041491Y-14102008D02*
X7060539Y-14092484D01*
X7060539Y-14092484D02*
X7108158Y-14092484D01*
X7108158Y-14092484D02*
X7127205Y-14102008D01*
X7127205Y-14102008D02*
X7136729Y-14111531D01*
X7136729Y-14111531D02*
X7146253Y-14130579D01*
X7146253Y-14130579D02*
X7146253Y-14149627D01*
X7146253Y-14149627D02*
X7136729Y-14178198D01*
X7136729Y-14178198D02*
X7022443Y-14292484D01*
X7022443Y-14292484D02*
X7146253Y-14292484D01*
X7270062Y-14092484D02*
X7289110Y-14092484D01*
X7289110Y-14092484D02*
X7308158Y-14102008D01*
X7308158Y-14102008D02*
X7317682Y-14111531D01*
X7317682Y-14111531D02*
X7327205Y-14130579D01*
X7327205Y-14130579D02*
X7336729Y-14168674D01*
X7336729Y-14168674D02*
X7336729Y-14216293D01*
X7336729Y-14216293D02*
X7327205Y-14254388D01*
X7327205Y-14254388D02*
X7317682Y-14273436D01*
X7317682Y-14273436D02*
X7308158Y-14282960D01*
X7308158Y-14282960D02*
X7289110Y-14292484D01*
X7289110Y-14292484D02*
X7270062Y-14292484D01*
X7270062Y-14292484D02*
X7251015Y-14282960D01*
X7251015Y-14282960D02*
X7241491Y-14273436D01*
X7241491Y-14273436D02*
X7231967Y-14254388D01*
X7231967Y-14254388D02*
X7222443Y-14216293D01*
X7222443Y-14216293D02*
X7222443Y-14168674D01*
X7222443Y-14168674D02*
X7231967Y-14130579D01*
X7231967Y-14130579D02*
X7241491Y-14111531D01*
X7241491Y-14111531D02*
X7251015Y-14102008D01*
X7251015Y-14102008D02*
X7270062Y-14092484D01*
X7460539Y-14092484D02*
X7479586Y-14092484D01*
X7479586Y-14092484D02*
X7498634Y-14102008D01*
X7498634Y-14102008D02*
X7508158Y-14111531D01*
X7508158Y-14111531D02*
X7517682Y-14130579D01*
X7517682Y-14130579D02*
X7527205Y-14168674D01*
X7527205Y-14168674D02*
X7527205Y-14216293D01*
X7527205Y-14216293D02*
X7517682Y-14254388D01*
X7517682Y-14254388D02*
X7508158Y-14273436D01*
X7508158Y-14273436D02*
X7498634Y-14282960D01*
X7498634Y-14282960D02*
X7479586Y-14292484D01*
X7479586Y-14292484D02*
X7460539Y-14292484D01*
X7460539Y-14292484D02*
X7441491Y-14282960D01*
X7441491Y-14282960D02*
X7431967Y-14273436D01*
X7431967Y-14273436D02*
X7422443Y-14254388D01*
X7422443Y-14254388D02*
X7412920Y-14216293D01*
X7412920Y-14216293D02*
X7412920Y-14168674D01*
X7412920Y-14168674D02*
X7422443Y-14130579D01*
X7422443Y-14130579D02*
X7431967Y-14111531D01*
X7431967Y-14111531D02*
X7441491Y-14102008D01*
X7441491Y-14102008D02*
X7460539Y-14092484D01*
X7612920Y-14292484D02*
X7612920Y-14159150D01*
X7612920Y-14178198D02*
X7622443Y-14168674D01*
X7622443Y-14168674D02*
X7641491Y-14159150D01*
X7641491Y-14159150D02*
X7670063Y-14159150D01*
X7670063Y-14159150D02*
X7689110Y-14168674D01*
X7689110Y-14168674D02*
X7698634Y-14187722D01*
X7698634Y-14187722D02*
X7698634Y-14292484D01*
X7698634Y-14187722D02*
X7708158Y-14168674D01*
X7708158Y-14168674D02*
X7727205Y-14159150D01*
X7727205Y-14159150D02*
X7755777Y-14159150D01*
X7755777Y-14159150D02*
X7774824Y-14168674D01*
X7774824Y-14168674D02*
X7784348Y-14187722D01*
X7784348Y-14187722D02*
X7784348Y-14292484D01*
X7879586Y-14292484D02*
X7879586Y-14159150D01*
X7879586Y-14178198D02*
X7889110Y-14168674D01*
X7889110Y-14168674D02*
X7908158Y-14159150D01*
X7908158Y-14159150D02*
X7936729Y-14159150D01*
X7936729Y-14159150D02*
X7955777Y-14168674D01*
X7955777Y-14168674D02*
X7965301Y-14187722D01*
X7965301Y-14187722D02*
X7965301Y-14292484D01*
X7965301Y-14187722D02*
X7974824Y-14168674D01*
X7974824Y-14168674D02*
X7993872Y-14159150D01*
X7993872Y-14159150D02*
X8022443Y-14159150D01*
X8022443Y-14159150D02*
X8041491Y-14168674D01*
X8041491Y-14168674D02*
X8051015Y-14187722D01*
X8051015Y-14187722D02*
X8051015Y-14292484D01*
X8441491Y-14082960D02*
X8270063Y-14340103D01*
X8698634Y-14092484D02*
X8717682Y-14092484D01*
X8717682Y-14092484D02*
X8736729Y-14102008D01*
X8736729Y-14102008D02*
X8746253Y-14111531D01*
X8746253Y-14111531D02*
X8755777Y-14130579D01*
X8755777Y-14130579D02*
X8765301Y-14168674D01*
X8765301Y-14168674D02*
X8765301Y-14216293D01*
X8765301Y-14216293D02*
X8755777Y-14254388D01*
X8755777Y-14254388D02*
X8746253Y-14273436D01*
X8746253Y-14273436D02*
X8736729Y-14282960D01*
X8736729Y-14282960D02*
X8717682Y-14292484D01*
X8717682Y-14292484D02*
X8698634Y-14292484D01*
X8698634Y-14292484D02*
X8679587Y-14282960D01*
X8679587Y-14282960D02*
X8670063Y-14273436D01*
X8670063Y-14273436D02*
X8660539Y-14254388D01*
X8660539Y-14254388D02*
X8651015Y-14216293D01*
X8651015Y-14216293D02*
X8651015Y-14168674D01*
X8651015Y-14168674D02*
X8660539Y-14130579D01*
X8660539Y-14130579D02*
X8670063Y-14111531D01*
X8670063Y-14111531D02*
X8679587Y-14102008D01*
X8679587Y-14102008D02*
X8698634Y-14092484D01*
X8851015Y-14273436D02*
X8860539Y-14282960D01*
X8860539Y-14282960D02*
X8851015Y-14292484D01*
X8851015Y-14292484D02*
X8841491Y-14282960D01*
X8841491Y-14282960D02*
X8851015Y-14273436D01*
X8851015Y-14273436D02*
X8851015Y-14292484D01*
X9051015Y-14292484D02*
X8936729Y-14292484D01*
X8993872Y-14292484D02*
X8993872Y-14092484D01*
X8993872Y-14092484D02*
X8974825Y-14121055D01*
X8974825Y-14121055D02*
X8955777Y-14140103D01*
X8955777Y-14140103D02*
X8936729Y-14149627D01*
X9127206Y-14111531D02*
X9136729Y-14102008D01*
X9136729Y-14102008D02*
X9155777Y-14092484D01*
X9155777Y-14092484D02*
X9203396Y-14092484D01*
X9203396Y-14092484D02*
X9222444Y-14102008D01*
X9222444Y-14102008D02*
X9231968Y-14111531D01*
X9231968Y-14111531D02*
X9241491Y-14130579D01*
X9241491Y-14130579D02*
X9241491Y-14149627D01*
X9241491Y-14149627D02*
X9231968Y-14178198D01*
X9231968Y-14178198D02*
X9117682Y-14292484D01*
X9117682Y-14292484D02*
X9241491Y-14292484D01*
X9412920Y-14092484D02*
X9374825Y-14092484D01*
X9374825Y-14092484D02*
X9355777Y-14102008D01*
X9355777Y-14102008D02*
X9346253Y-14111531D01*
X9346253Y-14111531D02*
X9327206Y-14140103D01*
X9327206Y-14140103D02*
X9317682Y-14178198D01*
X9317682Y-14178198D02*
X9317682Y-14254388D01*
X9317682Y-14254388D02*
X9327206Y-14273436D01*
X9327206Y-14273436D02*
X9336729Y-14282960D01*
X9336729Y-14282960D02*
X9355777Y-14292484D01*
X9355777Y-14292484D02*
X9393872Y-14292484D01*
X9393872Y-14292484D02*
X9412920Y-14282960D01*
X9412920Y-14282960D02*
X9422444Y-14273436D01*
X9422444Y-14273436D02*
X9431968Y-14254388D01*
X9431968Y-14254388D02*
X9431968Y-14206769D01*
X9431968Y-14206769D02*
X9422444Y-14187722D01*
X9422444Y-14187722D02*
X9412920Y-14178198D01*
X9412920Y-14178198D02*
X9393872Y-14168674D01*
X9393872Y-14168674D02*
X9355777Y-14168674D01*
X9355777Y-14168674D02*
X9336729Y-14178198D01*
X9336729Y-14178198D02*
X9327206Y-14187722D01*
X9327206Y-14187722D02*
X9317682Y-14206769D01*
X9555777Y-14092484D02*
X9574825Y-14092484D01*
X9574825Y-14092484D02*
X9593872Y-14102008D01*
X9593872Y-14102008D02*
X9603396Y-14111531D01*
X9603396Y-14111531D02*
X9612920Y-14130579D01*
X9612920Y-14130579D02*
X9622444Y-14168674D01*
X9622444Y-14168674D02*
X9622444Y-14216293D01*
X9622444Y-14216293D02*
X9612920Y-14254388D01*
X9612920Y-14254388D02*
X9603396Y-14273436D01*
X9603396Y-14273436D02*
X9593872Y-14282960D01*
X9593872Y-14282960D02*
X9574825Y-14292484D01*
X9574825Y-14292484D02*
X9555777Y-14292484D01*
X9555777Y-14292484D02*
X9536729Y-14282960D01*
X9536729Y-14282960D02*
X9527206Y-14273436D01*
X9527206Y-14273436D02*
X9517682Y-14254388D01*
X9517682Y-14254388D02*
X9508158Y-14216293D01*
X9508158Y-14216293D02*
X9508158Y-14168674D01*
X9508158Y-14168674D02*
X9517682Y-14130579D01*
X9517682Y-14130579D02*
X9527206Y-14111531D01*
X9527206Y-14111531D02*
X9536729Y-14102008D01*
X9536729Y-14102008D02*
X9555777Y-14092484D01*
X9698634Y-14092484D02*
X9698634Y-14130579D01*
X9774825Y-14092484D02*
X9774825Y-14130579D01*
X10070063Y-14368674D02*
X10060539Y-14359150D01*
X10060539Y-14359150D02*
X10041491Y-14330579D01*
X10041491Y-14330579D02*
X10031968Y-14311531D01*
X10031968Y-14311531D02*
X10022444Y-14282960D01*
X10022444Y-14282960D02*
X10012920Y-14235341D01*
X10012920Y-14235341D02*
X10012920Y-14197246D01*
X10012920Y-14197246D02*
X10022444Y-14149627D01*
X10022444Y-14149627D02*
X10031968Y-14121055D01*
X10031968Y-14121055D02*
X10041491Y-14102008D01*
X10041491Y-14102008D02*
X10060539Y-14073436D01*
X10060539Y-14073436D02*
X10070063Y-14063912D01*
X10231968Y-14092484D02*
X10193872Y-14092484D01*
X10193872Y-14092484D02*
X10174825Y-14102008D01*
X10174825Y-14102008D02*
X10165301Y-14111531D01*
X10165301Y-14111531D02*
X10146253Y-14140103D01*
X10146253Y-14140103D02*
X10136730Y-14178198D01*
X10136730Y-14178198D02*
X10136730Y-14254388D01*
X10136730Y-14254388D02*
X10146253Y-14273436D01*
X10146253Y-14273436D02*
X10155777Y-14282960D01*
X10155777Y-14282960D02*
X10174825Y-14292484D01*
X10174825Y-14292484D02*
X10212920Y-14292484D01*
X10212920Y-14292484D02*
X10231968Y-14282960D01*
X10231968Y-14282960D02*
X10241491Y-14273436D01*
X10241491Y-14273436D02*
X10251015Y-14254388D01*
X10251015Y-14254388D02*
X10251015Y-14206769D01*
X10251015Y-14206769D02*
X10241491Y-14187722D01*
X10241491Y-14187722D02*
X10231968Y-14178198D01*
X10231968Y-14178198D02*
X10212920Y-14168674D01*
X10212920Y-14168674D02*
X10174825Y-14168674D01*
X10174825Y-14168674D02*
X10155777Y-14178198D01*
X10155777Y-14178198D02*
X10146253Y-14187722D01*
X10146253Y-14187722D02*
X10136730Y-14206769D01*
X10489111Y-14292484D02*
X10489111Y-14092484D01*
X10574825Y-14292484D02*
X10574825Y-14187722D01*
X10574825Y-14187722D02*
X10565301Y-14168674D01*
X10565301Y-14168674D02*
X10546253Y-14159150D01*
X10546253Y-14159150D02*
X10517682Y-14159150D01*
X10517682Y-14159150D02*
X10498634Y-14168674D01*
X10498634Y-14168674D02*
X10489111Y-14178198D01*
X10698634Y-14292484D02*
X10679587Y-14282960D01*
X10679587Y-14282960D02*
X10670063Y-14273436D01*
X10670063Y-14273436D02*
X10660539Y-14254388D01*
X10660539Y-14254388D02*
X10660539Y-14197246D01*
X10660539Y-14197246D02*
X10670063Y-14178198D01*
X10670063Y-14178198D02*
X10679587Y-14168674D01*
X10679587Y-14168674D02*
X10698634Y-14159150D01*
X10698634Y-14159150D02*
X10727206Y-14159150D01*
X10727206Y-14159150D02*
X10746253Y-14168674D01*
X10746253Y-14168674D02*
X10755777Y-14178198D01*
X10755777Y-14178198D02*
X10765301Y-14197246D01*
X10765301Y-14197246D02*
X10765301Y-14254388D01*
X10765301Y-14254388D02*
X10755777Y-14273436D01*
X10755777Y-14273436D02*
X10746253Y-14282960D01*
X10746253Y-14282960D02*
X10727206Y-14292484D01*
X10727206Y-14292484D02*
X10698634Y-14292484D01*
X10879587Y-14292484D02*
X10860539Y-14282960D01*
X10860539Y-14282960D02*
X10851015Y-14263912D01*
X10851015Y-14263912D02*
X10851015Y-14092484D01*
X11031968Y-14282960D02*
X11012920Y-14292484D01*
X11012920Y-14292484D02*
X10974825Y-14292484D01*
X10974825Y-14292484D02*
X10955777Y-14282960D01*
X10955777Y-14282960D02*
X10946253Y-14263912D01*
X10946253Y-14263912D02*
X10946253Y-14187722D01*
X10946253Y-14187722D02*
X10955777Y-14168674D01*
X10955777Y-14168674D02*
X10974825Y-14159150D01*
X10974825Y-14159150D02*
X11012920Y-14159150D01*
X11012920Y-14159150D02*
X11031968Y-14168674D01*
X11031968Y-14168674D02*
X11041492Y-14187722D01*
X11041492Y-14187722D02*
X11041492Y-14206769D01*
X11041492Y-14206769D02*
X10946253Y-14225817D01*
X11117682Y-14282960D02*
X11136730Y-14292484D01*
X11136730Y-14292484D02*
X11174825Y-14292484D01*
X11174825Y-14292484D02*
X11193872Y-14282960D01*
X11193872Y-14282960D02*
X11203396Y-14263912D01*
X11203396Y-14263912D02*
X11203396Y-14254388D01*
X11203396Y-14254388D02*
X11193872Y-14235341D01*
X11193872Y-14235341D02*
X11174825Y-14225817D01*
X11174825Y-14225817D02*
X11146253Y-14225817D01*
X11146253Y-14225817D02*
X11127206Y-14216293D01*
X11127206Y-14216293D02*
X11117682Y-14197246D01*
X11117682Y-14197246D02*
X11117682Y-14187722D01*
X11117682Y-14187722D02*
X11127206Y-14168674D01*
X11127206Y-14168674D02*
X11146253Y-14159150D01*
X11146253Y-14159150D02*
X11174825Y-14159150D01*
X11174825Y-14159150D02*
X11193872Y-14168674D01*
X11270063Y-14368674D02*
X11279587Y-14359150D01*
X11279587Y-14359150D02*
X11298634Y-14330579D01*
X11298634Y-14330579D02*
X11308158Y-14311531D01*
X11308158Y-14311531D02*
X11317682Y-14282960D01*
X11317682Y-14282960D02*
X11327206Y-14235341D01*
X11327206Y-14235341D02*
X11327206Y-14197246D01*
X11327206Y-14197246D02*
X11317682Y-14149627D01*
X11317682Y-14149627D02*
X11308158Y-14121055D01*
X11308158Y-14121055D02*
X11298634Y-14102008D01*
X11298634Y-14102008D02*
X11279587Y-14073436D01*
X11279587Y-14073436D02*
X11270063Y-14063912D01*
M02*
