%TF.GenerationSoftware,KiCad,Pcbnew,7.0.10*%
%TF.CreationDate,2024-02-04T21:06:28+01:00*%
%TF.ProjectId,demo_LMP7721,64656d6f-5f4c-44d5-9037-3732312e6b69,rev?*%
%TF.SameCoordinates,Original*%
%TF.FileFunction,Drillmap*%
%TF.FilePolarity,Positive*%
%FSLAX45Y45*%
G04 Gerber Fmt 4.5, Leading zero omitted, Abs format (unit mm)*
G04 Created by KiCad (PCBNEW 7.0.10) date 2024-02-04 21:06:28*
%MOMM*%
%LPD*%
G01*
G04 APERTURE LIST*
%ADD10C,0.100000*%
%ADD11C,0.200000*%
G04 APERTURE END LIST*
D10*
X6500000Y-12000000D02*
G75*
G03*
X7000000Y-12500000I500000J0D01*
G01*
X7000000Y-2500000D02*
X16000000Y-2500000D01*
X16000000Y-12500000D02*
G75*
G03*
X16500000Y-12000000I0J500000D01*
G01*
X16000000Y-12500000D02*
X7000000Y-12500000D01*
X16500000Y-3000000D02*
G75*
G03*
X16000000Y-2500000I-500000J0D01*
G01*
X6500000Y-12000000D02*
X6500000Y-3000000D01*
X16500000Y-3000000D02*
X16500000Y-12000000D01*
X7000000Y-2500000D02*
G75*
G03*
X6500000Y-3000000I0J-500000D01*
G01*
D11*
X6755777Y-12816484D02*
X6755777Y-12616484D01*
X6755777Y-12616484D02*
X6803396Y-12616484D01*
X6803396Y-12616484D02*
X6831967Y-12626008D01*
X6831967Y-12626008D02*
X6851015Y-12645055D01*
X6851015Y-12645055D02*
X6860539Y-12664103D01*
X6860539Y-12664103D02*
X6870062Y-12702198D01*
X6870062Y-12702198D02*
X6870062Y-12730769D01*
X6870062Y-12730769D02*
X6860539Y-12768865D01*
X6860539Y-12768865D02*
X6851015Y-12787912D01*
X6851015Y-12787912D02*
X6831967Y-12806960D01*
X6831967Y-12806960D02*
X6803396Y-12816484D01*
X6803396Y-12816484D02*
X6755777Y-12816484D01*
X6955777Y-12816484D02*
X6955777Y-12683150D01*
X6955777Y-12721246D02*
X6965301Y-12702198D01*
X6965301Y-12702198D02*
X6974824Y-12692674D01*
X6974824Y-12692674D02*
X6993872Y-12683150D01*
X6993872Y-12683150D02*
X7012920Y-12683150D01*
X7079586Y-12816484D02*
X7079586Y-12683150D01*
X7079586Y-12616484D02*
X7070062Y-12626008D01*
X7070062Y-12626008D02*
X7079586Y-12635531D01*
X7079586Y-12635531D02*
X7089110Y-12626008D01*
X7089110Y-12626008D02*
X7079586Y-12616484D01*
X7079586Y-12616484D02*
X7079586Y-12635531D01*
X7203396Y-12816484D02*
X7184348Y-12806960D01*
X7184348Y-12806960D02*
X7174824Y-12787912D01*
X7174824Y-12787912D02*
X7174824Y-12616484D01*
X7308158Y-12816484D02*
X7289110Y-12806960D01*
X7289110Y-12806960D02*
X7279586Y-12787912D01*
X7279586Y-12787912D02*
X7279586Y-12616484D01*
X7536729Y-12816484D02*
X7536729Y-12616484D01*
X7536729Y-12616484D02*
X7603396Y-12759341D01*
X7603396Y-12759341D02*
X7670062Y-12616484D01*
X7670062Y-12616484D02*
X7670062Y-12816484D01*
X7851015Y-12816484D02*
X7851015Y-12711722D01*
X7851015Y-12711722D02*
X7841491Y-12692674D01*
X7841491Y-12692674D02*
X7822443Y-12683150D01*
X7822443Y-12683150D02*
X7784348Y-12683150D01*
X7784348Y-12683150D02*
X7765301Y-12692674D01*
X7851015Y-12806960D02*
X7831967Y-12816484D01*
X7831967Y-12816484D02*
X7784348Y-12816484D01*
X7784348Y-12816484D02*
X7765301Y-12806960D01*
X7765301Y-12806960D02*
X7755777Y-12787912D01*
X7755777Y-12787912D02*
X7755777Y-12768865D01*
X7755777Y-12768865D02*
X7765301Y-12749817D01*
X7765301Y-12749817D02*
X7784348Y-12740293D01*
X7784348Y-12740293D02*
X7831967Y-12740293D01*
X7831967Y-12740293D02*
X7851015Y-12730769D01*
X7946253Y-12683150D02*
X7946253Y-12883150D01*
X7946253Y-12692674D02*
X7965301Y-12683150D01*
X7965301Y-12683150D02*
X8003396Y-12683150D01*
X8003396Y-12683150D02*
X8022443Y-12692674D01*
X8022443Y-12692674D02*
X8031967Y-12702198D01*
X8031967Y-12702198D02*
X8041491Y-12721246D01*
X8041491Y-12721246D02*
X8041491Y-12778388D01*
X8041491Y-12778388D02*
X8031967Y-12797436D01*
X8031967Y-12797436D02*
X8022443Y-12806960D01*
X8022443Y-12806960D02*
X8003396Y-12816484D01*
X8003396Y-12816484D02*
X7965301Y-12816484D01*
X7965301Y-12816484D02*
X7946253Y-12806960D01*
X8127205Y-12797436D02*
X8136729Y-12806960D01*
X8136729Y-12806960D02*
X8127205Y-12816484D01*
X8127205Y-12816484D02*
X8117682Y-12806960D01*
X8117682Y-12806960D02*
X8127205Y-12797436D01*
X8127205Y-12797436D02*
X8127205Y-12816484D01*
X8127205Y-12692674D02*
X8136729Y-12702198D01*
X8136729Y-12702198D02*
X8127205Y-12711722D01*
X8127205Y-12711722D02*
X8117682Y-12702198D01*
X8117682Y-12702198D02*
X8127205Y-12692674D01*
X8127205Y-12692674D02*
X8127205Y-12711722D01*
M02*
