%TF.GenerationSoftware,KiCad,Pcbnew,7.0.10*%
%TF.CreationDate,2024-02-04T21:05:04+01:00*%
%TF.ProjectId,demo_LMP7721,64656d6f-5f4c-44d5-9037-3732312e6b69,rev?*%
%TF.SameCoordinates,Original*%
%TF.FileFunction,Soldermask,Top*%
%TF.FilePolarity,Negative*%
%FSLAX46Y46*%
G04 Gerber Fmt 4.6, Leading zero omitted, Abs format (unit mm)*
G04 Created by KiCad (PCBNEW 7.0.10) date 2024-02-04 21:05:04*
%MOMM*%
%LPD*%
G01*
G04 APERTURE LIST*
G04 Aperture macros list*
%AMRoundRect*
0 Rectangle with rounded corners*
0 $1 Rounding radius*
0 $2 $3 $4 $5 $6 $7 $8 $9 X,Y pos of 4 corners*
0 Add a 4 corners polygon primitive as box body*
4,1,4,$2,$3,$4,$5,$6,$7,$8,$9,$2,$3,0*
0 Add four circle primitives for the rounded corners*
1,1,$1+$1,$2,$3*
1,1,$1+$1,$4,$5*
1,1,$1+$1,$6,$7*
1,1,$1+$1,$8,$9*
0 Add four rect primitives between the rounded corners*
20,1,$1+$1,$2,$3,$4,$5,0*
20,1,$1+$1,$4,$5,$6,$7,0*
20,1,$1+$1,$6,$7,$8,$9,0*
20,1,$1+$1,$8,$9,$2,$3,0*%
G04 Aperture macros list end*
%ADD10C,1.795065*%
%ADD11C,2.250000*%
%ADD12C,1.500000*%
%ADD13RoundRect,0.225000X-0.225000X-0.250000X0.225000X-0.250000X0.225000X0.250000X-0.225000X0.250000X0*%
%ADD14RoundRect,0.200000X0.200000X0.275000X-0.200000X0.275000X-0.200000X-0.275000X0.200000X-0.275000X0*%
%ADD15RoundRect,0.225000X-0.250000X0.225000X-0.250000X-0.225000X0.250000X-0.225000X0.250000X0.225000X0*%
%ADD16RoundRect,0.150000X-0.150000X0.825000X-0.150000X-0.825000X0.150000X-0.825000X0.150000X0.825000X0*%
%ADD17RoundRect,0.250000X0.625000X-0.312500X0.625000X0.312500X-0.625000X0.312500X-0.625000X-0.312500X0*%
%ADD18RoundRect,0.225000X0.250000X-0.225000X0.250000X0.225000X-0.250000X0.225000X-0.250000X-0.225000X0*%
%ADD19RoundRect,0.225000X0.225000X0.250000X-0.225000X0.250000X-0.225000X-0.250000X0.225000X-0.250000X0*%
%ADD20RoundRect,0.150000X0.150000X-0.825000X0.150000X0.825000X-0.150000X0.825000X-0.150000X-0.825000X0*%
%ADD21C,0.800000*%
%ADD22C,6.400000*%
%ADD23RoundRect,0.200000X-0.200000X-0.275000X0.200000X-0.275000X0.200000X0.275000X-0.200000X0.275000X0*%
%ADD24RoundRect,0.150000X0.825000X0.150000X-0.825000X0.150000X-0.825000X-0.150000X0.825000X-0.150000X0*%
%ADD25RoundRect,0.200000X-0.275000X0.200000X-0.275000X-0.200000X0.275000X-0.200000X0.275000X0.200000X0*%
%ADD26RoundRect,0.250000X0.725000X-0.600000X0.725000X0.600000X-0.725000X0.600000X-0.725000X-0.600000X0*%
%ADD27O,1.950000X1.700000*%
%ADD28RoundRect,0.250000X-0.650000X0.325000X-0.650000X-0.325000X0.650000X-0.325000X0.650000X0.325000X0*%
%ADD29R,1.700000X1.700000*%
%ADD30O,1.700000X1.700000*%
%ADD31RoundRect,0.100000X0.100000X-0.712500X0.100000X0.712500X-0.100000X0.712500X-0.100000X-0.712500X0*%
%ADD32RoundRect,0.218750X0.218750X0.256250X-0.218750X0.256250X-0.218750X-0.256250X0.218750X-0.256250X0*%
%ADD33RoundRect,0.150000X-0.512500X-0.150000X0.512500X-0.150000X0.512500X0.150000X-0.512500X0.150000X0*%
%ADD34RoundRect,0.250000X-0.250000X-0.475000X0.250000X-0.475000X0.250000X0.475000X-0.250000X0.475000X0*%
%ADD35RoundRect,0.100000X0.100000X-0.637500X0.100000X0.637500X-0.100000X0.637500X-0.100000X-0.637500X0*%
%ADD36RoundRect,0.218750X-0.256250X0.218750X-0.256250X-0.218750X0.256250X-0.218750X0.256250X0.218750X0*%
%ADD37RoundRect,0.250000X0.250000X0.475000X-0.250000X0.475000X-0.250000X-0.475000X0.250000X-0.475000X0*%
%ADD38RoundRect,0.200000X0.275000X-0.200000X0.275000X0.200000X-0.275000X0.200000X-0.275000X-0.200000X0*%
%ADD39RoundRect,0.250000X0.750000X-0.600000X0.750000X0.600000X-0.750000X0.600000X-0.750000X-0.600000X0*%
%ADD40O,2.000000X1.700000*%
%ADD41RoundRect,0.250000X0.600000X0.750000X-0.600000X0.750000X-0.600000X-0.750000X0.600000X-0.750000X0*%
%ADD42O,1.700000X2.000000*%
G04 APERTURE END LIST*
D10*
X162162532Y-87700000D02*
G75*
G03*
X160367468Y-87700000I-897532J0D01*
G01*
X160367468Y-87700000D02*
G75*
G03*
X162162532Y-87700000I897532J0D01*
G01*
D11*
X155860801Y-34360773D02*
G75*
G03*
X154446573Y-33775000I-1414201J-1414227D01*
G01*
X153896573Y-121274980D02*
G75*
G03*
X155310785Y-120689213I27J1999980D01*
G01*
X161265022Y-44593427D02*
G75*
G03*
X160679214Y-43179214I-2000122J-73D01*
G01*
D12*
X153896573Y-121275000D02*
X152750000Y-121275000D01*
D11*
X159261573Y-78714980D02*
G75*
G03*
X160675785Y-78129213I27J1999980D01*
G01*
X159585787Y-42085787D02*
X160679214Y-43179214D01*
X155414213Y-95585787D02*
X155310786Y-95689214D01*
X155749978Y-63171573D02*
G75*
G03*
X156335786Y-64585786I2000122J73D01*
G01*
X155164213Y-59414213D02*
X155110786Y-59360786D01*
X157414213Y-60414213D02*
X157335786Y-60335786D01*
X159585787Y-42085787D02*
X160679214Y-43179214D01*
X155414213Y-120585787D02*
X155310786Y-120689214D01*
X158343427Y-83984978D02*
G75*
G03*
X156929213Y-84570787I73J-2000122D01*
G01*
X156000000Y-116078427D02*
X156000000Y-119171573D01*
X160679227Y-110570801D02*
G75*
G03*
X161265000Y-109156573I-1414227J1414201D01*
G01*
X156749978Y-58921573D02*
G75*
G03*
X157335786Y-60335786I2000122J73D01*
G01*
X159000020Y-40671573D02*
G75*
G03*
X159585788Y-42085786I1999980J-27D01*
G01*
X160675779Y-66790793D02*
G75*
G03*
X159261573Y-66205000I-1414179J-1414107D01*
G01*
X157369220Y-65619206D02*
G75*
G03*
X158783427Y-66205000I1414180J1414106D01*
G01*
D10*
X162162532Y-77540000D02*
G75*
G03*
X160367468Y-77540000I-897532J0D01*
G01*
X160367468Y-77540000D02*
G75*
G03*
X162162532Y-77540000I897532J0D01*
G01*
D11*
X156929213Y-84570787D02*
X156585786Y-84914214D01*
X159015927Y-89000020D02*
G75*
G03*
X157601714Y-89585788I-27J-1999980D01*
G01*
X154646573Y-108774980D02*
G75*
G03*
X156060785Y-108189213I27J1999980D01*
G01*
X159136573Y-89000000D02*
X159015927Y-89000000D01*
X161265000Y-92780000D02*
X161265000Y-109156573D01*
X153896573Y-83775022D02*
G75*
G03*
X155310786Y-83189214I-73J2000122D01*
G01*
X155414206Y-83085780D02*
G75*
G03*
X156000000Y-81671573I-1414106J1414180D01*
G01*
D10*
X162162532Y-67380000D02*
G75*
G03*
X160367468Y-67380000I-897532J0D01*
G01*
X160367468Y-67380000D02*
G75*
G03*
X162162532Y-67380000I897532J0D01*
G01*
D11*
X156585772Y-84914200D02*
G75*
G03*
X156000000Y-86328427I1414228J-1414200D01*
G01*
X161265000Y-67380000D02*
X160675786Y-66790786D01*
X158999980Y-38328427D02*
G75*
G03*
X158414213Y-36914215I-1999980J27D01*
G01*
X159136573Y-61000000D02*
X158828427Y-61000000D01*
X156749984Y-50053122D02*
G75*
G03*
X156164213Y-48638908I-1999984J22D01*
G01*
X157585772Y-89601700D02*
G75*
G03*
X157000000Y-91015927I1414228J-1414200D01*
G01*
X159071573Y-83985022D02*
G75*
G03*
X160485786Y-83399214I-73J2000122D01*
G01*
D10*
X162162532Y-92780000D02*
G75*
G03*
X160367468Y-92780000I-897532J0D01*
G01*
X160367468Y-92780000D02*
G75*
G03*
X162162532Y-92780000I897532J0D01*
G01*
D11*
X158363427Y-78714978D02*
G75*
G03*
X156949213Y-79300787I73J-2000122D01*
G01*
X161265000Y-44593427D02*
X161265000Y-57220000D01*
X155860787Y-34360787D02*
X158414214Y-36914214D01*
X159071573Y-83985000D02*
X158343427Y-83985000D01*
X159000000Y-38328427D02*
X159000000Y-40671573D01*
X156750000Y-58921573D02*
X156750000Y-50053122D01*
X160679213Y-110570787D02*
X156585786Y-114664214D01*
X161265000Y-44593427D02*
X161265000Y-57220000D01*
X155414206Y-120585780D02*
G75*
G03*
X156000000Y-119171573I-1414106J1414180D01*
G01*
X161265022Y-44593427D02*
G75*
G03*
X160679214Y-43179214I-2000122J-73D01*
G01*
X160550800Y-61585772D02*
G75*
G03*
X159136573Y-61000000I-1414200J-1414228D01*
G01*
X155750000Y-63171573D02*
X155750000Y-60828427D01*
X155860801Y-34360773D02*
G75*
G03*
X154446573Y-33775000I-1414201J-1414227D01*
G01*
X155414227Y-95585801D02*
G75*
G03*
X156000000Y-94171573I-1414227J1414201D01*
G01*
X153896573Y-96274980D02*
G75*
G03*
X155310785Y-95689213I27J1999980D01*
G01*
D10*
X162162532Y-62300000D02*
G75*
G03*
X160367468Y-62300000I-897532J0D01*
G01*
X160367468Y-62300000D02*
G75*
G03*
X162162532Y-62300000I897532J0D01*
G01*
D11*
X161265000Y-62300000D02*
X160550786Y-61585786D01*
X156585793Y-114664221D02*
G75*
G03*
X156000000Y-116078427I1414107J-1414179D01*
G01*
D10*
X162162532Y-72460000D02*
G75*
G03*
X160367468Y-72460000I-897532J0D01*
G01*
X160367468Y-72460000D02*
G75*
G03*
X162162532Y-72460000I897532J0D01*
G01*
D11*
X159261573Y-66205000D02*
X158783427Y-66205000D01*
X156000000Y-86328427D02*
X156000000Y-94171573D01*
X157369213Y-65619213D02*
X156335786Y-64585786D01*
X161265000Y-72460000D02*
X160665786Y-71860786D01*
X161265000Y-82620000D02*
X160485786Y-83399214D01*
D12*
X154646573Y-108775000D02*
X152750000Y-108775000D01*
D11*
X159000020Y-40671573D02*
G75*
G03*
X159585788Y-42085786I1999980J-27D01*
G01*
X153896573Y-83775000D02*
X152750000Y-83775000D01*
D10*
X162162532Y-57220000D02*
G75*
G03*
X160367468Y-57220000I-897532J0D01*
G01*
X160367468Y-57220000D02*
G75*
G03*
X162162532Y-57220000I897532J0D01*
G01*
D12*
X154386081Y-46860796D02*
G75*
G03*
X152971878Y-46275000I-1414181J-1414104D01*
G01*
D11*
X159251573Y-71275000D02*
X152750000Y-71275000D01*
X155110779Y-59360793D02*
G75*
G03*
X153696573Y-58775000I-1414179J-1414107D01*
G01*
X155750022Y-60828427D02*
G75*
G03*
X155164213Y-59414213I-2000122J-73D01*
G01*
X156000000Y-81078427D02*
X156000000Y-81671573D01*
X159000000Y-38328427D02*
X159000000Y-40671573D01*
D12*
X153696573Y-58775000D02*
X152750000Y-58775000D01*
D11*
X161265000Y-87700000D02*
X160550786Y-88414214D01*
D10*
X162162532Y-82620000D02*
G75*
G03*
X160367468Y-82620000I-897532J0D01*
G01*
X160367468Y-82620000D02*
G75*
G03*
X162162532Y-82620000I897532J0D01*
G01*
D11*
X157601713Y-89585787D02*
X157585786Y-89601714D01*
X161265000Y-77540000D02*
X160675786Y-78129214D01*
X157414199Y-60414227D02*
G75*
G03*
X158828427Y-61000000I1414201J1414227D01*
G01*
X156414213Y-107835787D02*
X156060786Y-108189214D01*
X159136573Y-89000022D02*
G75*
G03*
X160550786Y-88414214I-73J2000122D01*
G01*
X158999980Y-38328427D02*
G75*
G03*
X158414213Y-36914215I-1999980J27D01*
G01*
X156414227Y-107835801D02*
G75*
G03*
X157000000Y-106421573I-1414227J1414201D01*
G01*
X159261573Y-78715000D02*
X158363427Y-78715000D01*
X156585772Y-79664200D02*
G75*
G03*
X156000000Y-81078427I1414228J-1414200D01*
G01*
X155414213Y-83085787D02*
X155310786Y-83189214D01*
X156164213Y-48638908D02*
X154386091Y-46860786D01*
D12*
X153896573Y-96275000D02*
X152750000Y-96275000D01*
D11*
X157000000Y-91015927D02*
X157000000Y-106421573D01*
X156949213Y-79300787D02*
X156585786Y-79664214D01*
X160665779Y-71860793D02*
G75*
G03*
X159251573Y-71275000I-1414179J-1414107D01*
G01*
X155860787Y-34360787D02*
X158414214Y-36914214D01*
D13*
%TO.C,C82*%
X124475000Y-33062500D03*
X126025000Y-33062500D03*
%TD*%
D14*
%TO.C,R71*%
X91825000Y-50500000D03*
X90175000Y-50500000D03*
%TD*%
D15*
%TO.C,C7*%
X86150000Y-74114000D03*
X86150000Y-75664000D03*
%TD*%
D16*
%TO.C,U3*%
X135655000Y-41775000D03*
X134385000Y-41775000D03*
X133115000Y-41775000D03*
X131845000Y-41775000D03*
X131845000Y-46725000D03*
X133115000Y-46725000D03*
X134385000Y-46725000D03*
X135655000Y-46725000D03*
%TD*%
D17*
%TO.C,R9*%
X150500000Y-34212500D03*
X150500000Y-31287500D03*
%TD*%
D18*
%TO.C,C112*%
X103100000Y-112875000D03*
X103100000Y-111325000D03*
%TD*%
%TO.C,C15*%
X80700000Y-35505000D03*
X80700000Y-33955000D03*
%TD*%
D13*
%TO.C,C86*%
X133725000Y-123750000D03*
X135275000Y-123750000D03*
%TD*%
%TO.C,C137*%
X118025000Y-36550000D03*
X119575000Y-36550000D03*
%TD*%
%TO.C,C67*%
X124475000Y-108062500D03*
X126025000Y-108062500D03*
%TD*%
D19*
%TO.C,C42*%
X136825000Y-64750000D03*
X135275000Y-64750000D03*
%TD*%
D20*
%TO.C,U18*%
X138095000Y-59225000D03*
X139365000Y-59225000D03*
X140635000Y-59225000D03*
X141905000Y-59225000D03*
X141905000Y-54275000D03*
X140635000Y-54275000D03*
X139365000Y-54275000D03*
X138095000Y-54275000D03*
%TD*%
D21*
%TO.C,H3*%
X67600000Y-120000000D03*
X68302944Y-118302944D03*
X68302944Y-121697056D03*
X70000000Y-117600000D03*
D22*
X70000000Y-120000000D03*
D21*
X70000000Y-122400000D03*
X71697056Y-118302944D03*
X71697056Y-121697056D03*
X72400000Y-120000000D03*
%TD*%
D23*
%TO.C,R13*%
X103075000Y-54075000D03*
X104725000Y-54075000D03*
%TD*%
D24*
%TO.C,U40*%
X121925000Y-104555000D03*
X121925000Y-103285000D03*
X121925000Y-102015000D03*
X121925000Y-100745000D03*
X116975000Y-100745000D03*
X116975000Y-102015000D03*
X116975000Y-103285000D03*
X116975000Y-104555000D03*
%TD*%
%TO.C,U8*%
X121925000Y-54555000D03*
X121925000Y-53285000D03*
X121925000Y-52015000D03*
X121925000Y-50745000D03*
X116975000Y-50745000D03*
X116975000Y-52015000D03*
X116975000Y-53285000D03*
X116975000Y-54555000D03*
%TD*%
D18*
%TO.C,C17*%
X103300000Y-51250000D03*
X103300000Y-49700000D03*
%TD*%
%TO.C,C117*%
X100100000Y-89675000D03*
X100100000Y-88125000D03*
%TD*%
D25*
%TO.C,R63*%
X114950000Y-38025000D03*
X114950000Y-39675000D03*
%TD*%
D19*
%TO.C,C74*%
X110775000Y-103650000D03*
X109225000Y-103650000D03*
%TD*%
D17*
%TO.C,R41*%
X150500000Y-121712500D03*
X150500000Y-118787500D03*
%TD*%
D26*
%TO.C,J2*%
X69975000Y-87250000D03*
D27*
X69975000Y-84750000D03*
X69975000Y-82250000D03*
X69975000Y-79750000D03*
X69975000Y-77250000D03*
X69975000Y-74750000D03*
%TD*%
D15*
%TO.C,C46*%
X114950000Y-60000000D03*
X114950000Y-61550000D03*
%TD*%
D28*
%TO.C,C129*%
X109400000Y-109800000D03*
X109400000Y-112750000D03*
%TD*%
D19*
%TO.C,C98*%
X136825000Y-89750000D03*
X135275000Y-89750000D03*
%TD*%
D13*
%TO.C,C77*%
X124475000Y-95562500D03*
X126025000Y-95562500D03*
%TD*%
D18*
%TO.C,C16*%
X152750000Y-33775000D03*
X152750000Y-32225000D03*
%TD*%
D29*
%TO.C,U38*%
X158725000Y-57220000D03*
D30*
X161265000Y-57220000D03*
X158725000Y-59760000D03*
X161265000Y-59760000D03*
X158725000Y-62300000D03*
X161265000Y-62300000D03*
X158725000Y-64840000D03*
X161265000Y-64840000D03*
X158725000Y-67380000D03*
X161265000Y-67380000D03*
X158725000Y-69920000D03*
X161265000Y-69920000D03*
X158725000Y-72460000D03*
X161265000Y-72460000D03*
X158725000Y-75000000D03*
X161265000Y-75000000D03*
X158725000Y-77540000D03*
X161265000Y-77540000D03*
X158725000Y-80080000D03*
X161265000Y-80080000D03*
X158725000Y-82620000D03*
X161265000Y-82620000D03*
X158725000Y-85160000D03*
X161265000Y-85160000D03*
X158725000Y-87700000D03*
X161265000Y-87700000D03*
X158725000Y-90240000D03*
X161265000Y-90240000D03*
X158725000Y-92780000D03*
X161265000Y-92780000D03*
%TD*%
D18*
%TO.C,C20*%
X100100000Y-51250000D03*
X100100000Y-49700000D03*
%TD*%
D13*
%TO.C,C65*%
X118375000Y-118600000D03*
X119925000Y-118600000D03*
%TD*%
D31*
%TO.C,U39*%
X111387500Y-101787501D03*
X112037500Y-101787501D03*
X112687500Y-101787501D03*
X113337500Y-101787501D03*
X113337500Y-97562501D03*
X112687500Y-97562501D03*
X112037500Y-97562501D03*
X111387500Y-97562501D03*
%TD*%
D17*
%TO.C,R28*%
X150500000Y-84212500D03*
X150500000Y-81287500D03*
%TD*%
D25*
%TO.C,R69*%
X114950000Y-113025000D03*
X114950000Y-114675000D03*
%TD*%
D23*
%TO.C,R50*%
X100075000Y-86630000D03*
X101725000Y-86630000D03*
%TD*%
D13*
%TO.C,C92*%
X112225000Y-116150000D03*
X113775000Y-116150000D03*
%TD*%
D15*
%TO.C,C66*%
X114950000Y-110000000D03*
X114950000Y-111550000D03*
%TD*%
D13*
%TO.C,C59*%
X124025000Y-79900000D03*
X125575000Y-79900000D03*
%TD*%
%TO.C,C75*%
X118375000Y-106100000D03*
X119925000Y-106100000D03*
%TD*%
D18*
%TO.C,C97*%
X103100000Y-89875000D03*
X103100000Y-88325000D03*
%TD*%
%TO.C,C4*%
X80350000Y-76089000D03*
X80350000Y-74539000D03*
%TD*%
D19*
%TO.C,C110*%
X146975000Y-111200000D03*
X145425000Y-111200000D03*
%TD*%
%TO.C,C29*%
X136825000Y-52250000D03*
X135275000Y-52250000D03*
%TD*%
D15*
%TO.C,C134*%
X116500000Y-85000000D03*
X116500000Y-86550000D03*
%TD*%
D20*
%TO.C,U24*%
X138095000Y-84225000D03*
X139365000Y-84225000D03*
X140635000Y-84225000D03*
X141905000Y-84225000D03*
X141905000Y-79275000D03*
X140635000Y-79275000D03*
X139365000Y-79275000D03*
X138095000Y-79275000D03*
%TD*%
D32*
%TO.C,D2*%
X88587500Y-112400000D03*
X87012500Y-112400000D03*
%TD*%
D13*
%TO.C,C107*%
X133725000Y-111250000D03*
X135275000Y-111250000D03*
%TD*%
%TO.C,C91*%
X112225000Y-78650000D03*
X113775000Y-78650000D03*
%TD*%
D18*
%TO.C,C109*%
X152750000Y-108775000D03*
X152750000Y-107225000D03*
%TD*%
D13*
%TO.C,C99*%
X131475000Y-89750000D03*
X133025000Y-89750000D03*
%TD*%
D33*
%TO.C,U6*%
X82150000Y-72939000D03*
X82150000Y-73889000D03*
X82150000Y-74839000D03*
X84425000Y-74839000D03*
X84425000Y-73889000D03*
X84425000Y-72939000D03*
%TD*%
D13*
%TO.C,C141*%
X118025000Y-86550000D03*
X119575000Y-86550000D03*
%TD*%
D34*
%TO.C,C114*%
X83850000Y-57600000D03*
X85750000Y-57600000D03*
%TD*%
D15*
%TO.C,C130*%
X116500000Y-35000000D03*
X116500000Y-36550000D03*
%TD*%
D31*
%TO.C,U34*%
X111387500Y-89287501D03*
X112037500Y-89287501D03*
X112687500Y-89287501D03*
X113337500Y-89287501D03*
X113337500Y-85062501D03*
X112687500Y-85062501D03*
X112037500Y-85062501D03*
X111387500Y-85062501D03*
%TD*%
D14*
%TO.C,R2*%
X140300000Y-48750000D03*
X138650000Y-48750000D03*
%TD*%
D15*
%TO.C,C133*%
X116500000Y-72500000D03*
X116500000Y-74050000D03*
%TD*%
D16*
%TO.C,U20*%
X135655000Y-66775000D03*
X134385000Y-66775000D03*
X133115000Y-66775000D03*
X131845000Y-66775000D03*
X131845000Y-71725000D03*
X133115000Y-71725000D03*
X134385000Y-71725000D03*
X135655000Y-71725000D03*
%TD*%
D14*
%TO.C,R25*%
X140300000Y-86250000D03*
X138650000Y-86250000D03*
%TD*%
D13*
%TO.C,C89*%
X112225000Y-53650000D03*
X113775000Y-53650000D03*
%TD*%
D23*
%TO.C,R12*%
X117975000Y-110050000D03*
X119625000Y-110050000D03*
%TD*%
D13*
%TO.C,C142*%
X118025000Y-99050000D03*
X119575000Y-99050000D03*
%TD*%
D23*
%TO.C,R48*%
X100075000Y-71300000D03*
X101725000Y-71300000D03*
%TD*%
D20*
%TO.C,U5*%
X84365000Y-36205000D03*
X85635000Y-36205000D03*
X86905000Y-36205000D03*
X88175000Y-36205000D03*
X88175000Y-31255000D03*
X86905000Y-31255000D03*
X85635000Y-31255000D03*
X84365000Y-31255000D03*
%TD*%
D19*
%TO.C,C41*%
X140875000Y-27250000D03*
X139325000Y-27250000D03*
%TD*%
%TO.C,C3*%
X110775000Y-53650000D03*
X109225000Y-53650000D03*
%TD*%
D15*
%TO.C,C71*%
X114950000Y-85000000D03*
X114950000Y-86550000D03*
%TD*%
D18*
%TO.C,C111*%
X103600000Y-104875000D03*
X103600000Y-103325000D03*
%TD*%
D35*
%TO.C,U2*%
X88025000Y-76951500D03*
X88675000Y-76951500D03*
X89325000Y-76951500D03*
X89975000Y-76951500D03*
X90625000Y-76951500D03*
X91275000Y-76951500D03*
X91925000Y-76951500D03*
X92575000Y-76951500D03*
X93225000Y-76951500D03*
X93875000Y-76951500D03*
X93875000Y-71226500D03*
X93225000Y-71226500D03*
X92575000Y-71226500D03*
X91925000Y-71226500D03*
X91275000Y-71226500D03*
X90625000Y-71226500D03*
X89975000Y-71226500D03*
X89325000Y-71226500D03*
X88675000Y-71226500D03*
X88025000Y-71226500D03*
%TD*%
D17*
%TO.C,R22*%
X150500000Y-71712500D03*
X150500000Y-68787500D03*
%TD*%
D14*
%TO.C,R7*%
X140300000Y-36250000D03*
X138650000Y-36250000D03*
%TD*%
D23*
%TO.C,R24*%
X117975000Y-97550000D03*
X119625000Y-97550000D03*
%TD*%
D19*
%TO.C,C39*%
X146975000Y-61200000D03*
X145425000Y-61200000D03*
%TD*%
D13*
%TO.C,C50*%
X124025000Y-67400000D03*
X125575000Y-67400000D03*
%TD*%
D23*
%TO.C,R5*%
X86575000Y-65426500D03*
X88225000Y-65426500D03*
%TD*%
D29*
%TO.C,J10*%
X91850000Y-53065000D03*
D30*
X91850000Y-55605000D03*
%TD*%
D15*
%TO.C,C30*%
X114950000Y-47500000D03*
X114950000Y-49050000D03*
%TD*%
D14*
%TO.C,R60*%
X112625000Y-83225000D03*
X110975000Y-83225000D03*
%TD*%
D18*
%TO.C,C19*%
X80500000Y-55675000D03*
X80500000Y-54125000D03*
%TD*%
D21*
%TO.C,H4*%
X157600000Y-120000000D03*
X158302944Y-118302944D03*
X158302944Y-121697056D03*
X160000000Y-117600000D03*
D22*
X160000000Y-120000000D03*
D21*
X160000000Y-122400000D03*
X161697056Y-118302944D03*
X161697056Y-121697056D03*
X162400000Y-120000000D03*
%TD*%
D25*
%TO.C,R65*%
X114950000Y-63025000D03*
X114950000Y-64675000D03*
%TD*%
D16*
%TO.C,U17*%
X135655000Y-54275000D03*
X134385000Y-54275000D03*
X133115000Y-54275000D03*
X131845000Y-54275000D03*
X131845000Y-59225000D03*
X133115000Y-59225000D03*
X134385000Y-59225000D03*
X135655000Y-59225000D03*
%TD*%
D25*
%TO.C,R66*%
X114950000Y-75525000D03*
X114950000Y-77175000D03*
%TD*%
D23*
%TO.C,R53*%
X99900000Y-109770000D03*
X101550000Y-109770000D03*
%TD*%
D36*
%TO.C,D3*%
X79100000Y-30812500D03*
X79100000Y-32387500D03*
%TD*%
D18*
%TO.C,C88*%
X152750000Y-121275000D03*
X152750000Y-119725000D03*
%TD*%
D15*
%TO.C,C136*%
X116500000Y-110000000D03*
X116500000Y-111550000D03*
%TD*%
D13*
%TO.C,C61*%
X133725000Y-86250000D03*
X135275000Y-86250000D03*
%TD*%
D19*
%TO.C,C51*%
X146975000Y-73700000D03*
X145425000Y-73700000D03*
%TD*%
D23*
%TO.C,R4*%
X117975000Y-47550000D03*
X119625000Y-47550000D03*
%TD*%
%TO.C,R47*%
X100075000Y-54075000D03*
X101725000Y-54075000D03*
%TD*%
D13*
%TO.C,C43*%
X131475000Y-64750000D03*
X133025000Y-64750000D03*
%TD*%
D19*
%TO.C,C8*%
X84187500Y-84214000D03*
X82637500Y-84214000D03*
%TD*%
D21*
%TO.C,H1*%
X157600000Y-30000000D03*
X158302944Y-28302944D03*
X158302944Y-31697056D03*
X160000000Y-27600000D03*
D22*
X160000000Y-30000000D03*
D21*
X160000000Y-32400000D03*
X161697056Y-28302944D03*
X161697056Y-31697056D03*
X162400000Y-30000000D03*
%TD*%
D28*
%TO.C,C126*%
X109400000Y-72300000D03*
X109400000Y-75250000D03*
%TD*%
D13*
%TO.C,C24*%
X133725000Y-48750000D03*
X135275000Y-48750000D03*
%TD*%
D31*
%TO.C,U31*%
X111387500Y-114287501D03*
X112037500Y-114287501D03*
X112687500Y-114287501D03*
X113337500Y-114287501D03*
X113337500Y-110062501D03*
X112687500Y-110062501D03*
X112037500Y-110062501D03*
X111387500Y-110062501D03*
%TD*%
D35*
%TO.C,U43*%
X124050000Y-40562500D03*
X124700000Y-40562500D03*
X125350000Y-40562500D03*
X126000000Y-40562500D03*
X126650000Y-40562500D03*
X127300000Y-40562500D03*
X127950000Y-40562500D03*
X127950000Y-34837500D03*
X127300000Y-34837500D03*
X126650000Y-34837500D03*
X126000000Y-34837500D03*
X125350000Y-34837500D03*
X124700000Y-34837500D03*
X124050000Y-34837500D03*
%TD*%
%TO.C,U37*%
X124050000Y-90562500D03*
X124700000Y-90562500D03*
X125350000Y-90562500D03*
X126000000Y-90562500D03*
X126650000Y-90562500D03*
X127300000Y-90562500D03*
X127950000Y-90562500D03*
X127950000Y-84837500D03*
X127300000Y-84837500D03*
X126650000Y-84837500D03*
X126000000Y-84837500D03*
X125350000Y-84837500D03*
X124700000Y-84837500D03*
X124050000Y-84837500D03*
%TD*%
D34*
%TO.C,C122*%
X83320000Y-38600000D03*
X85220000Y-38600000D03*
%TD*%
D37*
%TO.C,C121*%
X88750000Y-38600000D03*
X86850000Y-38600000D03*
%TD*%
D19*
%TO.C,C79*%
X110775000Y-41150000D03*
X109225000Y-41150000D03*
%TD*%
D16*
%TO.C,U45*%
X135655000Y-116775000D03*
X134385000Y-116775000D03*
X133115000Y-116775000D03*
X131845000Y-116775000D03*
X131845000Y-121725000D03*
X133115000Y-121725000D03*
X134385000Y-121725000D03*
X135655000Y-121725000D03*
%TD*%
D38*
%TO.C,R45*%
X79100000Y-35525000D03*
X79100000Y-33875000D03*
%TD*%
D29*
%TO.C,J7*%
X91680000Y-33535000D03*
D30*
X91680000Y-36075000D03*
%TD*%
D31*
%TO.C,U41*%
X111387500Y-39287501D03*
X112037500Y-39287501D03*
X112687500Y-39287501D03*
X113337500Y-39287501D03*
X113337500Y-35062501D03*
X112687500Y-35062501D03*
X112037500Y-35062501D03*
X111387500Y-35062501D03*
%TD*%
D25*
%TO.C,R67*%
X114950000Y-88025000D03*
X114950000Y-89675000D03*
%TD*%
D14*
%TO.C,R40*%
X143325000Y-123750000D03*
X141675000Y-123750000D03*
%TD*%
D20*
%TO.C,U49*%
X138095000Y-96725000D03*
X139365000Y-96725000D03*
X140635000Y-96725000D03*
X141905000Y-96725000D03*
X141905000Y-91775000D03*
X140635000Y-91775000D03*
X139365000Y-91775000D03*
X138095000Y-91775000D03*
%TD*%
D35*
%TO.C,U9*%
X124050000Y-53062500D03*
X124700000Y-53062500D03*
X125350000Y-53062500D03*
X126000000Y-53062500D03*
X126650000Y-53062500D03*
X127300000Y-53062500D03*
X127950000Y-53062500D03*
X127950000Y-47337500D03*
X127300000Y-47337500D03*
X126650000Y-47337500D03*
X126000000Y-47337500D03*
X125350000Y-47337500D03*
X124700000Y-47337500D03*
X124050000Y-47337500D03*
%TD*%
D39*
%TO.C,J9*%
X70000000Y-105000000D03*
D40*
X70000000Y-102500000D03*
%TD*%
D35*
%TO.C,U33*%
X124050000Y-115562500D03*
X124700000Y-115562500D03*
X125350000Y-115562500D03*
X126000000Y-115562500D03*
X126650000Y-115562500D03*
X127300000Y-115562500D03*
X127950000Y-115562500D03*
X127950000Y-109837500D03*
X127300000Y-109837500D03*
X126650000Y-109837500D03*
X126000000Y-109837500D03*
X125350000Y-109837500D03*
X124700000Y-109837500D03*
X124050000Y-109837500D03*
%TD*%
D38*
%TO.C,R44*%
X78600000Y-55725000D03*
X78600000Y-54075000D03*
%TD*%
D31*
%TO.C,U28*%
X111387500Y-76787501D03*
X112037500Y-76787501D03*
X112687500Y-76787501D03*
X113337500Y-76787501D03*
X113337500Y-72562501D03*
X112687500Y-72562501D03*
X112037500Y-72562501D03*
X111387500Y-72562501D03*
%TD*%
D14*
%TO.C,R70*%
X91825000Y-31000000D03*
X90175000Y-31000000D03*
%TD*%
D39*
%TO.C,J4*%
X70000000Y-58500000D03*
D40*
X70000000Y-56000000D03*
%TD*%
D19*
%TO.C,C108*%
X140875000Y-102250000D03*
X139325000Y-102250000D03*
%TD*%
D20*
%TO.C,U11*%
X138095000Y-34225000D03*
X139365000Y-34225000D03*
X140635000Y-34225000D03*
X141905000Y-34225000D03*
X141905000Y-29275000D03*
X140635000Y-29275000D03*
X139365000Y-29275000D03*
X138095000Y-29275000D03*
%TD*%
D19*
%TO.C,C62*%
X140875000Y-77250000D03*
X139325000Y-77250000D03*
%TD*%
D15*
%TO.C,C9*%
X86350000Y-80464000D03*
X86350000Y-82014000D03*
%TD*%
D13*
%TO.C,C44*%
X133725000Y-73750000D03*
X135275000Y-73750000D03*
%TD*%
%TO.C,C48*%
X124475000Y-58062500D03*
X126025000Y-58062500D03*
%TD*%
D19*
%TO.C,C18*%
X146975000Y-36200000D03*
X145425000Y-36200000D03*
%TD*%
D14*
%TO.C,R3*%
X143325000Y-48750000D03*
X141675000Y-48750000D03*
%TD*%
D19*
%TO.C,C10*%
X89525000Y-80426500D03*
X87975000Y-80426500D03*
%TD*%
D24*
%TO.C,U29*%
X121925000Y-79555000D03*
X121925000Y-78285000D03*
X121925000Y-77015000D03*
X121925000Y-75745000D03*
X116975000Y-75745000D03*
X116975000Y-77015000D03*
X116975000Y-78285000D03*
X116975000Y-79555000D03*
%TD*%
D13*
%TO.C,C100*%
X133725000Y-98750000D03*
X135275000Y-98750000D03*
%TD*%
D23*
%TO.C,R49*%
X99900000Y-79170000D03*
X101550000Y-79170000D03*
%TD*%
D13*
%TO.C,C143*%
X118025000Y-111550000D03*
X119575000Y-111550000D03*
%TD*%
D19*
%TO.C,C33*%
X110775000Y-66150000D03*
X109225000Y-66150000D03*
%TD*%
D24*
%TO.C,U35*%
X121925000Y-92055000D03*
X121925000Y-90785000D03*
X121925000Y-89515000D03*
X121925000Y-88245000D03*
X116975000Y-88245000D03*
X116975000Y-89515000D03*
X116975000Y-90785000D03*
X116975000Y-92055000D03*
%TD*%
D14*
%TO.C,R21*%
X143325000Y-73750000D03*
X141675000Y-73750000D03*
%TD*%
D18*
%TO.C,C28*%
X103100000Y-57250000D03*
X103100000Y-55700000D03*
%TD*%
D13*
%TO.C,C85*%
X131475000Y-114750000D03*
X133025000Y-114750000D03*
%TD*%
D14*
%TO.C,R62*%
X112625000Y-108225000D03*
X110975000Y-108225000D03*
%TD*%
D38*
%TO.C,R43*%
X82300000Y-52525000D03*
X82300000Y-50875000D03*
%TD*%
D20*
%TO.C,U21*%
X138095000Y-71725000D03*
X139365000Y-71725000D03*
X140635000Y-71725000D03*
X141905000Y-71725000D03*
X141905000Y-66775000D03*
X140635000Y-66775000D03*
X139365000Y-66775000D03*
X138095000Y-66775000D03*
%TD*%
D13*
%TO.C,C140*%
X118025000Y-74050000D03*
X119575000Y-74050000D03*
%TD*%
D18*
%TO.C,C53*%
X103100000Y-82275000D03*
X103100000Y-80725000D03*
%TD*%
D13*
%TO.C,C94*%
X112225000Y-103650000D03*
X113775000Y-103650000D03*
%TD*%
D21*
%TO.C,H5*%
X98600000Y-30000000D03*
X99302944Y-28302944D03*
X99302944Y-31697056D03*
X101000000Y-27600000D03*
D22*
X101000000Y-30000000D03*
D21*
X101000000Y-32400000D03*
X102697056Y-28302944D03*
X102697056Y-31697056D03*
X103400000Y-30000000D03*
%TD*%
D33*
%TO.C,U7*%
X82212500Y-80689000D03*
X82212500Y-81639000D03*
X82212500Y-82589000D03*
X84487500Y-82589000D03*
X84487500Y-80689000D03*
%TD*%
D19*
%TO.C,C11*%
X89525000Y-78826500D03*
X87975000Y-78826500D03*
%TD*%
D13*
%TO.C,C32*%
X124025000Y-54900000D03*
X125575000Y-54900000D03*
%TD*%
D16*
%TO.C,U10*%
X135655000Y-29275000D03*
X134385000Y-29275000D03*
X133115000Y-29275000D03*
X131845000Y-29275000D03*
X131845000Y-34225000D03*
X133115000Y-34225000D03*
X134385000Y-34225000D03*
X135655000Y-34225000D03*
%TD*%
D14*
%TO.C,R27*%
X140300000Y-123750000D03*
X138650000Y-123750000D03*
%TD*%
D39*
%TO.C,J1*%
X70000000Y-40000000D03*
D40*
X70000000Y-37500000D03*
%TD*%
D13*
%TO.C,C1*%
X131475000Y-27250000D03*
X133025000Y-27250000D03*
%TD*%
D38*
%TO.C,R54*%
X82270000Y-35555000D03*
X82270000Y-33905000D03*
%TD*%
D14*
%TO.C,R26*%
X143325000Y-86250000D03*
X141675000Y-86250000D03*
%TD*%
%TO.C,R14*%
X140300000Y-61250000D03*
X138650000Y-61250000D03*
%TD*%
D13*
%TO.C,C57*%
X131475000Y-77250000D03*
X133025000Y-77250000D03*
%TD*%
D41*
%TO.C,J3*%
X87500000Y-120000000D03*
D42*
X85000000Y-120000000D03*
%TD*%
D18*
%TO.C,C38*%
X152750000Y-58775000D03*
X152750000Y-57225000D03*
%TD*%
D24*
%TO.C,U32*%
X121925000Y-117055000D03*
X121925000Y-115785000D03*
X121925000Y-114515000D03*
X121925000Y-113245000D03*
X116975000Y-113245000D03*
X116975000Y-114515000D03*
X116975000Y-115785000D03*
X116975000Y-117055000D03*
%TD*%
D19*
%TO.C,C60*%
X110775000Y-116150000D03*
X109225000Y-116150000D03*
%TD*%
%TO.C,C27*%
X146975000Y-48700000D03*
X145425000Y-48700000D03*
%TD*%
D13*
%TO.C,C13*%
X86625000Y-69026500D03*
X88175000Y-69026500D03*
%TD*%
D18*
%TO.C,C63*%
X152750000Y-83775000D03*
X152750000Y-82225000D03*
%TD*%
D23*
%TO.C,R46*%
X100075000Y-48075000D03*
X101725000Y-48075000D03*
%TD*%
%TO.C,R6*%
X117975000Y-60050000D03*
X119625000Y-60050000D03*
%TD*%
D16*
%TO.C,U48*%
X135655000Y-91775000D03*
X134385000Y-91775000D03*
X133115000Y-91775000D03*
X131845000Y-91775000D03*
X131845000Y-96725000D03*
X133115000Y-96725000D03*
X134385000Y-96725000D03*
X135655000Y-96725000D03*
%TD*%
%TO.C,U50*%
X148130000Y-91775000D03*
X146860000Y-91775000D03*
X145590000Y-91775000D03*
X144320000Y-91775000D03*
X144320000Y-96725000D03*
X145590000Y-96725000D03*
X146860000Y-96725000D03*
X148130000Y-96725000D03*
%TD*%
D14*
%TO.C,R31*%
X143325000Y-98750000D03*
X141675000Y-98750000D03*
%TD*%
D15*
%TO.C,C131*%
X116500000Y-47500000D03*
X116500000Y-49050000D03*
%TD*%
D23*
%TO.C,R8*%
X117975000Y-72550000D03*
X119625000Y-72550000D03*
%TD*%
D13*
%TO.C,C68*%
X124025000Y-117400000D03*
X125575000Y-117400000D03*
%TD*%
D23*
%TO.C,R52*%
X100175000Y-101700000D03*
X101825000Y-101700000D03*
%TD*%
D14*
%TO.C,R15*%
X143325000Y-61250000D03*
X141675000Y-61250000D03*
%TD*%
D13*
%TO.C,C36*%
X133725000Y-61250000D03*
X135275000Y-61250000D03*
%TD*%
D20*
%TO.C,U15*%
X138095000Y-46725000D03*
X139365000Y-46725000D03*
X140635000Y-46725000D03*
X141905000Y-46725000D03*
X141905000Y-41775000D03*
X140635000Y-41775000D03*
X139365000Y-41775000D03*
X138095000Y-41775000D03*
%TD*%
D14*
%TO.C,R61*%
X112625000Y-95725000D03*
X110975000Y-95725000D03*
%TD*%
D23*
%TO.C,R10*%
X103275000Y-48075000D03*
X104925000Y-48075000D03*
%TD*%
D16*
%TO.C,U51*%
X135655000Y-104275000D03*
X134385000Y-104275000D03*
X133115000Y-104275000D03*
X131845000Y-104275000D03*
X131845000Y-109225000D03*
X133115000Y-109225000D03*
X134385000Y-109225000D03*
X135655000Y-109225000D03*
%TD*%
D13*
%TO.C,C14*%
X118375000Y-56100000D03*
X119925000Y-56100000D03*
%TD*%
D18*
%TO.C,C120*%
X100100000Y-113075000D03*
X100100000Y-111525000D03*
%TD*%
%TO.C,C116*%
X99900000Y-82275000D03*
X99900000Y-80725000D03*
%TD*%
D13*
%TO.C,C78*%
X124025000Y-104900000D03*
X125575000Y-104900000D03*
%TD*%
%TO.C,C31*%
X124475000Y-45562500D03*
X126025000Y-45562500D03*
%TD*%
D15*
%TO.C,C132*%
X116500000Y-60000000D03*
X116500000Y-61550000D03*
%TD*%
D16*
%TO.C,U22*%
X148130000Y-66775000D03*
X146860000Y-66775000D03*
X145590000Y-66775000D03*
X144320000Y-66775000D03*
X144320000Y-71725000D03*
X145590000Y-71725000D03*
X146860000Y-71725000D03*
X148130000Y-71725000D03*
%TD*%
%TO.C,U23*%
X135655000Y-79275000D03*
X134385000Y-79275000D03*
X133115000Y-79275000D03*
X131845000Y-79275000D03*
X131845000Y-84225000D03*
X133115000Y-84225000D03*
X134385000Y-84225000D03*
X135655000Y-84225000D03*
%TD*%
D38*
%TO.C,R55*%
X82270000Y-32425000D03*
X82270000Y-30775000D03*
%TD*%
D19*
%TO.C,C69*%
X110775000Y-91150000D03*
X109225000Y-91150000D03*
%TD*%
D16*
%TO.C,U53*%
X148130000Y-104275000D03*
X146860000Y-104275000D03*
X145590000Y-104275000D03*
X144320000Y-104275000D03*
X144320000Y-109225000D03*
X145590000Y-109225000D03*
X146860000Y-109225000D03*
X148130000Y-109225000D03*
%TD*%
D13*
%TO.C,C58*%
X124475000Y-70562500D03*
X126025000Y-70562500D03*
%TD*%
D25*
%TO.C,R64*%
X114950000Y-50525000D03*
X114950000Y-52175000D03*
%TD*%
D24*
%TO.C,U42*%
X121925000Y-42055000D03*
X121925000Y-40785000D03*
X121925000Y-39515000D03*
X121925000Y-38245000D03*
X116975000Y-38245000D03*
X116975000Y-39515000D03*
X116975000Y-40785000D03*
X116975000Y-42055000D03*
%TD*%
D13*
%TO.C,C49*%
X133725000Y-36250000D03*
X135275000Y-36250000D03*
%TD*%
D18*
%TO.C,C119*%
X100200000Y-104875000D03*
X100200000Y-103325000D03*
%TD*%
D17*
%TO.C,R17*%
X150500000Y-59212500D03*
X150500000Y-56287500D03*
%TD*%
D14*
%TO.C,R58*%
X112625000Y-58225000D03*
X110975000Y-58225000D03*
%TD*%
D18*
%TO.C,C47*%
X152750000Y-71275000D03*
X152750000Y-69725000D03*
%TD*%
D13*
%TO.C,C12*%
X86625000Y-67226500D03*
X88175000Y-67226500D03*
%TD*%
%TO.C,C90*%
X112225000Y-66150000D03*
X113775000Y-66150000D03*
%TD*%
D16*
%TO.C,U12*%
X148130000Y-29275000D03*
X146860000Y-29275000D03*
X145590000Y-29275000D03*
X144320000Y-29275000D03*
X144320000Y-34225000D03*
X145590000Y-34225000D03*
X146860000Y-34225000D03*
X148130000Y-34225000D03*
%TD*%
D19*
%TO.C,C96*%
X147525000Y-124000000D03*
X145975000Y-124000000D03*
%TD*%
D20*
%TO.C,U52*%
X138095000Y-109225000D03*
X139365000Y-109225000D03*
X140635000Y-109225000D03*
X141905000Y-109225000D03*
X141905000Y-104275000D03*
X140635000Y-104275000D03*
X139365000Y-104275000D03*
X138095000Y-104275000D03*
%TD*%
D23*
%TO.C,R51*%
X99675000Y-94100000D03*
X101325000Y-94100000D03*
%TD*%
D15*
%TO.C,C135*%
X116500000Y-97500000D03*
X116500000Y-99050000D03*
%TD*%
%TO.C,C5*%
X80325000Y-71514000D03*
X80325000Y-73064000D03*
%TD*%
D37*
%TO.C,C113*%
X89250000Y-57600000D03*
X87350000Y-57600000D03*
%TD*%
D16*
%TO.C,U47*%
X148130000Y-116775000D03*
X146860000Y-116775000D03*
X145590000Y-116775000D03*
X144320000Y-116775000D03*
X144320000Y-121725000D03*
X145590000Y-121725000D03*
X146860000Y-121725000D03*
X148130000Y-121725000D03*
%TD*%
D15*
%TO.C,C6*%
X80412500Y-80439000D03*
X80412500Y-81989000D03*
%TD*%
%TO.C,C81*%
X114950000Y-35000000D03*
X114950000Y-36550000D03*
%TD*%
%TO.C,C56*%
X114950000Y-72500000D03*
X114950000Y-74050000D03*
%TD*%
D13*
%TO.C,C83*%
X124025000Y-42400000D03*
X125575000Y-42400000D03*
%TD*%
D35*
%TO.C,U30*%
X124050000Y-78062500D03*
X124700000Y-78062500D03*
X125350000Y-78062500D03*
X126000000Y-78062500D03*
X126650000Y-78062500D03*
X127300000Y-78062500D03*
X127950000Y-78062500D03*
X127950000Y-72337500D03*
X127300000Y-72337500D03*
X126650000Y-72337500D03*
X126000000Y-72337500D03*
X125350000Y-72337500D03*
X124700000Y-72337500D03*
X124050000Y-72337500D03*
%TD*%
D13*
%TO.C,C138*%
X118025000Y-49050000D03*
X119575000Y-49050000D03*
%TD*%
%TO.C,C73*%
X124025000Y-92400000D03*
X125575000Y-92400000D03*
%TD*%
%TO.C,C139*%
X118025000Y-61550000D03*
X119575000Y-61550000D03*
%TD*%
D14*
%TO.C,R56*%
X112625000Y-33225000D03*
X110975000Y-33225000D03*
%TD*%
D17*
%TO.C,R11*%
X150500000Y-46712500D03*
X150500000Y-43787500D03*
%TD*%
D23*
%TO.C,R39*%
X103375000Y-101700000D03*
X105025000Y-101700000D03*
%TD*%
D28*
%TO.C,C127*%
X109400000Y-84800000D03*
X109400000Y-87750000D03*
%TD*%
D31*
%TO.C,U25*%
X111387500Y-64287501D03*
X112037500Y-64287501D03*
X112687500Y-64287501D03*
X113337500Y-64287501D03*
X113337500Y-60062501D03*
X112687500Y-60062501D03*
X112037500Y-60062501D03*
X111387500Y-60062501D03*
%TD*%
D19*
%TO.C,C101*%
X140875000Y-89750000D03*
X139325000Y-89750000D03*
%TD*%
D13*
%TO.C,C72*%
X124475000Y-83062500D03*
X126025000Y-83062500D03*
%TD*%
D38*
%TO.C,R35*%
X82300000Y-55725000D03*
X82300000Y-54075000D03*
%TD*%
D13*
%TO.C,C70*%
X118375000Y-93600000D03*
X119925000Y-93600000D03*
%TD*%
D19*
%TO.C,C103*%
X146975000Y-98700000D03*
X145425000Y-98700000D03*
%TD*%
D17*
%TO.C,R38*%
X150500000Y-109212500D03*
X150500000Y-106287500D03*
%TD*%
D14*
%TO.C,R30*%
X140300000Y-98750000D03*
X138650000Y-98750000D03*
%TD*%
D18*
%TO.C,C21*%
X100100000Y-57250000D03*
X100100000Y-55700000D03*
%TD*%
D13*
%TO.C,C93*%
X112225000Y-91150000D03*
X113775000Y-91150000D03*
%TD*%
D23*
%TO.C,R18*%
X103300000Y-71360000D03*
X104950000Y-71360000D03*
%TD*%
D28*
%TO.C,C128*%
X109400000Y-97300000D03*
X109400000Y-100250000D03*
%TD*%
D18*
%TO.C,C26*%
X152750000Y-46275000D03*
X152750000Y-44725000D03*
%TD*%
D19*
%TO.C,C55*%
X136825000Y-77250000D03*
X135275000Y-77250000D03*
%TD*%
D23*
%TO.C,R42*%
X103075000Y-109700000D03*
X104725000Y-109700000D03*
%TD*%
%TO.C,R33*%
X102900000Y-94060000D03*
X104550000Y-94060000D03*
%TD*%
D14*
%TO.C,R57*%
X112625000Y-45725000D03*
X110975000Y-45725000D03*
%TD*%
D13*
%TO.C,C35*%
X131475000Y-52250000D03*
X133025000Y-52250000D03*
%TD*%
D16*
%TO.C,U16*%
X148130000Y-41775000D03*
X146860000Y-41775000D03*
X145590000Y-41775000D03*
X144320000Y-41775000D03*
X144320000Y-46725000D03*
X145590000Y-46725000D03*
X146860000Y-46725000D03*
X148130000Y-46725000D03*
%TD*%
D19*
%TO.C,C37*%
X140875000Y-52250000D03*
X139325000Y-52250000D03*
%TD*%
D13*
%TO.C,C34*%
X118375000Y-68600000D03*
X119925000Y-68600000D03*
%TD*%
D28*
%TO.C,C124*%
X109400000Y-47300000D03*
X109400000Y-50250000D03*
%TD*%
D23*
%TO.C,R20*%
X117975000Y-35050000D03*
X119625000Y-35050000D03*
%TD*%
D35*
%TO.C,U27*%
X124050000Y-65562500D03*
X124700000Y-65562500D03*
X125350000Y-65562500D03*
X126000000Y-65562500D03*
X126650000Y-65562500D03*
X127300000Y-65562500D03*
X127950000Y-65562500D03*
X127950000Y-59837500D03*
X127300000Y-59837500D03*
X126650000Y-59837500D03*
X126000000Y-59837500D03*
X125350000Y-59837500D03*
X124700000Y-59837500D03*
X124050000Y-59837500D03*
%TD*%
D19*
%TO.C,C22*%
X136825000Y-39750000D03*
X135275000Y-39750000D03*
%TD*%
D28*
%TO.C,C125*%
X109400000Y-59800000D03*
X109400000Y-62750000D03*
%TD*%
D19*
%TO.C,C87*%
X140875000Y-114750000D03*
X139325000Y-114750000D03*
%TD*%
D39*
%TO.C,J8*%
X70000000Y-96000000D03*
D40*
X70000000Y-93500000D03*
%TD*%
D24*
%TO.C,U26*%
X121925000Y-67055000D03*
X121925000Y-65785000D03*
X121925000Y-64515000D03*
X121925000Y-63245000D03*
X116975000Y-63245000D03*
X116975000Y-64515000D03*
X116975000Y-65785000D03*
X116975000Y-67055000D03*
%TD*%
D14*
%TO.C,R19*%
X140300000Y-73750000D03*
X138650000Y-73750000D03*
%TD*%
D25*
%TO.C,R68*%
X114950000Y-100525000D03*
X114950000Y-102175000D03*
%TD*%
D39*
%TO.C,J5*%
X70000000Y-49000000D03*
D40*
X70000000Y-46500000D03*
%TD*%
D21*
%TO.C,H6*%
X98600000Y-120000000D03*
X99302944Y-118302944D03*
X99302944Y-121697056D03*
X101000000Y-117600000D03*
D22*
X101000000Y-120000000D03*
D21*
X101000000Y-122400000D03*
X102697056Y-118302944D03*
X102697056Y-121697056D03*
X103400000Y-120000000D03*
%TD*%
D39*
%TO.C,J6*%
X69975000Y-67750000D03*
D40*
X69975000Y-65250000D03*
%TD*%
D13*
%TO.C,C54*%
X118375000Y-81100000D03*
X119925000Y-81100000D03*
%TD*%
D19*
%TO.C,C84*%
X136825000Y-114750000D03*
X135275000Y-114750000D03*
%TD*%
D31*
%TO.C,U1*%
X111387500Y-51787501D03*
X112037500Y-51787501D03*
X112687500Y-51787501D03*
X113337500Y-51787501D03*
X113337500Y-47562501D03*
X112687500Y-47562501D03*
X112037500Y-47562501D03*
X111387500Y-47562501D03*
%TD*%
D14*
%TO.C,R37*%
X143325000Y-111250000D03*
X141675000Y-111250000D03*
%TD*%
D23*
%TO.C,R23*%
X103075000Y-79100000D03*
X104725000Y-79100000D03*
%TD*%
D19*
%TO.C,C105*%
X136825000Y-102250000D03*
X135275000Y-102250000D03*
%TD*%
D16*
%TO.C,U19*%
X148130000Y-54275000D03*
X146860000Y-54275000D03*
X145590000Y-54275000D03*
X144320000Y-54275000D03*
X144320000Y-59225000D03*
X145590000Y-59225000D03*
X146860000Y-59225000D03*
X148130000Y-59225000D03*
%TD*%
D23*
%TO.C,R16*%
X117975000Y-85050000D03*
X119625000Y-85050000D03*
%TD*%
D18*
%TO.C,C115*%
X100100000Y-74475000D03*
X100100000Y-72925000D03*
%TD*%
D13*
%TO.C,C23*%
X131475000Y-39750000D03*
X133025000Y-39750000D03*
%TD*%
D21*
%TO.C,H2*%
X67600000Y-30000000D03*
X68302944Y-28302944D03*
X68302944Y-31697056D03*
X70000000Y-27600000D03*
D22*
X70000000Y-30000000D03*
D21*
X70000000Y-32400000D03*
X71697056Y-28302944D03*
X71697056Y-31697056D03*
X72400000Y-30000000D03*
%TD*%
D35*
%TO.C,U44*%
X124050000Y-103062500D03*
X124700000Y-103062500D03*
X125350000Y-103062500D03*
X126000000Y-103062500D03*
X126650000Y-103062500D03*
X127300000Y-103062500D03*
X127950000Y-103062500D03*
X127950000Y-97337500D03*
X127300000Y-97337500D03*
X126650000Y-97337500D03*
X126000000Y-97337500D03*
X125350000Y-97337500D03*
X124700000Y-97337500D03*
X124050000Y-97337500D03*
%TD*%
D19*
%TO.C,C25*%
X140875000Y-39750000D03*
X139325000Y-39750000D03*
%TD*%
D14*
%TO.C,R34*%
X140300000Y-111250000D03*
X138650000Y-111250000D03*
%TD*%
D19*
%TO.C,C2*%
X136825000Y-27250000D03*
X135275000Y-27250000D03*
%TD*%
%TO.C,C52*%
X110775000Y-78650000D03*
X109225000Y-78650000D03*
%TD*%
D13*
%TO.C,C80*%
X118375000Y-43600000D03*
X119925000Y-43600000D03*
%TD*%
D23*
%TO.C,R29*%
X103075000Y-86700000D03*
X104725000Y-86700000D03*
%TD*%
D20*
%TO.C,U46*%
X138095000Y-121725000D03*
X139365000Y-121725000D03*
X140635000Y-121725000D03*
X141905000Y-121725000D03*
X141905000Y-116775000D03*
X140635000Y-116775000D03*
X139365000Y-116775000D03*
X138095000Y-116775000D03*
%TD*%
D18*
%TO.C,C104*%
X103100000Y-97275000D03*
X103100000Y-95725000D03*
%TD*%
D13*
%TO.C,C95*%
X112225000Y-41150000D03*
X113775000Y-41150000D03*
%TD*%
D18*
%TO.C,C102*%
X152750000Y-96275000D03*
X152750000Y-94725000D03*
%TD*%
D17*
%TO.C,R32*%
X150500000Y-96712500D03*
X150500000Y-93787500D03*
%TD*%
D18*
%TO.C,C118*%
X99700000Y-97275000D03*
X99700000Y-95725000D03*
%TD*%
D15*
%TO.C,C76*%
X114950000Y-97500000D03*
X114950000Y-99050000D03*
%TD*%
D13*
%TO.C,C106*%
X131475000Y-102250000D03*
X133025000Y-102250000D03*
%TD*%
D19*
%TO.C,C45*%
X140875000Y-64750000D03*
X139325000Y-64750000D03*
%TD*%
%TO.C,C64*%
X146975000Y-86200000D03*
X145425000Y-86200000D03*
%TD*%
D14*
%TO.C,R59*%
X112625000Y-70725000D03*
X110975000Y-70725000D03*
%TD*%
D20*
%TO.C,U4*%
X84395000Y-55375000D03*
X85665000Y-55375000D03*
X86935000Y-55375000D03*
X88205000Y-55375000D03*
X88205000Y-50425000D03*
X86935000Y-50425000D03*
X85665000Y-50425000D03*
X84395000Y-50425000D03*
%TD*%
D28*
%TO.C,C123*%
X109400000Y-34800000D03*
X109400000Y-37750000D03*
%TD*%
D18*
%TO.C,C40*%
X103500000Y-74475000D03*
X103500000Y-72925000D03*
%TD*%
D14*
%TO.C,R1*%
X143325000Y-36250000D03*
X141675000Y-36250000D03*
%TD*%
D36*
%TO.C,D1*%
X78600000Y-50912500D03*
X78600000Y-52487500D03*
%TD*%
D23*
%TO.C,R36*%
X83175000Y-112400000D03*
X84825000Y-112400000D03*
%TD*%
D16*
%TO.C,U36*%
X148130000Y-79275000D03*
X146860000Y-79275000D03*
X145590000Y-79275000D03*
X144320000Y-79275000D03*
X144320000Y-84225000D03*
X145590000Y-84225000D03*
X146860000Y-84225000D03*
X148130000Y-84225000D03*
%TD*%
G36*
X153943039Y-80269685D02*
G01*
X153988794Y-80322489D01*
X154000000Y-80374000D01*
X154000000Y-85876000D01*
X153980315Y-85943039D01*
X153927511Y-85988794D01*
X153876000Y-86000000D01*
X147374000Y-86000000D01*
X147306961Y-85980315D01*
X147261206Y-85927511D01*
X147250000Y-85876000D01*
X147250000Y-83750000D01*
X144500000Y-83750000D01*
X144500000Y-87126000D01*
X144480315Y-87193039D01*
X144427511Y-87238794D01*
X144376000Y-87250000D01*
X142374000Y-87250000D01*
X142306961Y-87230315D01*
X142261206Y-87177511D01*
X142250000Y-87126000D01*
X142250000Y-82301362D01*
X142269685Y-82234323D01*
X142286319Y-82213681D01*
X144213681Y-80286319D01*
X144275004Y-80252834D01*
X144301362Y-80250000D01*
X153876000Y-80250000D01*
X153943039Y-80269685D01*
G37*
G36*
X153943039Y-42769685D02*
G01*
X153988794Y-42822489D01*
X154000000Y-42874000D01*
X154000000Y-48376000D01*
X153980315Y-48443039D01*
X153927511Y-48488794D01*
X153876000Y-48500000D01*
X147374000Y-48500000D01*
X147306961Y-48480315D01*
X147261206Y-48427511D01*
X147250000Y-48376000D01*
X147250000Y-46250000D01*
X144500000Y-46250000D01*
X144500000Y-49626000D01*
X144480315Y-49693039D01*
X144427511Y-49738794D01*
X144376000Y-49750000D01*
X142374000Y-49750000D01*
X142306961Y-49730315D01*
X142261206Y-49677511D01*
X142250000Y-49626000D01*
X142250000Y-44801362D01*
X142269685Y-44734323D01*
X142286319Y-44713681D01*
X144213681Y-42786319D01*
X144275004Y-42752834D01*
X144301362Y-42750000D01*
X153876000Y-42750000D01*
X153943039Y-42769685D01*
G37*
G36*
X153943039Y-30269685D02*
G01*
X153988794Y-30322489D01*
X154000000Y-30374000D01*
X154000000Y-35876000D01*
X153980315Y-35943039D01*
X153927511Y-35988794D01*
X153876000Y-36000000D01*
X147374000Y-36000000D01*
X147306961Y-35980315D01*
X147261206Y-35927511D01*
X147250000Y-35876000D01*
X147250000Y-33750000D01*
X144500000Y-33750000D01*
X144500000Y-37126000D01*
X144480315Y-37193039D01*
X144427511Y-37238794D01*
X144376000Y-37250000D01*
X142374000Y-37250000D01*
X142306961Y-37230315D01*
X142261206Y-37177511D01*
X142250000Y-37126000D01*
X142250000Y-32301362D01*
X142269685Y-32234323D01*
X142286319Y-32213681D01*
X144213681Y-30286319D01*
X144275004Y-30252834D01*
X144301362Y-30250000D01*
X153876000Y-30250000D01*
X153943039Y-30269685D01*
G37*
G36*
X153943039Y-67769685D02*
G01*
X153988794Y-67822489D01*
X154000000Y-67874000D01*
X154000000Y-73376000D01*
X153980315Y-73443039D01*
X153927511Y-73488794D01*
X153876000Y-73500000D01*
X147374000Y-73500000D01*
X147306961Y-73480315D01*
X147261206Y-73427511D01*
X147250000Y-73376000D01*
X147250000Y-71250000D01*
X144500000Y-71250000D01*
X144500000Y-74626000D01*
X144480315Y-74693039D01*
X144427511Y-74738794D01*
X144376000Y-74750000D01*
X142374000Y-74750000D01*
X142306961Y-74730315D01*
X142261206Y-74677511D01*
X142250000Y-74626000D01*
X142250000Y-69801362D01*
X142269685Y-69734323D01*
X142286319Y-69713681D01*
X144213681Y-67786319D01*
X144275004Y-67752834D01*
X144301362Y-67750000D01*
X153876000Y-67750000D01*
X153943039Y-67769685D01*
G37*
G36*
X153943039Y-117769685D02*
G01*
X153988794Y-117822489D01*
X154000000Y-117874000D01*
X154000000Y-123126000D01*
X153980315Y-123193039D01*
X153927511Y-123238794D01*
X153876000Y-123250000D01*
X147374000Y-123250000D01*
X147306961Y-123230315D01*
X147261206Y-123177511D01*
X147250000Y-123126000D01*
X147250000Y-121250000D01*
X144500000Y-121250000D01*
X144500000Y-124626000D01*
X144480315Y-124693039D01*
X144427511Y-124738794D01*
X144376000Y-124750000D01*
X142374000Y-124750000D01*
X142306961Y-124730315D01*
X142261206Y-124677511D01*
X142250000Y-124626000D01*
X142250000Y-119801362D01*
X142269685Y-119734323D01*
X142286319Y-119713681D01*
X144213681Y-117786319D01*
X144275004Y-117752834D01*
X144301362Y-117750000D01*
X153876000Y-117750000D01*
X153943039Y-117769685D01*
G37*
G36*
X153943039Y-105269685D02*
G01*
X153988794Y-105322489D01*
X154000000Y-105374000D01*
X154000000Y-110876000D01*
X153980315Y-110943039D01*
X153927511Y-110988794D01*
X153876000Y-111000000D01*
X147374000Y-111000000D01*
X147306961Y-110980315D01*
X147261206Y-110927511D01*
X147250000Y-110876000D01*
X147250000Y-108750000D01*
X144500000Y-108750000D01*
X144500000Y-112126000D01*
X144480315Y-112193039D01*
X144427511Y-112238794D01*
X144376000Y-112250000D01*
X142374000Y-112250000D01*
X142306961Y-112230315D01*
X142261206Y-112177511D01*
X142250000Y-112126000D01*
X142250000Y-107301362D01*
X142269685Y-107234323D01*
X142286319Y-107213681D01*
X144213681Y-105286319D01*
X144275004Y-105252834D01*
X144301362Y-105250000D01*
X153876000Y-105250000D01*
X153943039Y-105269685D01*
G37*
G36*
X153943039Y-92769685D02*
G01*
X153988794Y-92822489D01*
X154000000Y-92874000D01*
X154000000Y-98376000D01*
X153980315Y-98443039D01*
X153927511Y-98488794D01*
X153876000Y-98500000D01*
X147374000Y-98500000D01*
X147306961Y-98480315D01*
X147261206Y-98427511D01*
X147250000Y-98376000D01*
X147250000Y-96250000D01*
X144500000Y-96250000D01*
X144500000Y-99626000D01*
X144480315Y-99693039D01*
X144427511Y-99738794D01*
X144376000Y-99750000D01*
X142374000Y-99750000D01*
X142306961Y-99730315D01*
X142261206Y-99677511D01*
X142250000Y-99626000D01*
X142250000Y-94801362D01*
X142269685Y-94734323D01*
X142286319Y-94713681D01*
X144213681Y-92786319D01*
X144275004Y-92752834D01*
X144301362Y-92750000D01*
X153876000Y-92750000D01*
X153943039Y-92769685D01*
G37*
G36*
X153943039Y-55269685D02*
G01*
X153988794Y-55322489D01*
X154000000Y-55374000D01*
X154000000Y-60876000D01*
X153980315Y-60943039D01*
X153927511Y-60988794D01*
X153876000Y-61000000D01*
X147374000Y-61000000D01*
X147306961Y-60980315D01*
X147261206Y-60927511D01*
X147250000Y-60876000D01*
X147250000Y-58750000D01*
X144500000Y-58750000D01*
X144500000Y-62126000D01*
X144480315Y-62193039D01*
X144427511Y-62238794D01*
X144376000Y-62250000D01*
X142374000Y-62250000D01*
X142306961Y-62230315D01*
X142261206Y-62177511D01*
X142250000Y-62126000D01*
X142250000Y-57301362D01*
X142269685Y-57234323D01*
X142286319Y-57213681D01*
X144213681Y-55286319D01*
X144275004Y-55252834D01*
X144301362Y-55250000D01*
X153876000Y-55250000D01*
X153943039Y-55269685D01*
G37*
M02*
